<svg width="12" height="11" viewBox="0 0 12 11" fill="none" xmlns="http://www.w3.org/2000/svg">
<path d="M8.16738 0.278121L8.92175 1.64209L10.5071 1.90887C10.7968 1.95764 10.9941 2.21809 10.9529 2.49756L10.7275 4.02641L11.8466 5.13617C12.0511 5.33903 12.0511 5.66097 11.8466 5.86383L10.7275 6.97359L10.9529 8.50244C10.9941 8.78191 10.7968 9.04236 10.5071 9.09113L8.92175 9.35791L8.16738 10.7219C8.02949 10.9712 7.71032 11.0707 7.446 10.9467L6 10.2686L4.554 10.9467C4.28968 11.0707 3.97051 10.9712 3.83262 10.7219L3.07825 9.35791L1.49294 9.09113C1.20315 9.04236 1.0059 8.78191 1.0471 8.50244L1.27251 6.97359L0.153423 5.86383C-0.051141 5.66097 -0.051141 5.33903 0.153423 5.13617L1.27251 4.02641L1.0471 2.49756C1.0059 2.21809 1.20315 1.95764 1.49294 1.90887L3.07825 1.64209L3.83262 0.278121C3.97051 0.028794 4.28968 -0.0706917 4.554 0.0532621L6 0.731366L7.446 0.0532621C7.71032 -0.0706917 8.02949 0.028794 8.16738 0.278121ZM7.96728 4.03748C7.72781 3.86215 7.38552 3.90626 7.20276 4.13599L5.92111 5.74705L5.2999 5.13497C5.08975 4.9279 4.74442 4.92348 4.52858 5.12508C4.31274 5.32668 4.30813 5.65797 4.51828 5.86503L5.58042 6.91158C5.81274 7.14049 6.2028 7.11798 6.40484 6.86401L8.06997 4.77092C8.25273 4.54118 8.20676 4.21281 7.96728 4.03748Z" fill="#2A2552"/>
</svg>
