<svg version="1.2" preserveAspectRatio="xMidYMid meet" height="500" viewBox="0 0 375 374.999991" zoomAndPan="magnify" width="500" xmlns:xlink="http://www.w3.org/1999/xlink" xmlns="http://www.w3.org/2000/svg"><defs><clipPath id="68bad1f9ab"><path d="M 4.933594 4.929688 L 370.066406 4.929688 L 370.066406 370.066406 L 4.933594 370.066406 Z M 4.933594 4.929688"></path></clipPath><clipPath id="b1752cee50"><path d="M 187.5 4.929688 C 86.667969 4.929688 4.933594 86.667969 4.933594 187.5 C 4.933594 288.328125 86.667969 370.066406 187.5 370.066406 C 288.328125 370.066406 370.066406 288.328125 370.066406 187.5 C 370.066406 86.667969 288.328125 4.929688 187.5 4.929688 Z M 187.5 4.929688"></path></clipPath><clipPath id="9dd370e888"><path d="M 68.519531 89.351562 L 306.480469 89.351562 L 306.480469 303 L 68.519531 303 Z M 68.519531 89.351562"></path></clipPath><clipPath id="70333c79b8"><path d="M 149.773438 178 L 170.371094 178 L 170.371094 200.925781 L 149.773438 200.925781 Z M 149.773438 178"></path></clipPath><clipPath id="58960a84bd"><path d="M 165 159.035156 L 185.183594 159.035156 L 185.183594 185.183594 L 165 185.183594 Z M 165 159.035156"></path></clipPath><clipPath id="8087e2dfd2"><path d="M 160 185.496094 L 213.507812 185.496094 L 213.507812 228.816406 L 160 228.816406 Z M 160 185.496094"></path></clipPath><clipPath id="62c940d2e9"><path d="M 204.628906 178 L 225.121094 178 L 225.121094 200.925781 L 204.628906 200.925781 Z M 204.628906 178"></path></clipPath></defs><g id="23e3633f72"><g clip-path="url(#68bad1f9ab)" clip-rule="nonzero"><g clip-path="url(#b1752cee50)" clip-rule="nonzero"><path d="M 4.933594 4.929688 L 370.066406 4.929688 L 370.066406 370.066406 L 4.933594 370.066406 Z M 4.933594 4.929688" style="stroke:none;fill-rule:nonzero;fill:#ffffff;fill-opacity:1;"></path></g></g><g clip-path="url(#9dd370e888)" clip-rule="nonzero"><path d="M 305.339844 142.09375 C 291.976562 73.355469 208.210938 72.207031 187.558594 136.464844 C 166.902344 72.207031 83.140625 73.355469 69.777344 142.09375 C 57.652344 204.457031 187.558594 302.847656 187.558594 302.847656 C 187.558594 302.847656 317.460938 204.457031 305.339844 142.09375 Z M 305.339844 142.09375" style="stroke:none;fill-rule:nonzero;fill:#df8096;fill-opacity:1;"></path></g><g clip-path="url(#70333c79b8)" clip-rule="nonzero"><path d="M 162.898438 200.652344 C 163.0625 200.632812 163.230469 200.617188 163.398438 200.609375 C 165.210938 200.367188 166.8125 199.484375 168.035156 198.128906 C 169.027344 197.046875 169.675781 195.738281 170.050781 194.207031 C 170.367188 193.007812 170.425781 191.664062 170.226562 190.339844 C 169.925781 187.695312 168.886719 185.195312 167.113281 182.996094 C 166.554688 182.296875 165.914062 181.597656 165.1875 180.988281 C 163.574219 179.613281 161.914062 178.832031 160.125 178.398438 C 158.941406 178.167969 157.84375 178.082031 156.695312 178.265625 C 154.878906 178.582031 153.355469 179.382812 152.128906 180.730469 C 151.140625 181.820312 150.421875 183.296875 150.140625 184.910156 C 149.957031 185.761719 149.867188 186.601562 149.933594 187.433594 L 149.949219 187.683594 C 149.976562 187.933594 149.992188 188.183594 150.015625 188.433594 L 150.03125 188.675781 C 150.273438 190.582031 150.921875 192.363281 151.898438 194.039062 C 152.671875 195.3125 153.613281 196.488281 154.695312 197.484375 C 156.226562 198.859375 157.894531 199.808594 159.683594 200.242188 C 160.808594 200.652344 161.898438 200.726562 162.898438 200.652344" style="stroke:none;fill-rule:nonzero;fill:#ffffff;fill-opacity:1;"></path></g><g clip-path="url(#58960a84bd)" clip-rule="nonzero"><path d="M 165.664062 175.183594 C 166.160156 177.183594 166.996094 178.929688 168.078125 180.429688 C 169.160156 181.929688 170.328125 183.011719 171.742188 183.84375 C 172.90625 184.59375 174.15625 185.011719 175.488281 185.09375 L 176.15625 185.09375 C 177.488281 185.09375 178.738281 184.761719 179.820312 184.011719 C 180.902344 183.429688 181.902344 182.515625 182.734375 181.429688 C 183.902344 179.929688 184.648438 178.101562 184.984375 175.933594 C 185.066406 175.019531 185.148438 174.101562 185.148438 173.101562 C 185.148438 172.355469 185.066406 171.605469 184.984375 170.855469 C 184.816406 169.523438 184.484375 168.273438 183.984375 167.023438 C 183.152344 164.941406 181.984375 163.191406 180.488281 161.863281 C 179.402344 160.863281 178.238281 160.113281 176.988281 159.695312 C 175.40625 159.113281 173.824219 159.03125 172.242188 159.445312 C 170.742188 159.777344 169.410156 160.613281 168.246094 161.863281 C 167.246094 162.941406 166.578125 164.109375 165.996094 165.527344 C 165.414062 167.191406 165.082031 168.941406 165.082031 170.9375 C 165.082031 171.269531 165.164062 171.605469 165.164062 172.101562 C 165.246094 173.101562 165.414062 174.1875 165.664062 175.183594" style="stroke:none;fill-rule:nonzero;fill:#ffffff;fill-opacity:1;"></path></g><path d="M 189.3125 179.101562 C 189.894531 180.765625 190.730469 182.097656 191.894531 183.179688 C 193.394531 184.59375 195.140625 185.425781 197.144531 185.511719 L 197.640625 185.511719 C 198.640625 185.511719 199.558594 185.261719 200.554688 185.261719 C 201.972656 184.679688 203.222656 183.84375 204.46875 182.679688 C 205.71875 181.429688 206.71875 180.015625 207.46875 178.433594 C 208.550781 176.183594 209.132812 173.851562 209.214844 171.355469 C 209.214844 169.9375 209.132812 168.523438 208.800781 167.273438 C 208.382812 165.527344 207.800781 164.109375 206.882812 162.859375 C 205.386719 160.777344 203.386719 159.613281 201.054688 159.277344 C 200.972656 159.277344 200.972656 159.277344 200.886719 159.277344 L 198.972656 159.277344 C 197.890625 159.445312 196.726562 159.777344 195.726562 160.363281 C 194.394531 161.109375 193.144531 162.195312 192.0625 163.523438 C 190.894531 164.941406 190.0625 166.605469 189.398438 168.4375 C 188.816406 170.105469 188.566406 171.851562 188.480469 173.605469 C 188.480469 174.351562 188.480469 175.101562 188.566406 175.851562 C 188.730469 177.015625 188.980469 178.101562 189.3125 179.101562" style="stroke:none;fill-rule:nonzero;fill:#ffffff;fill-opacity:1;"></path><g clip-path="url(#8087e2dfd2)" clip-rule="nonzero"><path d="M 210.289062 207.246094 C 209.207031 205.664062 207.875 204.164062 206.292969 202.832031 C 205.210938 201.832031 204.128906 200.75 203.210938 199.585938 C 202.214844 198.335938 201.296875 197.003906 200.546875 195.835938 L 199.964844 194.921875 C 199.382812 194.003906 198.800781 193.171875 198.214844 192.257812 C 197.300781 190.921875 196.464844 189.84375 195.550781 189.007812 C 193.96875 187.507812 192.136719 186.511719 190.054688 186.011719 C 188.722656 185.675781 187.304688 185.59375 185.972656 185.59375 C 184.726562 185.59375 183.476562 185.84375 182.308594 186.34375 C 180.894531 186.925781 179.644531 187.84375 178.3125 189.089844 C 177.5625 189.84375 176.730469 190.757812 175.898438 191.839844 C 175.066406 192.921875 174.316406 194.003906 173.566406 195.089844 L 173.148438 195.753906 C 172.148438 197.085938 171.152344 198.585938 169.984375 199.917969 C 168.988281 201.082031 168.070312 202 167.152344 202.832031 C 165.988281 203.832031 164.820312 205 163.90625 206.246094 C 162.574219 207.996094 161.574219 209.910156 160.910156 211.828125 C 160.492188 213.160156 160.242188 214.492188 160.15625 215.824219 C 160.074219 216.992188 160.15625 218.238281 160.410156 219.320312 C 161.074219 222.402344 162.65625 224.902344 165.238281 226.734375 C 166.738281 227.816406 168.402344 228.480469 170.316406 228.648438 C 170.566406 228.730469 170.734375 228.730469 170.984375 228.730469 L 172.234375 228.730469 C 172.984375 228.730469 173.730469 228.648438 174.316406 228.5625 C 175.980469 228.230469 177.644531 227.816406 179.144531 227.398438 L 179.230469 227.398438 C 180.644531 227.066406 182.058594 226.648438 183.476562 226.398438 C 184.058594 226.316406 184.808594 226.148438 185.558594 226.148438 C 186.554688 226.148438 187.472656 226.148438 188.304688 226.234375 C 189.472656 226.398438 190.804688 226.648438 192.21875 226.980469 C 192.886719 227.148438 193.636719 227.398438 194.300781 227.566406 C 195.21875 227.816406 196.214844 228.066406 197.214844 228.316406 C 198.214844 228.5625 199.296875 228.816406 200.464844 228.816406 L 202.464844 228.816406 C 202.628906 228.816406 202.710938 228.730469 202.878906 228.480469 C 203.378906 228.480469 203.960938 228.398438 204.460938 228.230469 C 205.792969 227.898438 207.128906 227.316406 208.375 226.398438 C 210.039062 225.234375 211.375 223.734375 212.207031 221.984375 C 213.121094 220.070312 213.539062 218.070312 213.453125 215.824219 C 213.371094 214.574219 213.121094 213.160156 212.621094 211.828125 C 212.125 210.246094 211.375 208.746094 210.289062 207.246094" style="stroke:none;fill-rule:nonzero;fill:#ffffff;fill-opacity:1;"></path></g><g clip-path="url(#62c940d2e9)" clip-rule="nonzero"><path d="M 224.855469 184.910156 C 224.574219 183.296875 223.855469 181.820312 222.855469 180.730469 C 221.632812 179.382812 220.117188 178.582031 218.300781 178.265625 C 217.144531 178.082031 216.054688 178.167969 214.863281 178.398438 C 213.070312 178.832031 211.425781 179.613281 209.808594 180.988281 C 209.082031 181.597656 208.441406 182.296875 207.886719 182.996094 C 206.109375 185.195312 205.070312 187.695312 204.761719 190.339844 C 204.570312 191.664062 204.628906 193.007812 204.945312 194.207031 C 205.320312 195.738281 205.960938 197.046875 206.957031 198.128906 C 208.183594 199.484375 209.78125 200.367188 211.597656 200.609375 C 211.765625 200.617188 211.933594 200.632812 212.097656 200.652344 C 213.097656 200.726562 214.1875 200.652344 215.304688 200.242188 C 217.09375 199.808594 218.761719 198.859375 220.300781 197.484375 C 221.382812 196.488281 222.316406 195.3125 223.089844 194.039062 C 224.066406 192.363281 224.714844 190.582031 224.953125 188.675781 L 224.980469 188.433594 C 225 188.183594 225.023438 187.933594 225.039062 187.683594 L 225.066406 187.433594 C 225.128906 186.601562 225.03125 185.761719 224.855469 184.910156" style="stroke:none;fill-rule:nonzero;fill:#ffffff;fill-opacity:1;"></path></g></g></svg>