<svg version="1.2" preserveAspectRatio="xMidYMid meet" height="500" viewBox="0 0 375 374.999991" zoomAndPan="magnify" width="500" xmlns:xlink="http://www.w3.org/1999/xlink" xmlns="http://www.w3.org/2000/svg"><defs><clipPath id="89e8d93bd6"><path d="M 41.628906 37.5 L 341.628906 37.5 L 341.628906 337.5 L 41.628906 337.5 Z M 41.628906 37.5"></path></clipPath><clipPath id="e9b33a3269"><path d="M 120 91.230469 L 273.570312 91.230469 L 273.570312 266 L 120 266 Z M 120 91.230469"></path></clipPath><clipPath id="2ee191a0ab"><path d="M 109.320312 169 L 223 169 L 223 283.980469 L 109.320312 283.980469 Z M 109.320312 169"></path></clipPath></defs><g id="6da09714b7"><g clip-path="url(#89e8d93bd6)" clip-rule="nonzero"><path d="M 191.628906 337.5 C 108.761719 337.5 41.628906 269.90625 41.628906 187.5 C 41.628906 105.09375 108.761719 37.5 191.628906 37.5 C 274.5 37.5 341.628906 104.628906 341.628906 187.5 C 341.628906 270.371094 274.039062 337.5 191.628906 337.5 Z M 191.628906 46.757812 C 113.851562 46.757812 50.890625 109.722656 50.890625 187.5 C 50.890625 265.277344 113.851562 328.242188 191.628906 328.242188 C 269.410156 328.242188 332.371094 265.277344 332.371094 187.5 C 332.371094 109.722656 268.945312 46.757812 191.628906 46.757812 Z M 191.628906 46.757812" style="stroke:none;fill-rule:nonzero;fill:#df8096;fill-opacity:1;"></path></g><g clip-path="url(#e9b33a3269)" clip-rule="nonzero"><path d="M 176.03125 265.039062 C 159.253906 265.039062 143.683594 259.128906 131.929688 248.070312 C 125.191406 241.78125 120.871094 227.800781 120.996094 212.484375 C 121.125 192.847656 128.179688 175.179688 140.316406 163.996094 C 163.449219 142.832031 187.980469 134.316406 207.746094 127.453125 C 214.796875 124.972656 221.472656 122.6875 227.191406 120.082031 C 248.164062 110.546875 267.925781 92.5 268.117188 92.308594 C 269.070312 91.484375 270.40625 91.230469 271.550781 91.738281 C 272.695312 92.246094 273.457031 93.390625 273.457031 94.660156 C 273.457031 94.914062 273.457031 123.386719 268.625 155.542969 C 262.082031 199.136719 250.132812 228.433594 233.226562 242.605469 C 217.339844 255.890625 198.59375 263.832031 180.480469 264.914062 C 178.890625 264.976562 177.496094 265.039062 176.03125 265.039062 Z M 266.910156 101.714844 C 259.410156 107.941406 245.113281 118.875 229.796875 125.863281 C 223.824219 128.597656 217.023438 130.949219 209.777344 133.425781 C 190.585938 140.097656 166.753906 148.359375 144.574219 168.632812 C 133.707031 178.609375 127.351562 194.625 127.289062 212.484375 C 127.226562 225.894531 130.785156 238.347656 136.25 243.433594 C 147.941406 254.363281 163.070312 259.574219 180.035156 258.558594 C 196.878906 257.542969 214.289062 250.167969 229.097656 237.714844 C 261.253906 210.832031 266.148438 126.691406 266.910156 101.714844 Z M 266.910156 101.714844" style="stroke:none;fill-rule:nonzero;fill:#df8096;fill-opacity:1;"></path></g><g clip-path="url(#2ee191a0ab)" clip-rule="nonzero"><path d="M 112.992188 283.34375 C 112.671875 283.34375 112.292969 283.28125 111.972656 283.152344 C 110.320312 282.582031 109.429688 280.800781 110.003906 279.148438 C 110.511719 277.6875 122.523438 242.734375 145.71875 227.292969 C 150.804688 223.921875 156.269531 220.617188 162.050781 217.058594 C 181.753906 205.113281 204.058594 191.574219 216.640625 171.429688 C 217.59375 169.96875 219.5 169.460938 221.027344 170.414062 C 222.488281 171.367188 222.996094 173.273438 222.042969 174.796875 C 208.632812 196.214844 185.628906 210.195312 165.355469 222.523438 C 159.636719 226.019531 154.234375 229.261719 149.277344 232.566406 C 138.21875 239.9375 129.769531 252.710938 124.683594 262.117188 C 119.089844 272.476562 116.105469 281.117188 116.039062 281.183594 C 115.53125 282.515625 114.261719 283.34375 112.992188 283.34375 Z M 112.992188 283.34375" style="stroke:none;fill-rule:nonzero;fill:#df8096;fill-opacity:1;"></path></g><path d="M 186.582031 208.351562 C 185.246094 208.351562 183.976562 207.464844 183.53125 206.128906 C 183.023438 204.476562 183.976562 202.695312 185.628906 202.125 C 185.882812 202.0625 192.175781 200.089844 199.484375 198.628906 C 209.96875 196.53125 216.960938 196.597656 220.835938 198.691406 C 222.359375 199.519531 222.933594 201.488281 222.042969 203.015625 C 221.152344 204.539062 219.246094 205.113281 217.722656 204.222656 C 213.335938 201.808594 197.449219 205.046875 187.535156 208.164062 C 187.21875 208.289062 186.898438 208.351562 186.582031 208.351562 Z M 186.582031 208.351562" style="stroke:none;fill-rule:nonzero;fill:#df8096;fill-opacity:1;"></path><path d="M 162.75 223.476562 C 162.242188 223.476562 161.671875 223.351562 161.160156 223.035156 C 159.636719 222.144531 159.128906 220.238281 159.953125 218.710938 C 160.082031 218.457031 169.042969 202.378906 166.371094 189.605469 C 165.992188 187.890625 167.136719 186.238281 168.851562 185.855469 C 170.566406 185.476562 172.21875 186.617188 172.601562 188.335938 C 175.714844 203.523438 165.863281 221.125 165.484375 221.890625 C 164.976562 222.90625 163.894531 223.476562 162.75 223.476562 Z M 162.75 223.476562" style="stroke:none;fill-rule:nonzero;fill:#df8096;fill-opacity:1;"></path></g></svg>