<svg version="1.2" preserveAspectRatio="xMidYMid meet" height="500" viewBox="0 0 375 374.999991" zoomAndPan="magnify" width="500" xmlns:xlink="http://www.w3.org/1999/xlink" xmlns="http://www.w3.org/2000/svg"><defs><clipPath id="061847593c"><path d="M 4.933594 4.929688 L 370.066406 4.929688 L 370.066406 370.066406 L 4.933594 370.066406 Z M 4.933594 4.929688"></path></clipPath><clipPath id="be36a41693"><path d="M 187.5 4.929688 C 86.667969 4.929688 4.933594 86.667969 4.933594 187.5 C 4.933594 288.328125 86.667969 370.066406 187.5 370.066406 C 288.328125 370.066406 370.066406 288.328125 370.066406 187.5 C 370.066406 86.667969 288.328125 4.929688 187.5 4.929688 Z M 187.5 4.929688"></path></clipPath><clipPath id="9aa4cb32fb"><path d="M 72.820312 72.820312 L 302.316406 72.820312 L 302.316406 302.316406 L 72.820312 302.316406 Z M 72.820312 72.820312"></path></clipPath></defs><g id="34312d8c97"><g clip-path="url(#061847593c)" clip-rule="nonzero"><g clip-path="url(#be36a41693)" clip-rule="nonzero"><path d="M 4.933594 4.929688 L 370.066406 4.929688 L 370.066406 370.066406 L 4.933594 370.066406 Z M 4.933594 4.929688" style="stroke:none;fill-rule:nonzero;fill:#ffffff;fill-opacity:1;"></path></g></g><g clip-path="url(#9aa4cb32fb)" clip-rule="nonzero"><path d="M 187.5 72.820312 C 162.015625 72.820312 137.8125 81.082031 117.921875 96.328125 L 117.921875 93.058594 C 117.921875 89.332031 114.902344 86.3125 111.175781 86.3125 C 107.449219 86.3125 104.429688 89.332031 104.429688 93.058594 C 104.429688 93.105469 104.429688 111.238281 104.429688 111.191406 C 104.4375 117.164062 111.695312 120.207031 115.945312 115.953125 C 135.058594 96.839844 160.46875 86.3125 187.5 86.3125 C 243.292969 86.3125 288.683594 131.703125 288.683594 187.5 C 288.683594 243.292969 243.292969 288.683594 187.5 288.683594 C 131.703125 288.683594 86.3125 243.292969 86.3125 187.5 C 86.3125 171.972656 89.734375 157.078125 96.480469 143.234375 C 98.113281 139.882812 96.722656 135.84375 93.375 134.214844 C 90.023438 132.578125 85.984375 133.972656 84.351562 137.320312 C 76.699219 153.023438 72.820312 169.90625 72.820312 187.5 C 72.820312 250.878906 124.109375 302.175781 187.5 302.175781 C 250.878906 302.175781 302.175781 250.886719 302.175781 187.5 C 302.175781 124.121094 250.886719 72.820312 187.5 72.820312 Z M 187.5 72.820312" style="stroke:none;fill-rule:nonzero;fill:#df8096;fill-opacity:1;"></path></g><path d="M 187.5 268.449219 C 232.132812 268.449219 268.449219 232.132812 268.449219 187.5 C 268.449219 142.863281 232.132812 106.546875 187.5 106.546875 C 142.863281 106.546875 106.546875 142.863281 106.546875 187.5 C 106.546875 232.132812 142.863281 268.449219 187.5 268.449219 Z M 149.554688 209.214844 L 180.753906 184.253906 L 180.753906 147.023438 C 180.753906 143.296875 183.773438 140.277344 187.5 140.277344 C 191.222656 140.277344 194.242188 143.296875 194.242188 147.023438 L 194.242188 187.5 C 194.242188 189.546875 193.3125 191.484375 191.710938 192.765625 L 157.984375 219.75 C 155.082031 222.070312 150.835938 221.613281 148.503906 218.695312 C 146.175781 215.785156 146.644531 211.542969 149.554688 209.214844 Z M 149.554688 209.214844" style="stroke:none;fill-rule:nonzero;fill:#df8096;fill-opacity:1;"></path></g></svg>