<svg version="1.2" preserveAspectRatio="xMidYMid meet" height="500" viewBox="0 0 375 374.999991" zoomAndPan="magnify" width="500" xmlns:xlink="http://www.w3.org/1999/xlink" xmlns="http://www.w3.org/2000/svg"><defs><clipPath id="493cf47ca1"><path d="M 41.628906 37.5 L 341.628906 37.5 L 341.628906 337.5 L 41.628906 337.5 Z M 41.628906 37.5"></path></clipPath><clipPath id="ba035702fd"><path d="M 111.257812 87 L 271.757812 87 L 271.757812 288.898438 L 111.257812 288.898438 Z M 111.257812 87"></path></clipPath></defs><g id="474a269d99"><g clip-path="url(#493cf47ca1)" clip-rule="nonzero"><path d="M 191.628906 337.5 C 108.761719 337.5 41.628906 269.90625 41.628906 187.5 C 41.628906 105.09375 108.761719 37.5 191.628906 37.5 C 274.5 37.5 341.628906 104.628906 341.628906 187.5 C 341.628906 270.371094 274.039062 337.5 191.628906 337.5 Z M 191.628906 46.757812 C 113.851562 46.757812 50.890625 109.722656 50.890625 187.5 C 50.890625 265.277344 113.851562 328.242188 191.628906 328.242188 C 269.410156 328.242188 332.371094 265.277344 332.371094 187.5 C 332.371094 109.722656 268.945312 46.757812 191.628906 46.757812 Z M 191.628906 46.757812" style="stroke:none;fill-rule:nonzero;fill:#df8096;fill-opacity:1;"></path></g><g clip-path="url(#ba035702fd)" clip-rule="nonzero"><path d="M 233.808594 174.214844 C 234.402344 172.589844 234.894531 170.929688 235.289062 169.25 C 236.695312 163.273438 236.980469 157.148438 236.828125 152.023438 C 236.761719 149.429688 238.800781 147.265625 241.398438 147.203125 C 242.679688 147.164062 243.851562 147.644531 244.71875 148.457031 C 253.121094 155.921875 259.925781 165.117188 264.578125 175.46875 C 269.089844 185.492188 271.597656 196.601562 271.597656 208.277344 C 271.597656 230.390625 262.632812 250.410156 248.144531 264.90625 C 233.65625 279.394531 213.628906 288.359375 191.515625 288.359375 C 169.402344 288.359375 149.382812 279.394531 134.886719 264.90625 C 120.398438 250.417969 111.429688 230.390625 111.429688 208.277344 C 111.429688 175.261719 131.628906 154.269531 153.074219 131.976562 C 165.464844 119.09375 178.292969 105.757812 187.398438 89.523438 C 188.675781 87.257812 191.542969 86.445312 193.816406 87.722656 C 194.308594 87.996094 194.722656 88.34375 195.074219 88.75 C 205.171875 99.121094 214.15625 114.914062 221.105469 131.828125 C 226.910156 145.957031 231.328125 160.945312 233.789062 174.214844 Z M 155.921875 269.304688 C 151.382812 262.507812 148.742188 254.34375 148.742188 245.566406 C 148.742188 227.957031 159.265625 217.027344 170.429688 205.40625 C 176.582031 199.007812 182.953125 192.382812 187.417969 184.4375 C 188.691406 182.160156 191.5625 181.359375 193.835938 182.632812 C 194.628906 183.078125 195.242188 183.71875 195.660156 184.453125 C 200.113281 192.390625 206.484375 199.019531 212.628906 205.40625 C 223.804688 217.027344 234.316406 227.957031 234.316406 245.566406 C 234.316406 254.355469 231.675781 262.519531 227.136719 269.304688 C 232.394531 266.238281 237.214844 262.507812 241.492188 258.222656 C 254.269531 245.445312 262.179688 227.777344 262.179688 208.265625 C 262.179688 197.941406 259.972656 188.144531 256.007812 179.328125 C 253.355469 173.441406 249.929688 167.976562 245.851562 163.078125 C 245.570312 165.8125 245.125 168.609375 244.472656 171.382812 C 242.8125 178.40625 239.8125 185.304688 234.621094 190.835938 C 233.835938 191.777344 232.695312 192.429688 231.382812 192.542969 C 228.789062 192.769531 226.503906 190.84375 226.277344 188.25 C 224.957031 173.183594 219.90625 153.570312 212.429688 135.394531 C 206.84375 121.792969 199.945312 109.050781 192.296875 99.726562 C 183.03125 114.414062 171.269531 126.636719 159.878906 138.488281 C 139.792969 159.367188 120.886719 179.019531 120.886719 208.265625 C 120.886719 227.777344 128.796875 245.445312 141.578125 258.222656 C 145.851562 262.5 150.675781 266.226562 155.933594 269.304688 Z M 167.9375 269.152344 C 173.980469 275.183594 182.3125 278.921875 191.523438 278.921875 C 200.738281 278.921875 209.070312 275.183594 215.109375 269.152344 C 221.140625 263.113281 224.878906 254.78125 224.878906 245.566406 C 224.878906 231.722656 215.648438 222.121094 205.84375 211.929688 C 200.914062 206.8125 195.867188 201.558594 191.523438 195.476562 C 187.183594 201.546875 182.132812 206.804688 177.207031 211.929688 C 167.402344 222.121094 158.167969 231.722656 158.167969 245.566406 C 158.167969 254.78125 161.90625 263.113281 167.9375 269.152344 Z M 167.9375 269.152344" style="stroke:none;fill-rule:nonzero;fill:#df8096;fill-opacity:1;"></path></g></g></svg>