<svg version="1.2" preserveAspectRatio="xMidYMid meet" height="500" viewBox="0 0 375 374.999991" zoomAndPan="magnify" width="500" xmlns:xlink="http://www.w3.org/1999/xlink" xmlns="http://www.w3.org/2000/svg"><defs><clipPath id="524f4fbf4c"><path d="M 4.933594 4.929688 L 370.066406 4.929688 L 370.066406 370.066406 L 4.933594 370.066406 Z M 4.933594 4.929688"></path></clipPath><clipPath id="763f70edc3"><path d="M 187.5 4.929688 C 86.667969 4.929688 4.933594 86.667969 4.933594 187.5 C 4.933594 288.328125 86.667969 370.066406 187.5 370.066406 C 288.328125 370.066406 370.066406 288.328125 370.066406 187.5 C 370.066406 86.667969 288.328125 4.929688 187.5 4.929688 Z M 187.5 4.929688"></path></clipPath><clipPath id="83ca92ffa5"><path d="M 59 65.277344 L 316.4375 65.277344 L 316.4375 310.417969 L 59 310.417969 Z M 59 65.277344"></path></clipPath><clipPath id="f78e166e47"><path d="M 58.453125 64.582031 L 316 64.582031 L 316 309.722656 L 58.453125 309.722656 Z M 58.453125 64.582031"></path></clipPath></defs><g id="a2357bb17e"><g clip-path="url(#524f4fbf4c)" clip-rule="nonzero"><g clip-path="url(#763f70edc3)" clip-rule="nonzero"><path d="M 4.933594 4.929688 L 370.066406 4.929688 L 370.066406 370.066406 L 4.933594 370.066406 Z M 4.933594 4.929688" style="stroke:none;fill-rule:nonzero;fill:#ffffff;fill-opacity:1;"></path></g></g><g clip-path="url(#83ca92ffa5)" clip-rule="nonzero"><path d="M 187.832031 65.433594 L 227.59375 146.039062 L 316.542969 158.964844 L 252.160156 221.75 L 267.40625 310.335938 L 187.832031 268.515625 L 108.207031 310.335938 L 123.398438 221.75 L 59.070312 158.964844 L 148.019531 146.039062 Z M 187.832031 65.433594" style="stroke:none;fill-rule:nonzero;fill:#df8096;fill-opacity:1;"></path></g><g clip-path="url(#f78e166e47)" clip-rule="nonzero"><path d="M 187.214844 64.660156 L 227.027344 145.265625 L 315.976562 158.195312 L 251.59375 220.976562 L 266.789062 309.566406 L 187.214844 267.746094 L 107.640625 309.566406 L 122.832031 220.976562 L 58.453125 158.195312 L 147.402344 145.265625 Z M 187.214844 64.660156" style="stroke:none;fill-rule:nonzero;fill:#df8096;fill-opacity:1;"></path><path d="M 187.214844 64.660156 L 227.027344 145.265625 L 315.976562 158.195312 L 251.59375 220.976562 L 266.789062 309.566406 L 187.214844 267.746094 L 107.640625 309.566406 L 122.832031 220.976562 L 58.453125 158.195312 L 147.402344 145.265625 Z M 187.214844 64.660156" style="stroke:none;fill-rule:nonzero;fill:#df8096;fill-opacity:1;"></path><path d="M 187.214844 64.660156 L 227.027344 145.265625 L 315.976562 158.195312 L 251.59375 220.976562 L 266.789062 309.566406 L 187.214844 267.746094 L 107.640625 309.566406 L 122.832031 220.976562 L 58.453125 158.195312 L 147.402344 145.265625 Z M 187.214844 64.660156" style="stroke:none;fill-rule:nonzero;fill:#df8096;fill-opacity:1;"></path></g></g></svg>