<svg version="1.2" preserveAspectRatio="xMidYMid meet" height="500" viewBox="0 0 375 374.999991" zoomAndPan="magnify" width="500" xmlns:xlink="http://www.w3.org/1999/xlink" xmlns="http://www.w3.org/2000/svg"><g id="34de58e0a5"><path d="M 278.316406 162.574219 L 245.882812 221.566406 C 242.398438 227.898438 232.726562 222.234375 236.203125 215.90625 L 268.636719 156.917969 C 272.117188 150.585938 281.796875 156.25 278.316406 162.574219 Z M 294.871094 199.191406 L 294.871094 212.46875 C 294.871094 219.921875 290.257812 223.644531 281.023438 223.644531 C 271.792969 223.640625 267.175781 219.914062 267.175781 212.46875 L 267.175781 199.191406 C 267.175781 191.746094 271.792969 188.019531 281.023438 188.019531 C 290.257812 188.015625 294.871094 191.738281 294.871094 199.191406 Z M 285.902344 200.539062 C 285.980469 199.890625 285.914062 199.253906 285.703125 198.636719 C 285.496094 198.015625 285.164062 197.472656 284.707031 197.003906 C 284.144531 196.691406 283.550781 196.457031 282.929688 196.296875 C 282.308594 196.132812 281.675781 196.054688 281.03125 196.054688 C 280.386719 196.054688 279.753906 196.132812 279.132812 196.296875 C 278.511719 196.457031 277.917969 196.691406 277.355469 197.003906 C 276.898438 197.472656 276.566406 198.015625 276.359375 198.636719 C 276.148438 199.253906 276.082031 199.890625 276.160156 200.539062 L 276.160156 211.121094 C 276.082031 211.769531 276.148438 212.40625 276.355469 213.023438 C 276.566406 213.644531 276.898438 214.1875 277.355469 214.65625 C 277.917969 214.96875 278.511719 215.207031 279.132812 215.367188 C 279.753906 215.53125 280.386719 215.609375 281.03125 215.609375 C 281.675781 215.609375 282.308594 215.53125 282.929688 215.367188 C 283.550781 215.207031 284.144531 214.96875 284.707031 214.65625 C 285.164062 214.1875 285.496094 213.644531 285.707031 213.023438 C 285.914062 212.40625 285.980469 211.769531 285.902344 211.121094 Z M 233.160156 190.398438 C 223.929688 190.398438 219.3125 186.675781 219.3125 179.226562 L 219.3125 165.953125 C 219.328125 158.515625 223.945312 154.796875 233.160156 154.796875 C 242.378906 154.796875 246.996094 158.523438 247.007812 165.972656 L 247.007812 179.246094 C 247.007812 186.683594 242.394531 190.402344 233.160156 190.398438 Z M 238.03125 167.289062 C 238.105469 166.640625 238.039062 166.007812 237.828125 165.390625 C 237.617188 164.773438 237.28125 164.230469 236.824219 163.765625 C 236.261719 163.453125 235.671875 163.214844 235.046875 163.054688 C 234.425781 162.890625 233.792969 162.8125 233.148438 162.8125 C 232.503906 162.8125 231.871094 162.890625 231.25 163.054688 C 230.625 163.214844 230.03125 163.453125 229.46875 163.765625 C 229.015625 164.234375 228.683594 164.777344 228.472656 165.398438 C 228.265625 166.015625 228.199219 166.652344 228.277344 167.300781 L 228.277344 177.890625 C 228.199219 178.539062 228.265625 179.171875 228.472656 179.792969 C 228.683594 180.410156 229.015625 180.953125 229.46875 181.421875 C 230.03125 181.734375 230.625 181.972656 231.25 182.132812 C 231.871094 182.296875 232.503906 182.375 233.148438 182.375 C 233.792969 182.375 234.425781 182.296875 235.046875 182.132812 C 235.671875 181.972656 236.261719 181.734375 236.824219 181.421875 C 237.28125 180.953125 237.613281 180.410156 237.820312 179.792969 C 238.03125 179.171875 238.097656 178.539062 238.019531 177.890625 Z M 240.414062 331.351562 C 243 351.183594 225.335938 362.742188 207.675781 365.109375 C 198.394531 366.625 189.0625 367.117188 179.671875 366.589844 C 170.285156 366.058594 161.066406 364.519531 152.015625 361.972656 C 152.015625 361.972656 85.792969 346.191406 56.046875 308.46875 C 55.042969 307.195312 52.398438 303.847656 53.453125 301.085938 C 53.894531 299.996094 54.640625 299.195312 55.695312 298.675781 C 61.375 295.351562 67.089844 292.0625 72.832031 288.8125 C 71.082031 286.796875 69.386719 284.738281 67.75 282.636719 C 66.109375 280.53125 64.523438 278.386719 63 276.199219 C 61.472656 274.011719 60.003906 271.785156 58.59375 269.523438 C 57.1875 267.257812 55.835938 264.957031 54.550781 262.621094 C 53.261719 260.285156 52.035156 257.917969 50.875 255.515625 C 49.710938 253.117188 48.613281 250.6875 47.578125 248.226562 C 46.542969 245.769531 45.574219 243.285156 44.671875 240.773438 C 43.769531 238.265625 42.933594 235.734375 42.164062 233.179688 C 41.394531 230.625 40.695312 228.054688 40.058594 225.460938 C 39.425781 222.871094 38.863281 220.265625 38.367188 217.644531 C 37.871094 215.023438 37.445312 212.390625 37.085938 209.75 C 36.730469 207.105469 36.441406 204.453125 36.226562 201.796875 C 36.007812 199.136719 35.863281 196.476562 35.785156 193.808594 C 35.710938 191.144531 35.703125 188.476562 35.769531 185.8125 C 35.832031 183.144531 35.96875 180.480469 36.171875 177.820312 C 36.378906 175.164062 36.652344 172.511719 37 169.867188 C 37.34375 167.222656 37.757812 164.585938 38.242188 161.964844 C 38.726562 159.339844 39.28125 156.734375 39.902344 154.140625 C 40.523438 151.546875 41.214844 148.96875 41.972656 146.414062 C 42.730469 143.855469 43.554688 141.320312 44.449219 138.804688 C 45.339844 136.292969 46.296875 133.804688 47.320312 131.339844 C 48.34375 128.878906 49.433594 126.445312 50.585938 124.039062 C 51.734375 121.632812 52.949219 119.257812 54.226562 116.917969 C 55.503906 114.574219 56.84375 112.269531 58.242188 110 C 59.640625 107.726562 61.101562 105.496094 62.617188 103.300781 C 64.132812 101.109375 65.707031 98.957031 67.339844 96.84375 C 68.96875 94.734375 70.65625 92.667969 72.394531 90.644531 C 74.132812 88.625 75.925781 86.648438 77.769531 84.722656 C 79.613281 82.796875 81.507812 80.917969 83.449219 79.09375 C 85.394531 77.265625 87.382812 75.492188 89.421875 73.769531 C 91.457031 72.046875 93.539062 70.378906 95.664062 68.765625 C 97.789062 67.15625 99.953125 65.601562 102.160156 64.101562 C 104.367188 62.605469 106.613281 61.167969 108.898438 59.789062 C 111.179688 58.410156 113.5 57.089844 115.851562 55.832031 C 118.203125 54.578125 120.585938 53.382812 123.003906 52.253906 C 125.417969 51.121094 127.863281 50.054688 130.335938 49.054688 C 132.808594 48.050781 135.304688 47.117188 137.824219 46.246094 C 140.347656 45.375 142.890625 44.574219 145.453125 43.839844 C 148.015625 43.101562 150.597656 42.433594 153.195312 41.835938 C 155.796875 41.238281 158.410156 40.707031 161.035156 40.246094 C 163.664062 39.785156 166.300781 39.390625 168.949219 39.070312 C 171.597656 38.75 174.25 38.496094 176.910156 38.316406 C 179.574219 38.132812 182.238281 38.023438 184.902344 37.980469 C 187.570312 37.941406 190.238281 37.96875 192.902344 38.070312 C 195.566406 38.167969 198.226562 38.339844 200.886719 38.578125 C 203.542969 38.820312 206.191406 39.128906 208.828125 39.507812 C 211.46875 39.890625 214.097656 40.339844 216.714844 40.859375 C 219.332031 41.375 221.929688 41.964844 224.515625 42.621094 C 227.101562 43.277344 229.667969 44 232.214844 44.792969 C 234.761719 45.585938 237.285156 46.441406 239.789062 47.367188 C 242.289062 48.292969 244.765625 49.285156 247.214844 50.339844 C 249.664062 51.394531 252.082031 52.515625 254.472656 53.699219 C 256.863281 54.882812 259.222656 56.128906 261.546875 57.4375 C 263.871094 58.742188 266.160156 60.113281 268.410156 61.542969 C 270.664062 62.96875 272.875 64.457031 275.050781 66.003906 C 277.222656 67.550781 279.355469 69.152344 281.445312 70.808594 C 283.53125 72.46875 285.574219 74.179688 287.574219 75.949219 C 289.574219 77.714844 291.523438 79.53125 293.425781 81.402344 C 295.328125 83.269531 297.179688 85.1875 298.980469 87.15625 C 300.785156 89.121094 302.53125 91.136719 304.226562 93.195312 C 305.921875 95.253906 307.5625 97.359375 309.144531 99.503906 C 310.726562 101.648438 312.253906 103.835938 313.722656 106.0625 C 315.191406 108.289062 316.601562 110.554688 317.949219 112.855469 C 319.296875 115.15625 320.585938 117.492188 321.808594 119.859375 C 323.035156 122.230469 324.199219 124.628906 325.296875 127.058594 C 326.394531 129.488281 327.429688 131.945312 328.398438 134.433594 C 329.367188 136.917969 330.269531 139.425781 331.105469 141.957031 C 331.941406 144.492188 332.710938 147.042969 333.414062 149.617188 C 334.117188 152.191406 334.75 154.78125 335.3125 157.386719 C 335.878906 159.996094 336.375 162.613281 336.800781 165.246094 C 337.226562 167.878906 337.585938 170.523438 337.871094 173.175781 C 338.160156 175.824219 338.375 178.484375 338.523438 181.148438 C 338.667969 183.808594 338.746094 186.476562 338.75 189.140625 C 338.757812 191.808594 338.691406 194.476562 338.558594 197.140625 C 338.421875 199.804688 338.21875 202.460938 337.941406 205.113281 C 337.667969 207.765625 337.320312 210.410156 336.90625 213.046875 C 336.492188 215.679688 336.007812 218.304688 335.453125 220.910156 C 334.898438 223.519531 334.277344 226.113281 333.589844 228.691406 C 332.898438 231.265625 332.140625 233.824219 331.316406 236.359375 C 330.488281 238.894531 329.597656 241.410156 328.640625 243.898438 C 327.679688 246.386719 326.660156 248.847656 325.570312 251.285156 C 324.480469 253.71875 323.332031 256.125 322.117188 258.5 C 320.902344 260.875 319.625 263.214844 318.285156 265.519531 C 316.945312 267.828125 315.546875 270.097656 314.089844 272.332031 C 312.628906 274.5625 311.113281 276.757812 309.539062 278.910156 C 307.964844 281.0625 306.335938 283.171875 304.648438 285.238281 C 302.964844 287.308594 301.222656 289.328125 299.429688 291.304688 C 297.640625 293.277344 295.796875 295.203125 293.902344 297.082031 C 292.007812 298.960938 290.0625 300.785156 288.074219 302.5625 C 286.082031 304.335938 284.046875 306.058594 281.964844 307.726562 C 279.882812 309.394531 277.757812 311.003906 275.59375 312.558594 C 273.425781 314.117188 271.21875 315.613281 268.972656 317.050781 C 266.726562 318.492188 264.445312 319.867188 262.125 321.1875 C 259.808594 322.503906 257.457031 323.761719 255.070312 324.957031 C 252.6875 326.148438 250.269531 327.28125 247.828125 328.347656 C 245.382812 329.414062 242.910156 330.414062 240.414062 331.351562 Z M 243.050781 301.167969 C 242.636719 298.757812 241.972656 296.421875 241.058594 294.15625 C 240.144531 291.890625 239 289.746094 237.628906 287.726562 C 236.253906 285.703125 234.683594 283.851562 232.914062 282.164062 C 231.144531 280.480469 229.214844 279.003906 227.128906 277.730469 C 211.332031 267.164062 190.925781 264.246094 172.300781 265.171875 C 134.292969 267.039062 100.246094 285.71875 67.984375 304.503906 C 73.308594 309.722656 78.945312 314.585938 84.886719 319.09375 C 90.828125 323.601562 97.027344 327.714844 103.492188 331.4375 C 109.953125 335.160156 116.625 338.457031 123.503906 341.335938 C 130.382812 344.214844 137.417969 346.648438 144.605469 348.632812 C 159.976562 352.894531 175.636719 354.988281 191.585938 354.914062 C 199.765625 355.285156 207.773438 354.289062 215.613281 351.917969 C 222.585938 349.378906 230.039062 343.085938 229.582031 334.976562 L 227.265625 335.222656 C 219.34375 336.769531 211.351562 337.699219 203.285156 338.003906 C 195.222656 338.308594 187.183594 337.988281 179.167969 337.039062 C 171.152344 336.089844 163.261719 334.527344 155.488281 332.351562 C 147.71875 330.175781 140.160156 327.410156 132.820312 324.054688 C 126.261719 321.070312 131.964844 311.410156 138.480469 314.378906 C 145.589844 317.582031 152.914062 320.1875 160.453125 322.195312 C 167.992188 324.199219 175.640625 325.582031 183.40625 326.332031 C 191.167969 327.085938 198.941406 327.203125 206.722656 326.679688 C 214.507812 326.160156 222.195312 325.011719 229.789062 323.230469 L 229.789062 323.179688 C 230.277344 322.984375 230.75 322.761719 231.214844 322.511719 C 231.421875 322.378906 231.632812 322.257812 231.851562 322.148438 C 232.804688 321.683594 233.714844 321.144531 234.585938 320.535156 C 235.453125 319.925781 236.269531 319.253906 237.035156 318.519531 C 237.796875 317.78125 238.5 316.988281 239.136719 316.144531 C 239.777344 315.296875 240.347656 314.40625 240.847656 313.46875 C 241.347656 312.535156 241.773438 311.5625 242.121094 310.5625 C 242.46875 309.558594 242.738281 308.535156 242.925781 307.492188 C 243.113281 306.449219 243.21875 305.394531 243.242188 304.335938 C 243.265625 303.273438 243.207031 302.21875 243.0625 301.167969 Z M 326.542969 172.558594 C 326.214844 169.832031 325.8125 167.113281 325.324219 164.410156 C 324.839844 161.703125 324.277344 159.015625 323.632812 156.34375 C 322.988281 153.671875 322.269531 151.019531 321.46875 148.390625 C 320.671875 145.761719 319.796875 143.15625 318.84375 140.578125 C 317.890625 138 316.863281 135.453125 315.761719 132.933594 C 314.664062 130.417969 313.488281 127.933594 312.242188 125.484375 C 310.992188 123.035156 309.675781 120.625 308.285156 118.253906 C 306.898438 115.882812 305.441406 113.550781 303.914062 111.265625 C 302.390625 108.980469 300.800781 106.742188 299.140625 104.546875 C 297.484375 102.355469 295.765625 100.214844 293.984375 98.121094 C 292.199219 96.03125 290.359375 93.992188 288.457031 92.007812 C 286.554688 90.023438 284.59375 88.097656 282.578125 86.230469 C 280.5625 84.363281 278.496094 82.554688 276.375 80.808594 C 274.253906 79.058594 272.082031 77.375 269.859375 75.757812 C 267.640625 74.136719 265.375 72.582031 263.0625 71.097656 C 260.75 69.609375 258.398438 68.191406 256.003906 66.84375 C 253.609375 65.496094 251.175781 64.21875 248.707031 63.011719 C 246.238281 61.808594 243.734375 60.675781 241.199219 59.617188 C 238.664062 58.558594 236.097656 57.574219 233.503906 56.667969 C 230.910156 55.757812 228.289062 54.925781 225.648438 54.171875 C 223.003906 53.417969 220.34375 52.742188 217.660156 52.144531 C 214.976562 51.546875 212.28125 51.027344 209.566406 50.585938 C 206.855469 50.148438 204.132812 49.789062 201.398438 49.507812 C 198.664062 49.226562 195.921875 49.027344 193.175781 48.910156 C 190.429688 48.792969 187.683594 48.753906 184.9375 48.796875 C 182.1875 48.835938 179.445312 48.960938 176.703125 49.164062 C 173.960938 49.367188 171.230469 49.652344 168.507812 50.015625 C 165.78125 50.378906 163.070312 50.824219 160.371094 51.34375 C 157.675781 51.867188 154.996094 52.46875 152.332031 53.152344 C 149.667969 53.832031 147.027344 54.589844 144.410156 55.425781 C 141.792969 56.261719 139.199219 57.171875 136.636719 58.160156 C 134.070312 59.148438 131.539062 60.207031 129.035156 61.34375 C 126.53125 62.480469 124.066406 63.691406 121.632812 64.972656 C 119.203125 66.253906 116.8125 67.605469 114.460938 69.027344 C 112.105469 70.449219 109.800781 71.9375 107.535156 73.492188 C 105.269531 75.050781 103.050781 76.671875 100.882812 78.359375 C 98.714844 80.046875 96.597656 81.796875 94.527344 83.609375 C 92.460938 85.421875 90.449219 87.292969 88.492188 89.222656 C 86.539062 91.152344 84.636719 93.136719 82.796875 95.179688 C 80.957031 97.21875 79.179688 99.3125 77.460938 101.457031 C 75.746094 103.605469 74.089844 105.796875 72.503906 108.039062 C 70.914062 110.285156 69.394531 112.570312 67.9375 114.902344 C 66.484375 117.234375 65.101562 119.609375 63.785156 122.019531 C 62.46875 124.433594 61.226562 126.882812 60.054688 129.371094 C 58.886719 131.855469 57.789062 134.375 56.765625 136.925781 C 55.742188 139.476562 54.792969 142.054688 53.921875 144.660156 C 53.050781 147.269531 52.253906 149.898438 51.539062 152.550781 C 50.820312 155.203125 50.183594 157.875 49.621094 160.566406 C 49.058594 163.257812 48.578125 165.960938 48.175781 168.679688 C 47.777344 171.398438 47.453125 174.125 47.210938 176.863281 C 46.972656 179.601562 46.808594 182.34375 46.730469 185.089844 C 46.648438 187.839844 46.648438 190.585938 46.730469 193.332031 C 46.808594 196.082031 46.972656 198.824219 47.210938 201.558594 C 47.453125 204.296875 47.777344 207.027344 48.179688 209.746094 C 48.578125 212.464844 49.0625 215.167969 49.621094 217.859375 C 50.183594 220.550781 50.820312 223.222656 51.539062 225.875 C 52.257812 228.527344 53.050781 231.15625 53.921875 233.761719 C 54.796875 236.371094 55.742188 238.949219 56.765625 241.5 C 57.789062 244.050781 58.886719 246.566406 60.058594 249.054688 C 61.230469 251.539062 62.472656 253.988281 63.785156 256.402344 C 65.101562 258.816406 66.488281 261.1875 67.941406 263.519531 C 69.394531 265.851562 70.917969 268.140625 72.503906 270.382812 C 74.09375 272.625 75.746094 274.820312 77.464844 276.964844 C 79.179688 279.113281 80.960938 281.203125 82.800781 283.246094 C 92.4375 278.007812 102.230469 273.074219 112.34375 268.777344 C 145.019531 254.878906 183.199219 247.546875 217.4375 260.464844 C 233.042969 266.351562 247.664062 276.785156 252.789062 293.398438 C 253.785156 296.691406 254.273438 300.058594 254.257812 303.496094 C 254.242188 306.933594 253.71875 310.296875 252.695312 313.578125 C 255.8125 311.929688 258.863281 310.164062 261.847656 308.285156 C 264.832031 306.40625 267.742188 304.417969 270.578125 302.320312 C 273.410156 300.21875 276.164062 298.019531 278.832031 295.714844 C 281.5 293.40625 284.078125 291.003906 286.566406 288.507812 C 289.054688 286.007812 291.445312 283.417969 293.742188 280.738281 C 296.035156 278.058594 298.222656 275.296875 300.308594 272.453125 C 302.394531 269.609375 304.371094 266.691406 306.238281 263.699219 C 308.105469 260.707031 309.855469 257.648438 311.492188 254.523438 C 313.125 251.398438 314.644531 248.21875 316.039062 244.980469 C 317.4375 241.742188 318.710938 238.453125 319.859375 235.121094 C 321.007812 231.785156 322.03125 228.414062 322.925781 225 C 323.824219 221.589844 324.589844 218.152344 325.226562 214.683594 C 325.863281 211.214844 326.371094 207.726562 326.742188 204.21875 C 327.117188 200.710938 327.359375 197.195312 327.472656 193.671875 C 327.582031 190.144531 327.558594 186.621094 327.402344 183.097656 C 327.25 179.574219 326.960938 176.0625 326.542969 172.558594 Z M 93.929688 153.949219 L 89.242188 153.949219 C 88.726562 153.953125 88.230469 154.046875 87.75 154.226562 C 87.269531 154.402344 86.832031 154.660156 86.441406 154.988281 C 86.046875 155.320312 85.722656 155.710938 85.46875 156.15625 C 85.210938 156.597656 85.039062 157.074219 84.949219 157.578125 C 84.859375 158.085938 84.855469 158.589844 84.941406 159.097656 C 85.03125 159.601562 85.199219 160.078125 85.453125 160.523438 C 85.707031 160.972656 86.027344 161.359375 86.417969 161.695312 C 86.804688 162.03125 87.242188 162.289062 87.71875 162.46875 L 88.65625 162.816406 C 89.082031 162.96875 89.46875 163.1875 89.828125 163.460938 C 90.183594 163.738281 90.492188 164.058594 90.75 164.429688 C 91.007812 164.796875 91.203125 165.199219 91.339844 165.628906 C 91.472656 166.058594 91.542969 166.5 91.539062 166.949219 L 91.539062 218.425781 C 91.539062 218.71875 91.570312 219.007812 91.625 219.292969 C 91.683594 219.578125 91.765625 219.855469 91.878906 220.125 C 91.992188 220.394531 92.128906 220.652344 92.289062 220.894531 C 92.449219 221.136719 92.636719 221.359375 92.839844 221.566406 C 93.046875 221.773438 93.273438 221.957031 93.515625 222.117188 C 93.757812 222.28125 94.011719 222.417969 94.28125 222.527344 C 94.550781 222.640625 94.828125 222.726562 95.113281 222.78125 C 95.398438 222.839844 95.6875 222.867188 95.980469 222.867188 L 97.582031 222.867188 C 97.875 222.867188 98.164062 222.839844 98.449219 222.78125 C 98.734375 222.726562 99.011719 222.640625 99.28125 222.53125 C 99.550781 222.417969 99.808594 222.28125 100.050781 222.121094 C 100.292969 221.957031 100.515625 221.773438 100.722656 221.566406 C 100.929688 221.363281 101.113281 221.136719 101.277344 220.894531 C 101.4375 220.652344 101.574219 220.398438 101.6875 220.128906 C 101.800781 219.859375 101.882812 219.578125 101.941406 219.292969 C 101.996094 219.007812 102.027344 218.71875 102.027344 218.425781 L 102.027344 163.125 C 102.296875 160.523438 101.796875 158.082031 100.523438 155.796875 C 99.601562 155.042969 98.566406 154.503906 97.421875 154.183594 C 96.273438 153.859375 95.109375 153.78125 93.929688 153.949219 Z M 150.648438 160.011719 C 152.242188 163.179688 153.375 166.5 154.046875 169.980469 C 154.722656 173.460938 154.910156 176.964844 154.617188 180.496094 L 154.617188 183.636719 C 154.617188 187.457031 154.507812 203.539062 154.246094 206.109375 C 154.011719 208.589844 153.496094 211.011719 152.703125 213.378906 C 152.078125 215.425781 151 217.199219 149.476562 218.699219 C 147.902344 220.140625 146.089844 221.15625 144.039062 221.75 C 141.382812 222.542969 138.667969 222.910156 135.894531 222.847656 C 133.125 222.917969 130.417969 222.539062 127.777344 221.710938 C 125.738281 221.097656 123.925781 220.085938 122.339844 218.664062 C 120.789062 217.160156 119.699219 215.375 119.074219 213.304688 C 118.285156 210.949219 117.773438 208.53125 117.539062 206.054688 C 117.277344 203.480469 117.167969 187.363281 117.167969 183.507812 L 117.167969 180.574219 C 116.9375 174.65625 117.550781 168.824219 119.007812 163.085938 C 119.632812 161.058594 120.710938 159.308594 122.238281 157.835938 C 124.230469 156.445312 126.398438 155.433594 128.746094 154.796875 C 131.089844 154.160156 133.472656 153.9375 135.898438 154.128906 C 143.097656 154.136719 148.003906 156.082031 150.648438 160.011719 Z M 144.296875 177.5 C 144.511719 173.804688 143.949219 170.230469 142.605469 166.777344 C 142.25 166.226562 141.824219 165.738281 141.332031 165.308594 C 140.835938 164.878906 140.289062 164.527344 139.691406 164.253906 C 139.097656 163.980469 138.476562 163.796875 137.824219 163.703125 C 137.175781 163.609375 136.527344 163.605469 135.878906 163.699219 C 135.230469 163.609375 134.585938 163.609375 133.9375 163.703125 C 133.289062 163.792969 132.667969 163.976562 132.074219 164.246094 C 131.480469 164.515625 130.933594 164.863281 130.4375 165.285156 C 129.9375 165.710938 129.511719 166.195312 129.152344 166.742188 C 127.84375 170.097656 127.28125 173.574219 127.464844 177.167969 L 127.464844 186.058594 C 127.40625 194.152344 127.941406 202.203125 129.082031 210.214844 C 130.109375 212.269531 132.421875 213.261719 135.941406 213.261719 C 139.460938 213.261719 141.746094 212.308594 142.734375 210.363281 C 143.855469 202.300781 144.367188 194.199219 144.277344 186.058594 Z M 200.769531 160.011719 C 202.363281 163.179688 203.492188 166.5 204.167969 169.980469 C 204.839844 173.460938 205.03125 176.964844 204.734375 180.496094 L 204.734375 183.636719 C 204.734375 187.457031 204.621094 203.539062 204.367188 206.109375 C 204.128906 208.589844 203.617188 211.011719 202.824219 213.378906 C 202.195312 215.425781 201.121094 217.199219 199.59375 218.699219 C 198.019531 220.140625 196.210938 221.15625 194.160156 221.75 C 191.5 222.542969 188.785156 222.910156 186.011719 222.847656 C 183.242188 222.917969 180.535156 222.539062 177.894531 221.710938 C 175.855469 221.097656 174.042969 220.082031 172.460938 218.664062 C 170.90625 217.160156 169.820312 215.375 169.195312 213.304688 C 168.402344 210.941406 167.890625 208.519531 167.652344 206.035156 C 167.390625 203.460938 167.285156 187.34375 167.285156 183.488281 L 167.285156 180.554688 C 167.050781 174.636719 167.664062 168.808594 169.117188 163.066406 C 169.746094 161.039062 170.824219 159.289062 172.351562 157.820312 C 174.34375 156.429688 176.515625 155.414062 178.859375 154.777344 C 181.203125 154.140625 183.589844 153.917969 186.011719 154.109375 C 193.210938 154.136719 198.125 156.082031 200.769531 160.011719 Z M 194.414062 177.5 C 194.625 173.804688 194.0625 170.230469 192.730469 166.777344 C 192.375 166.230469 191.949219 165.738281 191.453125 165.308594 C 190.957031 164.878906 190.410156 164.53125 189.816406 164.257812 C 189.21875 163.984375 188.597656 163.800781 187.949219 163.703125 C 187.300781 163.609375 186.652344 163.609375 186.003906 163.699219 C 185.355469 163.605469 184.707031 163.605469 184.0625 163.699219 C 183.414062 163.792969 182.792969 163.972656 182.195312 164.242188 C 181.601562 164.511719 181.054688 164.859375 180.558594 165.285156 C 180.0625 165.710938 179.632812 166.195312 179.277344 166.742188 C 177.960938 170.097656 177.398438 173.574219 177.585938 177.167969 L 177.585938 186.058594 C 177.523438 194.152344 178.0625 202.203125 179.199219 210.214844 C 180.226562 212.269531 182.539062 213.261719 186.066406 213.261719 C 189.589844 213.261719 191.863281 212.308594 192.859375 210.363281 C 193.972656 202.300781 194.484375 194.199219 194.398438 186.058594 Z M 194.414062 177.5" style="stroke:none;fill-rule:nonzero;fill:#df8096;fill-opacity:1;"></path></g></svg>