<svg version="1.2" preserveAspectRatio="xMidYMid meet" height="500" viewBox="0 0 375 374.999991" zoomAndPan="magnify" width="500" xmlns:xlink="http://www.w3.org/1999/xlink" xmlns="http://www.w3.org/2000/svg"><defs><clipPath id="be1363342c"><path d="M 41.628906 37.5 L 341.628906 37.5 L 341.628906 337.5 L 41.628906 337.5 Z M 41.628906 37.5"></path></clipPath><clipPath id="6920836055"><path d="M 78 123 L 297 123 L 297 252.847656 L 78 252.847656 Z M 78 123"></path></clipPath></defs><g id="30cfc89fea"><g clip-path="url(#be1363342c)" clip-rule="nonzero"><path d="M 191.628906 337.5 C 108.761719 337.5 41.628906 269.90625 41.628906 187.5 C 41.628906 105.09375 108.761719 37.5 191.628906 37.5 C 274.5 37.5 341.628906 104.628906 341.628906 187.5 C 341.628906 270.371094 274.039062 337.5 191.628906 337.5 Z M 191.628906 46.757812 C 113.851562 46.757812 50.890625 109.722656 50.890625 187.5 C 50.890625 265.277344 113.851562 328.242188 191.628906 328.242188 C 269.410156 328.242188 332.371094 265.277344 332.371094 187.5 C 332.371094 109.722656 268.945312 46.757812 191.628906 46.757812 Z M 191.628906 46.757812" style="stroke:none;fill-rule:nonzero;fill:#df8096;fill-opacity:1;"></path></g><g clip-path="url(#6920836055)" clip-rule="nonzero"><path d="M 292.75 183.023438 C 273.753906 179.046875 258.671875 161.140625 250.367188 151.542969 C 236.621094 135.628906 225.769531 123.117188 210.144531 123.117188 C 206.183594 122.972656 202.28125 123.375 198.433594 124.316406 C 194.585938 125.261719 190.941406 126.710938 187.496094 128.664062 C 184.054688 126.703125 180.410156 125.242188 176.566406 124.292969 C 172.71875 123.339844 168.816406 122.933594 164.855469 123.066406 C 149.230469 123.066406 138.378906 135.609375 124.632812 151.492188 C 114.945312 162.683594 101.269531 178.9375 82.269531 183.023438 C 81.714844 183.148438 81.195312 183.355469 80.707031 183.652344 C 80.222656 183.949219 79.796875 184.316406 79.433594 184.753906 C 79.070312 185.191406 78.785156 185.675781 78.582031 186.207031 C 78.378906 186.738281 78.265625 187.289062 78.246094 187.859375 C 78.226562 188.425781 78.296875 188.984375 78.460938 189.527344 C 78.625 190.074219 78.875 190.578125 79.207031 191.039062 C 79.539062 191.503906 79.933594 191.898438 80.398438 192.230469 C 80.863281 192.558594 81.367188 192.808594 81.910156 192.96875 C 132.929688 207.132812 109.761719 252.957031 187.496094 252.957031 C 265.226562 252.957031 243.484375 206 293.097656 192.96875 C 293.640625 192.804688 294.140625 192.554688 294.601562 192.222656 C 295.0625 191.894531 295.457031 191.496094 295.785156 191.035156 C 296.113281 190.574219 296.359375 190.070312 296.523438 189.527344 C 296.6875 188.984375 296.757812 188.429688 296.738281 187.863281 C 296.71875 187.296875 296.609375 186.75 296.410156 186.21875 C 296.207031 185.6875 295.925781 185.203125 295.566406 184.765625 C 295.207031 184.328125 294.785156 183.960938 294.300781 183.664062 C 293.820312 183.363281 293.300781 183.152344 292.75 183.023438 Z M 187.496094 242.703125 C 130.351562 242.703125 135.644531 216.078125 111.492188 197.070312 C 135.363281 199.722656 148.953125 201.046875 167.34375 192.851562 C 168.898438 192.0625 170.496094 191.363281 172.132812 190.761719 C 173.773438 190.160156 175.441406 189.65625 177.136719 189.25 C 178.835938 188.84375 180.550781 188.539062 182.28125 188.332031 C 184.015625 188.128906 185.753906 188.027344 187.5 188.027344 C 189.246094 188.027344 190.984375 188.128906 192.71875 188.332031 C 194.449219 188.539062 196.164062 188.84375 197.863281 189.25 C 199.558594 189.65625 201.226562 190.160156 202.867188 190.761719 C 204.503906 191.363281 206.101562 192.0625 207.65625 192.851562 C 225.382812 200.808594 237.773438 199.921875 263.515625 197.058594 C 239.417969 215.996094 244.769531 242.703125 187.496094 242.703125 Z M 211.855469 183.5 C 209.96875 182.5625 208.035156 181.734375 206.050781 181.015625 C 204.070312 180.300781 202.054688 179.699219 200.003906 179.21875 C 197.953125 178.734375 195.878906 178.371094 193.785156 178.128906 C 191.691406 177.886719 189.59375 177.765625 187.484375 177.765625 C 185.378906 177.765625 183.277344 177.886719 181.183594 178.128906 C 179.089844 178.371094 177.019531 178.734375 174.96875 179.21875 C 172.917969 179.699219 170.898438 180.300781 168.917969 181.015625 C 166.9375 181.734375 165.003906 182.5625 163.117188 183.5 C 146.207031 191.089844 132.132812 189.519531 102.203125 185.601562 C 108.027344 181.984375 113.476562 177.871094 118.550781 173.257812 C 123.625 168.648438 128.238281 163.613281 132.390625 158.15625 C 144.882812 143.753906 153.914062 133.289062 164.855469 133.289062 C 168.242188 133.023438 171.570312 133.347656 174.839844 134.261719 C 178.109375 135.179688 181.121094 136.632812 183.875 138.621094 C 184.113281 138.851562 184.371094 139.058594 184.648438 139.242188 C 184.925781 139.421875 185.21875 139.574219 185.523438 139.703125 C 185.832031 139.828125 186.148438 139.921875 186.472656 139.988281 C 186.796875 140.054688 187.125 140.089844 187.457031 140.089844 C 187.789062 140.09375 188.117188 140.066406 188.445312 140.003906 C 188.769531 139.945312 189.089844 139.855469 189.398438 139.734375 C 189.707031 139.613281 190 139.464844 190.28125 139.289062 C 190.5625 139.109375 190.824219 138.910156 191.066406 138.683594 C 193.820312 136.671875 196.839844 135.199219 200.121094 134.273438 C 203.402344 133.34375 206.742188 133.019531 210.144531 133.289062 C 221.085938 133.289062 230.117188 143.726562 242.609375 158.15625 C 251.011719 169.101562 261.0625 178.226562 272.765625 185.53125 C 243.40625 189.410156 228.84375 191.089844 211.855469 183.472656 Z M 211.855469 183.5" style="stroke:none;fill-rule:nonzero;fill:#df8096;fill-opacity:1;"></path></g></g></svg>