<svg xmlns="http://www.w3.org/2000/svg" fill="none" viewBox="0 0 95 18" height="18" width="95">
<path fill="#FFA514" d="M7.978 1.60979C8.357 0.914846 9.35486 0.914845 9.73386 1.60979L11.3875 4.64195C11.5313 4.90568 11.7861 5.09078 12.0814 5.14607L15.4761 5.78179C16.2542 5.92749 16.5625 6.87651 16.0187 7.45171L13.646 9.96141C13.4396 10.1797 13.3423 10.4792 13.3809 10.7771L13.8254 14.2022C13.9272 14.9871 13.1199 15.5737 12.4049 15.2342L9.28476 13.7531C9.01339 13.6243 8.69848 13.6243 8.4271 13.7531L5.30701 15.2342C4.59192 15.5737 3.78464 14.9871 3.8865 14.2022L4.33093 10.7771C4.36958 10.4792 4.27227 10.1797 4.0659 9.96141L1.69314 7.45171C1.14933 6.87651 1.45769 5.92749 2.23573 5.78179L5.6305 5.14607C5.92576 5.09078 6.18053 4.90568 6.32436 4.64195L7.978 1.60979Z"></path>
<path fill="#FFA514" d="M27.3 1.60979C27.679 0.914846 28.6769 0.914845 29.0559 1.60979L30.7095 4.64195C30.8534 4.90568 31.1081 5.09078 31.4034 5.14607L34.7982 5.78179C35.5762 5.92749 35.8846 6.87651 35.3407 7.45171L32.968 9.96141C32.7616 10.1797 32.6643 10.4792 32.703 10.7771L33.1474 14.2022C33.2492 14.9871 32.442 15.5737 31.7269 15.2342L28.6068 13.7531C28.3354 13.6243 28.0205 13.6243 27.7491 13.7531L24.629 15.2342C23.9139 15.5737 23.1067 14.9871 23.2085 14.2022L23.6529 10.7771C23.6916 10.4792 23.5943 10.1797 23.3879 9.96141L21.0152 7.45171C20.4714 6.87651 20.7797 5.92749 21.5578 5.78179L24.9525 5.14607C25.2478 5.09078 25.5025 4.90568 25.6464 4.64195L27.3 1.60979Z"></path>
<path fill="#FFA514" d="M46.622 1.60979C47.001 0.914846 47.9989 0.914845 48.3779 1.60979L50.0316 4.64195C50.1754 4.90568 50.4301 5.09078 50.7254 5.14607L54.1202 5.78179C54.8982 5.92749 55.2066 6.87651 54.6628 7.45171L52.29 9.96141C52.0836 10.1797 51.9863 10.4792 52.025 10.7771L52.4694 14.2022C52.5713 14.9871 51.764 15.5737 51.0489 15.2342L47.9288 13.7531C47.6574 13.6243 47.3425 13.6243 47.0711 13.7531L43.9511 15.2342C43.236 15.5737 42.4287 14.9871 42.5305 14.2022L42.975 10.7771C43.0136 10.4792 42.9163 10.1797 42.7099 9.96141L40.3372 7.45171C39.7934 6.87651 40.1017 5.92749 40.8798 5.78179L44.2745 5.14607C44.5698 5.09078 44.8246 4.90568 44.9684 4.64195L46.622 1.60979Z"></path>
<path fill="#FFA514" d="M65.9441 1.60979C66.3231 0.914846 67.321 0.914845 67.7 1.60979L69.3536 4.64195C69.4975 4.90568 69.7522 5.09078 70.0475 5.14607L73.4423 5.78179C74.2203 5.92749 74.5287 6.87651 73.9848 7.45171L71.6121 9.96141C71.4057 10.1797 71.3084 10.4792 71.3471 10.7771L71.7915 14.2022C71.8934 14.9871 71.0861 15.5737 70.371 15.2342L67.2509 13.7531C66.9795 13.6243 66.6646 13.6243 66.3932 13.7531L63.2731 15.2342C62.558 15.5737 61.7508 14.9871 61.8526 14.2022L62.2971 10.7771C62.3357 10.4792 62.2384 10.1797 62.032 9.96141L59.6593 7.45171C59.1155 6.87651 59.4238 5.92749 60.2019 5.78179L63.5966 5.14607C63.8919 5.09078 64.1467 4.90568 64.2905 4.64195L65.9441 1.60979Z"></path>
<path fill="#FFA514" d="M85.2662 1.60979C85.6452 0.914846 86.643 0.914845 87.022 1.60979L88.6757 4.64195C88.8195 4.90568 89.0743 5.09078 89.3695 5.14607L92.7643 5.78179C93.5423 5.92749 93.8507 6.87651 93.3069 7.45171L90.9341 9.96141C90.7277 10.1797 90.6304 10.4792 90.6691 10.7771L91.1135 14.2022C91.2154 14.9871 90.4081 15.5737 89.693 15.2342L86.5729 13.7531C86.3015 13.6243 85.9866 13.6243 85.7152 13.7531L82.5952 15.2342C81.8801 15.5737 81.0728 14.9871 81.1746 14.2022L81.6191 10.7771C81.6577 10.4792 81.5604 10.1797 81.354 9.96141L78.9813 7.45171C78.4375 6.87651 78.7458 5.92749 79.5239 5.78179L82.9186 5.14607C83.2139 5.09078 83.4687 4.90568 83.6125 4.64195L85.2662 1.60979Z"></path>
</svg>
