<svg xmlns="http://www.w3.org/2000/svg" fill="none" viewBox="0 0 38 38" height="38" width="38">
<g clip-path="url(#clip0_4_774)">
<path fill="white" d="M19 0C8.52107 0 0 8.52107 0 19C0 29.4753 8.52107 38 19 38C29.4736 38 38 29.4753 38 19C38 8.52107 29.4736 0 19 0ZM19 35.8865C9.6846 35.8865 2.11171 28.3119 2.11171 19C2.11171 9.68636 9.6846 2.10986 19 2.10986C28.31 2.10986 35.8847 9.68636 35.8847 19C35.8847 28.3118 28.31 35.8865 19 35.8865Z"></path>
<path fill="white" d="M12.3554 18.6653C13.7668 18.6653 14.9104 17.529 14.9104 16.1193C14.9104 14.7097 13.7668 13.5697 12.3554 13.5697C10.953 13.5697 9.80579 14.7097 9.80579 16.1193C9.80579 17.5289 10.953 18.6653 12.3554 18.6653Z"></path>
<path fill="white" d="M25.6391 18.6653C27.0463 18.6653 28.187 17.5246 28.187 16.1174C28.187 14.7103 27.0463 13.5696 25.6391 13.5696C24.232 13.5696 23.0913 14.7103 23.0913 16.1174C23.0913 17.5246 24.232 18.6653 25.6391 18.6653Z"></path>
<path fill="white" d="M19 31.5129C24.0667 31.5129 28.3969 28.4856 30.3675 24.1499H7.6344C9.59771 28.4856 13.9279 31.5129 19 31.5129Z"></path>
</g>
<defs>
<clipPath id="clip0_4_774">
<rect fill="white" height="38" width="38"></rect>
</clipPath>
</defs>
</svg>
