<svg width="22" height="25" viewBox="0 0 22 25" fill="none" xmlns="http://www.w3.org/2000/svg">
<path d="M21.9922 23.5856L20.1827 6.74736C20.1526 6.47626 19.9113 6.26541 19.6399 6.26541H16.2925V5.24125C16.2925 2.34953 13.9403 0 11.0452 0C8.15018 0 5.79795 2.34953 5.79795 5.24125V6.26541H2.36008C2.08866 6.26541 1.84741 6.47626 1.81725 6.74736L0.00784468 23.5856C-0.0223121 23.7362 0.0380015 23.8869 0.128472 24.0073C0.218942 24.1278 0.369726 24.1881 0.52051 24.1881H21.4795C21.6303 24.1881 21.7811 24.1278 21.8715 24.0073C21.962 23.8869 22.0223 23.7362 21.9922 23.5856ZM15.7497 9.30774C16.0211 9.30774 16.2322 9.5186 16.2322 9.7897C16.2322 10.0608 16.0211 10.2717 15.7497 10.2717C15.4783 10.2717 15.2672 10.0608 15.2672 9.7897C15.2672 9.5186 15.4783 9.30774 15.7497 9.30774ZM6.8836 5.24125C6.8836 2.95197 8.75332 1.0844 11.0452 1.0844C13.3372 1.0844 15.2069 2.95197 15.2069 5.24125V6.26541H6.8836V5.24125ZM6.34077 9.30774C6.61218 9.30774 6.82328 9.5186 6.82328 9.7897C6.82328 10.0608 6.61218 10.2717 6.34077 10.2717C6.06936 10.2717 5.85826 10.0608 5.85826 9.7897C5.85826 9.5186 6.06936 9.30774 6.34077 9.30774ZM1.1538 23.0736L2.84258 7.31968H5.79795V8.31371C5.19481 8.52457 4.77262 9.09689 4.77262 9.75957C4.77262 10.603 5.46623 11.2958 6.31062 11.2958C7.15501 11.2958 7.84861 10.603 7.84861 9.75957C7.84861 9.09689 7.42642 8.52457 6.82328 8.31371V7.31968H15.1466V8.31371C14.5434 8.52457 14.1212 9.09689 14.1212 9.75957C14.1212 10.603 14.8148 11.2958 15.6592 11.2958C16.5036 11.2958 17.1972 10.603 17.1972 9.75957C17.1972 9.09689 16.775 8.52457 16.1719 8.31371V7.31968H19.2479L20.9367 23.0736H1.1538Z" fill="white"/>
</svg>
