<svg xmlns="http://www.w3.org/2000/svg" fill="none" viewBox="0 0 15 16" height="16" width="15">
<path fill="#2EB0D2" d="M0.438004 7.74487C0.9186 7.26424 1.69789 7.26424 2.17849 7.74487L7.46184 13.0282L12.7452 7.74487C13.2258 7.26424 14.0051 7.26424 14.4857 7.74487C14.9663 8.22547 14.9663 9.00476 14.4857 9.48536L8.3321 15.639C7.85146 16.1196 7.0722 16.1196 6.5916 15.639L0.438003 9.48536C-0.0425921 9.00476 -0.0425921 8.22547 0.438004 7.74487Z" clip-rule="evenodd" fill-rule="evenodd"></path>
<path fill="#2EB0D2" d="M0.438004 0.360465C0.9186 -0.120156 1.69789 -0.120156 2.17849 0.360465L7.46184 5.64382L12.7452 0.360465C13.2258 -0.120155 14.0051 -0.120155 14.4857 0.360465C14.9663 0.841098 14.9663 1.62034 14.4857 2.10097L8.3321 8.25456C7.85146 8.73515 7.0722 8.73515 6.5916 8.25456L0.438003 2.10097C-0.0425921 1.62034 -0.0425921 0.841098 0.438004 0.360465Z" clip-rule="evenodd" fill-rule="evenodd"></path>
</svg>
