<svg xmlns="http://www.w3.org/2000/svg" fill="none" viewBox="0 0 46 46" height="46" width="46">
<mask height="43" width="43" y="2" x="1" maskUnits="userSpaceOnUse" style="mask-type:luminance" id="mask0_4_757">
<path fill="white" d="M1.89929 2.30615H43.6864V44.0933H1.89929V2.30615Z"></path>
</mask>
<g mask="url(#mask0_4_757)">
<path stroke-miterlimit="10" stroke-width="2" stroke="white" d="M12.9991 25.4745C12.9991 23.9226 14.2572 22.6646 15.8091 22.6646C17.3609 22.6646 18.6189 23.9226 18.6189 25.4745"></path>
<path stroke-miterlimit="10" stroke-width="2" stroke="white" d="M26.9554 25.4745C26.9554 23.9226 28.2134 22.6646 29.7652 22.6646C31.3171 22.6646 32.5751 23.9226 32.5751 25.4745"></path>
<path stroke-miterlimit="10" stroke-width="2" stroke="white" d="M17.8961 31.1024C18.8736 32.7589 20.6757 33.8709 22.7384 33.8709C24.8012 33.8709 26.6033 32.7589 27.5807 31.1024"></path>
<path stroke-miterlimit="10" stroke-width="2" stroke="white" d="M42.4622 24.9889C42.4622 27.2888 40.6201 29.1586 38.33 29.2019C36.479 36.0469 30.2239 41.0834 22.7928 41.0834C15.3618 41.0834 9.10676 36.0469 7.25572 29.2019C4.96559 29.1586 3.12354 27.2888 3.12354 24.9889C3.12354 23.825 3.59526 22.7714 4.35756 22.0083C5.10271 21.2639 6.12453 20.7971 7.25572 20.7759C9.10676 13.9308 15.3618 8.89429 22.7928 8.89429C30.2239 8.89429 36.479 13.9308 38.33 20.7759C39.4612 20.7971 40.483 21.2639 41.2282 22.0083C41.9905 22.7714 42.4622 23.825 42.4622 24.9889Z"></path>
<path stroke-miterlimit="10" stroke-width="2" stroke="white" d="M17.5439 14.1362C17.5439 17.0287 19.8887 19.3736 22.7813 19.3736C25.6739 19.3736 28.0187 17.0287 28.0187 14.1362C28.0187 11.2436 25.6739 8.89881 22.7813 8.89881H21.9605C19.3101 8.89881 17.1616 6.7502 17.1616 4.09973"></path>
<path stroke-miterlimit="10" stroke-width="2" stroke="white" d="M22.851 8.88615H16.4104C13.76 8.88615 11.6115 6.73754 11.6115 4.08716"></path>
</g>
</svg>
