<svg xmlns="http://www.w3.org/2000/svg" fill="none" viewBox="0 0 32 20" height="20" width="32">
<path fill="white" d="M29.386 8.47352L28.5678 5.20047C28.7915 5.15295 28.9594 4.95447 28.9594 4.71668V4.18896C28.9594 3.04316 28.0271 2.11102 26.8814 2.11102H23.1543V1.02249C23.1543 0.458665 22.6957 0 22.1318 0H3.13339C2.56956 0 2.1109 0.458665 2.1109 1.02249V9.99399C2.1109 10.2672 2.33239 10.4888 2.60567 10.4888C2.87888 10.4888 3.10043 10.2673 3.10043 9.99399V1.02249C3.10043 1.00429 3.11518 0.989537 3.13339 0.989537H22.1318C22.15 0.989537 22.1647 1.00429 22.1647 1.02249V9.99411C22.1647 10.2673 22.3862 10.4889 22.6595 10.4889C22.9327 10.4889 23.1543 10.2674 23.1543 9.99411V9.43325H28.9906C28.9911 9.43325 28.9914 9.43337 28.9919 9.43337C28.9924 9.43337 28.9928 9.43331 28.9932 9.43331C29.7114 9.4338 30.3212 9.90518 30.5307 10.5547H28.9922C28.719 10.5547 28.4975 10.7762 28.4975 11.0495V12.1049C28.4975 12.9598 29.1929 13.6552 30.0477 13.6552H30.6084V15.832H29.3148C28.8898 14.605 27.7233 13.7211 26.3536 13.7211C24.9838 13.7211 23.8173 14.605 23.3924 15.832H23.1541V12.1049C23.1541 11.8317 22.9326 11.6101 22.6594 11.6101C22.3862 11.6101 22.1646 11.8316 22.1646 12.1049V15.8319H11.8997C11.4747 14.6048 10.3082 13.721 8.93848 13.721C7.56872 13.721 6.40218 14.6048 5.97727 15.8319H3.13339C3.11518 15.8319 3.10043 15.8172 3.10043 15.799V14.7105H5.24435C5.51756 14.7105 5.73912 14.489 5.73912 14.2157C5.73912 13.9424 5.51762 13.721 5.24435 13.721H0.494768C0.221557 13.721 0 13.9424 0 14.2157C0 14.489 0.221495 14.7105 0.494768 14.7105H2.11096V15.799C2.11096 16.3628 2.56962 16.8214 3.13345 16.8214H5.80595C5.80583 16.8324 5.80509 16.8434 5.80509 16.8544C5.80509 18.5822 7.21077 19.9878 8.93848 19.9878C10.6662 19.9878 12.0719 18.5822 12.0719 16.8544C12.0719 16.8433 12.0711 16.8324 12.071 16.8214H23.221C23.2209 16.8324 23.2202 16.8434 23.2202 16.8544C23.2202 18.5822 24.6259 19.9878 26.3536 19.9878C28.0813 19.9878 29.487 18.5822 29.487 16.8544C29.487 16.8433 29.4862 16.8324 29.4861 16.8214H31.1032C31.3764 16.8214 31.598 16.6 31.598 16.3267V11.0494C31.598 9.74645 30.6367 8.66391 29.386 8.47352ZM23.1543 3.1005H26.8814C27.4816 3.1005 27.9699 3.58878 27.9699 4.18896V4.22192H23.1543V3.1005ZM23.1543 8.44377V5.21139H27.5506L28.3587 8.44377H23.1543ZM8.93848 18.9984C7.75633 18.9984 6.79456 18.0367 6.79456 16.8545C6.79456 15.6723 7.75633 14.7106 8.93848 14.7106C10.1206 14.7106 11.0824 15.6723 11.0824 16.8545C11.0824 18.0367 10.1206 18.9984 8.93848 18.9984ZM26.3537 18.9984C25.1715 18.9984 24.2098 18.0367 24.2098 16.8545C24.2098 15.6723 25.1715 14.7106 26.3537 14.7106C27.5358 14.7106 28.4976 15.6723 28.4976 16.8545C28.4976 18.0367 27.5358 18.9984 26.3537 18.9984ZM30.6086 12.6656H30.0478C29.7386 12.6656 29.4871 12.4141 29.4871 12.1049V11.5441H30.6085V12.6656H30.6086Z"></path>
<path fill="white" d="M8.93851 15.832C8.37468 15.832 7.91602 16.2907 7.91602 16.8545C7.91602 17.4184 8.37468 17.877 8.93851 17.877C9.50234 17.877 9.961 17.4184 9.961 16.8545C9.961 16.2907 9.50234 15.832 8.93851 15.832Z"></path>
<path fill="white" d="M26.3537 15.832C25.7898 15.832 25.3312 16.2907 25.3312 16.8545C25.3312 17.4184 25.7898 17.877 26.3537 17.877C26.9175 17.877 27.3762 17.4184 27.3762 16.8545C27.3762 16.2907 26.9175 15.832 26.3537 15.832Z"></path>
<path fill="white" d="M20.5486 13.7211H13.1603C12.8871 13.7211 12.6655 13.9426 12.6655 14.2159C12.6655 14.4892 12.887 14.7107 13.1603 14.7107H20.5486C20.8218 14.7107 21.0433 14.4892 21.0433 14.2159C21.0433 13.9426 20.8218 13.7211 20.5486 13.7211Z"></path>
<path fill="white" d="M7.883 11.6102H1.55019C1.27698 11.6102 1.05542 11.8317 1.05542 12.1049C1.05542 12.3782 1.27691 12.5997 1.55019 12.5997H7.883C8.15621 12.5997 8.37777 12.3782 8.37777 12.1049C8.37777 11.8317 8.15621 11.6102 7.883 11.6102Z"></path>
<path fill="white" d="M17.2044 4.8945C17.0112 4.70133 16.6979 4.70133 16.5047 4.89456L12.105 9.29428L9.81614 7.00546C9.62291 6.81223 9.30965 6.81223 9.11648 7.00546C8.92325 7.19869 8.92325 7.51189 9.11648 7.70512L11.7552 10.3438C11.8517 10.4404 11.9784 10.4887 12.105 10.4887C12.2315 10.4887 12.3582 10.4404 12.4548 10.3438L17.2043 5.59423C17.3976 5.40093 17.3976 5.08773 17.2044 4.8945Z"></path>
</svg>
