<svg xmlns="http://www.w3.org/2000/svg" fill="none" viewBox="0 0 28 22" height="22" width="28">
<path fill="white" d="M0.566814 0C0.880823 0 1.13367 0.25396 1.13367 0.566853C1.13367 7.75548 6.98229 13.604 14.1709 13.604H25.2729L19.4391 7.7702C19.218 7.54913 19.218 7.18974 19.4391 6.96867C19.6601 6.74761 20.0195 6.74761 20.2406 6.96867L27.0415 13.7696C27.0936 13.8217 27.1356 13.8852 27.165 13.9544C27.2228 14.0927 27.2228 14.2491 27.165 14.3874C27.1367 14.4577 27.0947 14.52 27.0415 14.5722L20.2406 21.3731C20.1294 21.4842 19.9844 21.5397 19.8392 21.5397C19.6941 21.5397 19.549 21.4842 19.4379 21.3742C19.2168 21.1531 19.2168 20.7937 19.4379 20.5727L25.2729 14.7377H14.1709C6.35767 14.7377 1.33514e-05 8.38121 1.33514e-05 0.5668C1.33514e-05 0.25396 0.253922 0 0.566814 0Z"></path>
</svg>
