<svg xmlns="http://www.w3.org/2000/svg" fill="none" viewBox="0 0 23 23" height="23" width="23">
<path fill="white" d="M11.5 0C5.16098 0 0 5.16098 0 11.5C0 13.6317 0.589024 15.7073 1.71098 17.5305L0.813415 21.6537C0.785366 21.85 0.841463 22.0463 0.953658 22.1585C1.0939 22.2988 1.29024 22.3549 1.45854 22.2988L5.6378 21.4012C7.43293 22.439 9.45244 23 11.5 23C17.839 23 23 17.839 23 11.5C23 5.16098 17.839 0 11.5 0ZM11.5 21.878C9.56463 21.878 7.68537 21.3451 6.05854 20.3354C5.97439 20.2793 5.8622 20.2512 5.77805 20.2512C5.75 20.2512 5.6939 20.2512 5.66585 20.2512L2.10366 21.0366L2.86098 17.5585C2.88902 17.4183 2.86098 17.25 2.77683 17.1378C1.68293 15.4549 1.12195 13.4915 1.12195 11.5C1.12195 5.77805 5.77805 1.12195 11.5 1.12195C17.222 1.12195 21.878 5.77805 21.878 11.5C21.878 17.222 17.222 21.878 11.5 21.878ZM15.8476 12.678C15.3707 12.2012 14.6134 12.2012 14.1366 12.678L13.0427 13.772L9.22805 9.95732L10.322 8.86341C10.5463 8.63902 10.6866 8.33049 10.6866 7.9939C10.6866 7.65732 10.5744 7.37683 10.322 7.12439L8.02195 4.82439C7.54512 4.34756 6.78781 4.34756 6.31098 4.82439L5.27317 5.89024C4.68415 6.47927 4.40366 7.29268 4.51585 8.1061C4.79634 10.35 6.11463 12.7902 8.16219 14.8378C10.2098 16.8854 12.65 18.2037 14.8939 18.4841C15.0061 18.4841 15.1183 18.5122 15.2305 18.5122C15.9317 18.5122 16.6049 18.2317 17.1098 17.7268L18.1476 16.689C18.6244 16.2122 18.6244 15.4549 18.1476 14.978L15.8476 12.678ZM17.3622 15.8756L16.3244 16.9134C15.9878 17.25 15.511 17.4183 15.0341 17.3622C13.0707 17.1098 10.7988 15.8756 8.94756 14.0244C7.09634 12.1732 5.8622 9.90122 5.60976 7.9378C5.55366 7.46098 5.72195 6.98415 6.05854 6.64756L7.09634 5.60976C7.12439 5.58171 7.12439 5.58171 7.15244 5.58171C7.18049 5.58171 7.20854 5.58171 7.20854 5.60976L9.50854 7.90976C9.53659 7.93781 9.53659 7.96585 9.53659 7.96585C9.53659 7.96585 9.53659 7.9939 9.50854 8.02195L8.02195 9.50854C7.79756 9.73293 7.79756 10.0695 8.02195 10.2939L12.622 14.8939C12.8463 15.1183 13.1829 15.1183 13.4073 14.8939L14.8939 13.4073C14.95 13.3512 14.978 13.3512 15.0341 13.4073L17.3341 15.7073C17.3902 15.7915 17.3902 15.8476 17.3622 15.8756Z"></path>
</svg>
