<svg xmlns="http://www.w3.org/2000/svg" fill="none" viewBox="0 0 41 40" height="40" width="41">
<path fill="white" d="M38.2994 7.77497L37.517 5.74145L36.145 7.43353C36.1021 7.48771 31.7629 12.7706 26.0543 13.5858C24.9707 13.7407 23.959 13.9423 22.9813 14.1678C23.2496 9.7291 21.4378 5.49452 17.5888 1.55222L16.0681 0L15.4759 2.09272C15.4621 2.13683 14.1492 6.65616 10.8143 8.69094C7.16048 10.9273 4.8334 13.3993 3.71208 16.2416C2.57934 18.9281 2.55036 21.9526 3.63145 24.6604C4.38803 26.5179 5.8541 27.997 7.70477 28.7703C7.88596 28.8394 8.07054 28.8991 8.25787 28.9492C8.16117 30.2057 8.27188 31.4694 8.58546 32.6898C7.90635 32.7491 7.2575 32.7793 6.65022 32.7793C4.9835 32.8116 3.3219 32.5843 1.72518 32.1053L0.859619 34.474C2.73391 35.0617 4.69143 35.3405 6.65525 35.2992C7.63106 35.2955 8.60584 35.2347 9.57449 35.1164C9.98869 35.8432 10.4971 36.5122 11.0864 37.106C13.1269 39.0014 15.8422 39.9997 18.6245 39.8777C22.8813 39.7804 26.9922 38.3073 30.3418 35.6784L30.7109 35.3887C34.1757 32.6747 44.7049 24.4298 38.2994 7.77497ZM8.6812 26.4431L8.66104 26.4356C7.41609 25.9186 6.43445 24.9183 5.94087 23.6638C5.12295 21.5694 5.16185 19.2373 6.04923 17.1715C6.96394 14.8519 8.94705 12.7819 12.1233 10.8416C14.3392 9.35853 16.0755 7.26241 17.1201 4.80912C19.5851 7.55463 20.762 11.2212 20.3556 14.8885C17.5485 15.7443 14.9836 17.2519 12.8704 19.2881C10.8676 21.262 9.42227 23.7305 8.6812 26.4431ZM29.1625 33.3993L28.7844 33.6979C23.6604 37.756 16.0769 38.5308 12.8704 35.3244C12.6584 35.1117 12.4605 34.8852 12.2783 34.6466C17.4351 33.4723 23.7208 30.4359 30.1767 23.4622L28.3272 21.7501C22.0149 28.57 15.9459 31.3569 11.099 32.3333C10.7534 31.1563 10.6517 29.9212 10.8004 28.7035C11.1844 25.7965 12.5415 23.1054 14.6507 21.0684C17.2473 18.4704 21.0952 16.8389 26.4108 16.0803C30.2891 15.3298 33.8479 13.4191 36.6161 10.601C40.8948 24.2118 32.4357 30.8365 29.1625 33.3993Z"></path>
</svg>
