<svg xmlns="http://www.w3.org/2000/svg" fill="none" viewBox="0 0 18 18" height="18" width="18">
<path fill="white" d="M17.0919 9.57805C17.0919 13.7282 13.7275 17.0925 9.57741 17.0925C5.42727 17.0925 2.06292 13.7282 2.06292 9.57805C2.06292 5.42791 5.42727 2.06356 9.57741 2.06356C13.7275 2.06356 17.0919 5.42791 17.0919 9.57805Z"></path>
<path fill="#4392F1" d="M2.60469 2.66162C-0.887106 6.19138 -0.868128 11.9035 2.66163 15.3953C6.19138 18.8871 11.9035 18.8681 15.3953 15.3384C18.8871 11.8086 18.8681 6.09649 15.3384 2.60469C11.8086 -0.887105 6.09649 -0.868129 2.60469 2.66162ZM13.3837 7.27308L8.48762 12.2261C8.07012 12.6436 7.38694 12.6436 6.96944 12.2261L6.21036 11.467L4.61627 9.89193C4.19878 9.47443 4.19878 8.79125 4.61627 8.37375C5.03377 7.95626 5.71695 7.95626 6.13445 8.37375L7.72853 9.94886L11.8656 5.77388C12.2831 5.35638 12.9662 5.35638 13.3837 5.77388C13.8012 6.1724 13.8012 6.85558 13.3837 7.27308Z"></path>
</svg>
