<svg width="512" height="512" viewBox="0 0 512 512" fill="none" xmlns="http://www.w3.org/2000/svg">
<rect width="512" height="512" rx="256" fill="#002855"/>
<path d="M268.867 266.8C315.315 257.59 340.609 230.801 340.609 187.692C340.609 139.136 308.265 109 234.864 109H171V401.996H197.124V272.242H221.177C252.28 272.242 263.887 278.52 285.453 316.193L333.972 402H363L309.09 309.498C290.845 278.104 277.987 270.989 268.862 266.804L268.867 266.8ZM231.131 256.337H197.128V123.652H233.623C287.945 123.652 313.244 143.325 313.244 188.949C313.244 234.574 287.533 256.337 231.135 256.337H231.131Z" fill="white"/>
</svg>
