<svg xmlns="http://www.w3.org/2000/svg" fill="none" viewBox="0 0 122 122" height="122" width="122">
<circle stroke-width="2" stroke="white" r="60" cy="61" cx="61"></circle>
<line stroke-width="2" stroke="white" y2="103.707" x2="19.7071" y1="19.7071" x1="103.707"></line>
<path stroke-width="2" stroke="white" d="M51 43C51 39.6863 53.6863 37 57 37H65C68.3137 37 71 39.6863 71 43V53H51V43Z"></path>
<path stroke-width="2" stroke="white" d="M44 59C44 55.6863 46.6863 53 50 53H72C75.3137 53 78 55.6863 78 59V81C78 84.3137 75.3137 87 72 87H50C46.6863 87 44 84.3137 44 81V59Z"></path>
<line stroke-width="2" stroke="white" y2="36.5144" x2="56.8742" y1="27.5144" x1="51.8742"></line>
<line stroke-width="2" stroke="white" transform="matrix(-0.485643 0.874157 0.874157 0.485643 71 28)" y2="-1" x2="10.2956" y1="-1"></line>
<line stroke-width="2" stroke="white" y2="71" x2="28" y1="71" x1="44"></line>
<line stroke-width="2" stroke="white" y2="71" x2="78" y1="71" x1="94"></line>
<line stroke-width="2" stroke="white" y2="53" x2="61" y1="67" x1="61"></line>
<path stroke-width="2" stroke="white" d="M34.5 47V52.5C34.5 58 37.5 60 44 60"></path>
<path stroke-width="2" stroke="white" d="M87.5 93L87.5 87.5C87.5 82 84.5 80 78 80"></path>
<path stroke-width="2" stroke="white" d="M87.5 47V52.5C87.5 58 84.5 60 78 60"></path>
<path stroke-width="2" stroke="white" d="M34.5 93L34.5 87.5C34.5 82 37.5 80 44 80"></path>
</svg>
