<svg xmlns="http://www.w3.org/2000/svg" fill="none" viewBox="0 0 200 82" height="82" width="200">
<path fill="black" d="M0.302399 0.0496867L22.0076 0.0635093C25.0792 0.0617815 28.288 -0.0853877 31.3453 0.0742814C43.3941 0.703506 48.2275 8.52505 48.5984 19.6221C52.3962 16.3712 57.481 14.8906 62.4393 15.2727C66.3623 15.5484 70.0108 17.3866 72.5674 20.3759C75.2783 23.5504 76.6676 27.7168 77.1932 31.8097C77.675 27.2016 80.6645 21.6425 84.2985 18.6914C87.5508 16.0291 91.7248 14.7636 95.9073 15.172C100.016 15.6141 104.312 17.8553 106.913 21.0865C108.017 22.461 108.884 24.0109 109.475 25.6718L109.467 16.3222L125.754 16.3176C125.752 18.2717 125.712 20.3637 125.761 22.3066C126.818 19.4528 128.154 17.4828 131.011 16.1663C137.844 13.0182 143.595 19.0668 146.067 24.8939C147.65 28.5402 148.346 31.6745 148.918 35.4906C148.908 35.642 148.927 35.9663 149.025 36.0903C149.118 35.2615 149.117 34.5968 149.008 33.7686L149.007 19.8942C149.008 18.5359 148.959 16.9456 149.008 15.6067C149.161 11.4545 148.265 9.43306 143.724 9.1868L143.721 0.248179C149.989 0.316885 156.552 0.315463 162.825 0.257328C162.825 2.98532 162.755 35.2359 162.929 35.4411C163.16 34.1939 163.327 32.8698 163.626 31.6456C164.896 26.425 167.357 21.2768 171.887 18.1444C179.575 12.8277 190.657 15.2499 195.744 23.0087C199.989 29.4851 200.231 36.9456 199.894 44.3813L176.898 44.3744C176.889 47.6779 176.597 52.0665 178.996 54.7168C180.24 56.089 182.49 56.1282 183.75 54.7745C184.924 53.5421 185.256 51.9865 185.615 50.3874C189.919 50.4911 195.138 50.501 199.44 50.3903C198.827 55.6185 197.217 59.9135 192.984 63.3116C186.143 68.8018 174.75 68.4884 169.062 61.4687C167.644 59.7155 166.903 57.7825 166.404 55.612C166.298 56.64 166.347 58.2984 166.347 59.4033L166.35 66.0018C164.808 65.851 162.716 65.9209 161.144 65.9397C156.196 65.999 151.189 65.8436 146.247 65.9613C146.245 62.4091 146.185 58.6646 146.272 55.1278C145.411 59.1123 144.297 63.2006 140.635 65.5778C138.758 66.8107 136.471 67.2514 134.272 66.8039C130.31 65.9574 127.583 63.2478 126.075 59.5925C126.099 60.9346 126.144 62.2763 126.21 63.617C126.364 67.471 126.685 71.1022 131.31 72.0916L131.309 81.4857L107.935 81.4794C107.935 78.5439 107.975 75.5102 107.93 72.5834C114.407 71.4567 112.838 64.1364 112.981 59.293C113.059 56.6996 113.101 52.8592 112.924 50.2996C110.734 61.6741 103.397 68.9518 91.3441 66.923C86.6978 66.1409 83.2833 63.4672 80.6144 59.6621C78.5898 56.7756 78.1177 54.4417 76.9309 51.3341C75.7096 56.7015 73.9826 62.039 68.9929 65.0221C60.9747 69.8157 49.7816 66.6494 44.9055 58.8568C41.6352 53.6307 41.4194 46.7094 41.6032 40.7287C41.6801 38.8667 41.9788 36.887 42.0714 34.9927C37.3147 40.0431 33.8258 39.7814 27.1799 40.0363C25.4299 40.1034 23.5711 40.0642 21.8082 40.0763L21.8162 46.0791C21.8112 50.6045 21.2293 54.7619 27.1473 55.0037C26.9316 57.951 27.0886 62.9186 27.0905 65.9876C25.6441 65.8936 23.8419 65.9379 22.3698 65.9384L14.6407 65.939C10.1967 65.9392 4.37163 65.7789 0.00946911 65.9773C0.0109728 62.4296 0.0531668 58.7953 0 55.2547C6.1509 54.9546 5.45638 50.3726 5.459 45.7684L5.46201 36.5951L5.46033 23.1811C5.4594 20.8507 5.49829 18.5107 5.43158 16.1827C5.34004 12.9884 3.56152 10.9397 0.339513 10.7287C0.17153 7.80853 0.257147 3.06287 0.302399 0.0496867ZM95.5511 56.0057C99.0908 54.5702 99.4545 49.276 99.7614 45.98C100.123 42.0996 100.594 25.8039 94.2259 26.6055C90.0175 28.6896 90.0276 37.6111 89.9801 41.7502C89.9411 45.1576 90.4106 56.4932 95.5511 56.0057ZM131.513 55.5175C133.116 54.5737 133.831 53.0519 134.278 51.3123C135.562 46.3148 135.949 32.5705 133.349 28.125C132.883 27.3283 132.215 26.6264 131.297 26.3878C130.888 26.2851 130.465 26.2598 130.047 26.3131C125.611 27.0465 126.307 33.5475 126.304 36.9168C126.299 41.844 126.07 46.8576 126.789 51.735C127.24 54.4724 128.539 56.3429 131.513 55.5175ZM64.6443 50.3788C66.8612 50.4609 69.1956 50.4238 71.4223 50.4206C72.9969 50.4201 75.115 50.3526 76.6427 50.4251C76.2904 48.4334 75.8932 46.3863 75.9073 44.3638L55.6805 44.3718C55.6969 46.8225 55.5855 48.3157 56.165 50.9623C56.8811 54.2325 59.5459 57.6822 62.9372 54.6064C63.8767 53.7543 64.3755 51.7091 64.6443 50.3788ZM180.345 26.5987C176.615 27.9839 176.601 33.3441 176.638 36.6562L182.267 36.656L185.864 36.6538C185.862 33.8948 185.806 29.6684 183.69 27.593C183.014 26.917 182.092 26.5444 181.136 26.5605C180.872 26.5674 180.608 26.5801 180.345 26.5987ZM59.9915 26.3099C55.6871 27.2254 55.762 33.2767 55.6809 36.6545L60.6528 36.656L64.8899 36.6537C64.8847 33.6894 64.6569 25.6718 59.9915 26.3099ZM22.3691 12.5694L22.3709 27.7548C24.6074 27.7452 27.6627 28.2007 29.2234 26.622C29.293 26.5514 29.3616 26.4797 29.4289 26.407C31.3949 23.4504 31.5678 15.5257 28.3095 13.215C26.9946 12.2826 24.0629 12.5622 22.3691 12.5694Z"></path>
</svg>
