<svg xmlns="http://www.w3.org/2000/svg" fill="none" viewBox="0 0 370 100" height="100" width="370">
<path fill="black" d="M209.605 33.7037C209.605 22.963 209.79 12.963 210.345 3.7037L182.04 9.07408V11.6667L184.815 12.037C186.85 12.2222 188.145 12.963 188.885 14.0741C189.625 15.3704 190.18 17.2222 190.55 20C190.92 25.3704 191.29 37.5926 191.105 56.8519C191.105 75.9259 190.92 87.963 190.55 92.5926C200.725 94.8148 208.68 95.7407 214.6 95.7407C225.7 95.7407 234.395 92.5926 240.685 86.1111C246.975 79.8148 250.305 70.9259 250.305 60C250.305 51.2963 247.9 44.0741 243.09 38.3333C238.28 32.5926 232.175 29.8148 224.96 29.8148C220.15 29.8148 215.155 31.1111 209.605 33.7037ZM210.16 90.7407C209.79 84.8148 209.42 67.037 209.42 37.963C211.085 37.4074 213.305 37.037 216.08 37.037C220.52 37.037 224.035 39.2593 226.625 43.8889C229.215 48.5185 230.51 54.0741 230.51 61.1111C230.51 69.8148 229.03 76.8519 226.07 82.7778C223.11 88.5185 219.41 91.4815 214.785 91.4815C213.305 91.1111 211.825 90.9259 210.16 90.7407ZM75.8501 5.55556H1.8501V9.25926L5.7351 9.62963C8.6951 10.1852 10.7301 11.2963 12.0251 12.963C13.3201 14.8148 14.0601 17.7778 14.2451 21.8519C15.7251 41.8519 15.7251 60.5556 14.2451 77.7778C13.8751 81.8519 13.1351 84.8148 12.0251 86.6667C10.7301 88.5185 8.6951 89.6296 5.7351 90L1.8501 90.5556V94.2593H49.5801V90.5556L44.5851 90.1852C43.3662 90.0831 42.1806 89.7351 41.0996 89.1623C40.0186 88.5894 39.0647 87.8035 38.2951 86.8519C37.0001 85 36.2601 82.037 36.0751 77.963C35.5201 70.5556 35.1501 62.037 35.1501 52.5926L45.1401 52.7778C50.5051 52.963 54.2051 57.037 56.0551 65.1852H59.7551V35H56.0551C54.2051 42.963 50.6901 47.037 45.1401 47.2222L35.1501 47.4074C35.1501 30.7407 35.5201 18.8889 36.0751 11.6667H50.6901C61.0501 11.6667 68.0801 18.3333 72.1501 31.6667L76.5901 30.3704L75.8501 5.55556ZM67.1551 62.5926C67.1551 72.2222 69.9301 80.1852 75.2951 86.4815C80.6601 92.7778 88.6151 95.7407 98.6051 95.7407C108.595 95.7407 116.735 92.5926 122.655 86.1111C128.575 79.8148 131.35 71.8519 131.35 62.2222C131.35 52.5926 128.575 44.6296 123.21 38.3333C117.845 32.037 109.89 29.0741 99.9001 29.0741C89.9101 29.0741 81.7701 32.2222 75.8501 38.7037C69.9301 45 67.1551 52.963 67.1551 62.5926ZM108.41 41.4815C110.63 46.8519 111.555 53.8889 111.555 62.4074C111.555 82.037 107.485 91.6667 99.5301 91.6667C95.4601 91.6667 92.3151 88.8889 90.0951 83.3333C87.8751 77.7778 86.9501 70.7407 86.9501 62.4074C86.9501 42.963 91.0201 33.3333 98.9751 33.3333C103.045 33.1482 106.19 35.9259 108.41 41.4815ZM264.735 86.4815C270.84 92.5926 278.61 95.7407 287.86 95.7407C293.595 95.7407 298.59 94.6296 303.03 92.2222C307.47 90 310.985 87.2222 313.39 83.8889L311.54 81.6667C307.47 84.8148 302.845 86.2963 297.48 86.2963C290.08 86.2963 284.345 83.8889 280.46 78.8889C276.39 73.8889 274.54 67.5926 274.91 59.4444H314.5C314.5 50.5556 312.28 43.3333 307.655 37.5926C303.03 32.037 296.555 29.2593 288.23 29.2593C277.87 29.2593 269.915 32.5926 264.18 39.0741C258.445 45.5556 255.67 53.5185 255.67 62.963C255.67 72.5926 258.63 80.3704 264.735 86.4815ZM278.425 40C280.46 35.5556 283.05 33.3333 286.565 33.3333C292.115 33.3333 294.89 40.3704 294.89 54.6296L275.28 55C275.465 49.4444 276.39 44.4444 278.425 40ZM364.265 32.5926C359.27 30.3704 352.98 29.0741 345.395 29.0741C337.625 29.0741 331.52 31.1111 326.895 35C322.27 38.8889 319.865 43.7037 319.865 49.4444C319.865 54.4444 321.345 58.3333 324.12 61.1111C326.895 63.8889 331.335 66.2963 337.07 68.3333C342.25 70.1852 345.95 72.037 347.8 73.7037C349.65 75.5556 350.76 77.5926 350.76 80.3704C350.76 82.963 349.835 85.3704 347.8 87.2222C345.95 89.2593 343.36 90.1852 340.03 90.1852C331.89 90.1852 325.785 84.2593 321.53 72.4074L318.385 73.3333L319.125 91.8519C325.785 94.4444 333.185 95.7407 341.325 95.7407C349.835 95.7407 356.31 93.8889 361.12 90C365.93 86.2963 368.335 80.9259 368.335 74.2593C368.335 69.8148 367.225 66.1111 364.82 63.3333C362.415 60.5556 358.53 58.1482 352.98 55.9259C346.875 53.7037 342.62 51.6667 340.4 49.8148C338.18 47.963 337.07 45.7407 337.07 42.963C337.07 40.1852 337.81 37.963 339.475 36.1111C341.14 34.2593 343.175 33.5185 345.765 33.5185C353.165 33.5185 358.53 38.8889 361.86 49.4444L365.005 48.5185L364.265 32.5926ZM186.295 30.9259C183.705 29.6296 180.93 29.0741 177.785 29.0741C174.64 29.0741 171.495 30.3704 167.98 32.963C164.465 35.5556 161.875 39.0741 159.84 43.8889L160.025 29.0741L131.905 34.6296V37.2222L134.68 37.4074C138.195 37.7778 140.23 40.5556 140.6 45.5556C141.71 57.037 141.71 69.2593 140.6 82.2222C140.23 87.2222 138.195 89.8148 134.68 90.3704L131.905 90.7407V94.2593H171.125V90.7407L166.13 90.3704C162.615 90 160.58 87.2222 160.21 82.2222C159.1 71.4815 158.915 60 159.84 48.1482C160.95 46.2963 163.355 45.1852 167.055 44.8148C170.755 44.4444 175.01 45.5556 179.45 48.1482L186.295 30.9259Z"></path>
</svg>
