<svg xmlns="http://www.w3.org/2000/svg" fill="none" viewBox="0 0 183 48" height="48" width="183">
<path fill="black" d="M11.3954 17.2364C12.9988 13.0275 14.5736 8.93313 16.1102 4.8292C16.3297 4.23747 16.5874 3.98932 17.2459 4.0275C18.2289 4.09431 19.2215 4.08476 20.2046 4.0275C20.8345 3.98932 20.9395 4.21838 20.9299 4.79102C20.9108 14.2873 20.9204 23.7837 20.9204 33.28C20.9204 36.105 20.9108 38.9396 20.9299 41.7646C20.9299 42.28 20.8058 42.4518 20.2714 42.4422C18.9161 42.4041 17.5513 42.385 16.1961 42.4422C15.5089 42.4709 15.4325 42.1845 15.4421 41.6119C15.4612 34.7307 15.4516 27.8494 15.4516 20.9586V20.3287C15.4516 20.3287 15.3753 20.3001 15.3276 20.2905C14.9553 21.2927 14.5736 22.2948 14.2014 23.2969C13.5047 25.1962 12.8079 27.0859 12.1208 28.9852C11.9967 29.3287 11.8822 29.5578 11.4145 29.5578C10.9373 29.5578 10.7846 29.3574 10.6414 28.9661C9.58205 26.0742 8.50358 23.1919 7.31057 20.3001C7.31057 20.5673 7.31057 20.8345 7.31057 21.1018C7.31057 27.9353 7.31057 34.7593 7.32966 41.5928C7.32966 42.2323 7.21513 42.4709 6.51842 42.4422C5.1918 42.385 3.85563 42.4041 2.51947 42.4422C2.03272 42.4422 1.82275 42.3659 1.82275 41.8028C1.84184 29.4242 1.84184 17.0456 1.82275 4.66695C1.82275 4.17066 1.95637 4.01796 2.45266 4.03704C3.52159 4.07522 4.59052 4.07522 5.64991 4.03704C6.15575 4.01796 6.3848 4.18021 6.56614 4.66695C8.0741 8.64681 9.61069 12.6076 11.1377 16.5779C11.2045 16.7497 11.2713 16.9215 11.405 17.2364H11.3954Z"></path>
<path fill="black" d="M45.0183 20.5193C45.0183 15.3178 45.0374 10.1545 44.9992 4.99115C44.9992 4.24672 45.1424 3.96994 45.9441 4.01766C47.1944 4.09401 48.4542 4.05583 49.7045 4.0272C50.1244 4.0272 50.258 4.15128 50.2485 4.57121C50.2198 5.68786 50.2485 6.81406 50.2485 7.93071C50.2485 19.1354 50.2485 30.3401 50.2675 41.5448C50.2675 42.2129 50.153 42.5088 49.4086 42.4419C48.6164 42.3656 47.8052 42.3751 47.013 42.4419C46.24 42.5088 45.9155 42.2511 45.7246 41.478C44.5316 36.6487 43.2813 31.8385 42.0501 27.0188C41.6684 25.5108 41.2675 24.0124 40.7521 22.5235C40.7521 22.8099 40.7521 23.0962 40.7521 23.392C40.7521 29.4525 40.7426 35.5034 40.7712 41.5639C40.7712 42.2511 40.6281 42.4897 39.9027 42.461C38.6238 42.3942 37.3449 42.4324 36.066 42.4515C35.6652 42.4515 35.4552 42.3465 35.522 41.917C35.5411 41.812 35.522 41.7071 35.522 41.5925C35.522 29.3475 35.522 17.1025 35.5029 4.85753C35.5029 4.17036 35.6938 4.00811 36.3428 4.03675C37.5167 4.09401 38.6906 4.07492 39.8646 4.03675C40.3799 4.01766 40.5899 4.17991 40.7235 4.69529C42.0597 9.83952 43.434 14.9838 44.7893 20.128C44.8275 20.2807 44.8274 20.4429 45.0374 20.5288L45.0183 20.5193Z"></path>
<path fill="black" d="M147.225 20.7106C147.225 15.4519 147.225 10.3935 147.225 5.32563C147.225 4.47303 147.66 4.04673 148.532 4.04673C149.572 4.04673 150.613 4.104 151.653 4.02764C152.407 3.97038 152.512 4.2567 152.502 4.92478C152.474 9.14325 152.483 13.3522 152.483 17.5706C152.483 25.5685 152.474 33.576 152.502 41.5739C152.502 42.2706 152.35 42.5092 151.634 42.4519C150.737 42.3851 149.821 42.3947 148.914 42.4519C148.332 42.4901 148.141 42.2515 148.007 41.7361C146.423 35.523 144.829 29.3193 143.235 23.1157C143.168 22.8389 143.082 22.5717 142.92 22.3045C142.92 24.366 142.92 26.4275 142.92 28.489C142.92 32.8888 142.911 37.2886 142.93 41.6979C142.93 42.2897 142.787 42.4806 142.176 42.4519C140.926 42.4042 139.666 42.4233 138.415 42.4519C137.929 42.4615 137.719 42.3756 137.719 41.8125C137.738 29.4339 137.738 17.0553 137.719 4.67664C137.719 4.18989 137.843 4.02764 138.339 4.04673C139.589 4.08491 140.849 4.08491 142.099 4.04673C142.605 4.02764 142.777 4.22807 142.901 4.68618C144.275 9.9354 145.659 15.1751 147.053 20.4148C147.062 20.4625 147.101 20.5006 147.215 20.7202L147.225 20.7106Z"></path>
<path fill="black" d="M121.896 23.2014C121.896 17.0932 121.905 10.985 121.877 4.86731C121.877 4.21831 122.01 4.00834 122.698 4.01789C125.713 4.06561 128.729 4.03698 131.736 4.05606C132.184 4.05606 132.642 4.10378 133.081 4.18968C134.971 4.5619 135.945 5.64037 136.183 7.53964C136.279 8.28407 136.317 9.0285 136.317 9.77294C136.317 13.1897 136.317 16.6065 136.317 20.0232C136.317 20.6627 136.269 21.3021 136.164 21.932C135.935 23.2682 135.257 24.2703 133.94 24.6998C133.415 24.8716 133.368 25.1388 133.463 25.5779C134.332 29.6627 135.2 33.7476 136.069 37.8324C136.345 39.1304 136.622 40.4379 136.918 41.7264C137.033 42.2227 136.956 42.4517 136.365 42.4326C134.923 42.3944 133.482 42.3944 132.041 42.4326C131.545 42.4422 131.354 42.2895 131.259 41.8027C130.295 36.9734 129.302 32.1537 128.319 27.3244C128.204 26.7804 128.09 26.2269 127.985 25.6828C127.947 25.4538 127.832 25.3679 127.613 25.3679C127.317 25.3679 127.355 25.5683 127.355 25.7497C127.355 25.9405 127.355 26.1219 127.355 26.3127C127.355 31.4379 127.345 36.563 127.365 41.6786C127.365 42.2704 127.231 42.4517 126.62 42.4326C125.284 42.3849 123.948 42.3849 122.621 42.4326C122.02 42.4517 121.867 42.2799 121.867 41.6786C121.886 35.5132 121.877 29.3478 121.877 23.1918L121.896 23.2014ZM127.365 14.7549V18.353C127.365 19.7592 128.071 20.4463 129.483 20.4145C130.514 20.3859 130.791 20.1187 130.81 19.0593C130.829 17.6468 130.81 16.2342 130.81 14.8217C130.81 13.3329 130.819 11.8345 130.81 10.3456C130.8 9.37209 130.505 9.07622 129.598 9.06668C129.035 9.06668 128.481 9.09531 127.918 9.05714C127.441 9.01896 127.345 9.21938 127.355 9.64887C127.374 11.3572 127.355 13.0561 127.355 14.7645L127.365 14.7549Z"></path>
<path fill="black" d="M104.667 23.1061C104.667 27.6968 104.667 32.2779 104.667 36.8686C104.667 37.4317 104.686 37.9948 104.601 38.5483C104.247 40.9343 102.844 42.2323 100.42 42.3755C98.3969 42.49 96.3735 42.5091 94.3502 42.3564C92.1646 42.2037 90.7044 40.8198 90.399 38.6629C90.3131 38.0616 90.2749 37.4412 90.2749 36.8304C90.2749 27.7636 90.2749 18.6872 90.2749 9.62036C90.2749 8.71368 90.3226 7.807 90.5612 6.92895C91.0098 5.25874 92.1742 4.34251 93.8157 4.17072C96.259 3.91303 98.7214 3.87485 101.155 4.17072C103.484 4.4475 104.62 5.86956 104.639 8.30329C104.677 13.2376 104.648 18.1718 104.648 23.1061H104.667ZM99.189 23.3065C99.189 20.2906 99.189 17.2842 99.189 14.2683C99.189 12.9321 99.189 11.6055 99.189 10.2694C99.189 9.67763 99.0363 9.11453 98.3778 9.10499C97.5475 9.09544 96.6026 8.69459 95.925 9.54401C95.8391 9.65854 95.8295 9.84942 95.8104 10.0021C95.7914 10.3171 95.7818 10.6416 95.7818 10.9565C95.7818 19.1358 95.7818 27.3245 95.7818 35.5038C95.7818 37.3649 95.8391 37.4221 97.7193 37.4126C98.9982 37.4126 99.189 37.2217 99.189 35.9237C99.189 31.7148 99.189 27.5059 99.189 23.2874V23.3065Z"></path>
<path fill="black" d="M120.501 21.4641C120.501 26.637 120.501 31.8194 120.501 36.9923C120.501 37.794 120.481 38.5957 120.291 39.3783C119.871 41.1344 118.62 42.2129 116.692 42.356C114.488 42.5183 112.264 42.5278 110.059 42.356C107.826 42.1842 106.461 40.8003 106.223 38.567C106.165 38.0135 106.137 37.4504 106.137 36.8873C106.137 26.2457 106.137 15.5945 106.118 4.95295C106.118 4.23714 106.27 3.97946 107.024 4.01763C108.275 4.08444 109.534 4.0749 110.785 4.01763C111.491 3.97946 111.672 4.17988 111.672 4.89568C111.644 15.1651 111.653 25.444 111.653 35.7134C111.653 35.952 111.653 36.1906 111.653 36.4292C111.653 36.5914 111.653 36.7823 111.73 36.8968C112.388 37.794 113.333 37.3359 114.163 37.3836C114.774 37.4218 114.955 36.9445 115.013 36.4292C115.041 36.1619 115.022 35.8947 115.022 35.6275C115.022 25.3867 115.022 15.1364 115.003 4.89568C115.003 4.18942 115.175 3.989 115.881 4.02718C117.16 4.09398 118.439 4.0749 119.718 4.02718C120.348 3.99854 120.51 4.17988 120.51 4.80979C120.481 10.3549 120.491 15.9095 120.491 21.4546L120.501 21.4641Z"></path>
<path fill="black" d="M161.246 4.08513C162.286 4.08513 163.326 4.10422 164.367 4.08513C164.815 4.07559 164.949 4.22829 164.996 4.66732C165.77 11.8731 166.571 19.0788 167.354 26.2846C167.917 31.4192 168.442 36.5635 169.024 41.6982C169.1 42.3376 168.91 42.4617 168.318 42.4521C167.039 42.414 165.76 42.4235 164.481 42.4521C164.004 42.4617 163.851 42.3281 163.823 41.8318C163.698 39.9134 163.508 38.0046 163.374 36.0958C163.336 35.5423 163.221 35.2846 162.591 35.3228C161.608 35.38 160.616 35.38 159.633 35.3228C159.022 35.2846 158.879 35.5136 158.831 36.0672C158.669 37.976 158.44 39.8848 158.297 41.7936C158.258 42.3185 158.087 42.4617 157.581 42.4521C156.33 42.4235 155.071 42.414 153.82 42.4521C153.257 42.4712 153.076 42.3281 153.152 41.7363C153.63 37.9283 154.078 34.1202 154.527 30.3121C155.033 25.9505 155.519 21.5793 156.035 17.2082C156.474 13.4001 156.922 9.5825 157.399 5.78397C157.609 4.09468 157.648 4.09468 159.337 4.09468C159.976 4.09468 160.616 4.09468 161.255 4.09468L161.246 4.08513ZM161.112 12.3789C161.112 12.3789 161.055 12.3789 161.026 12.3789C160.998 12.5316 160.95 12.6748 160.94 12.8275C160.635 16.0343 160.329 19.2411 160.034 22.4479C159.805 24.8911 159.604 27.3249 159.365 29.7681C159.327 30.1976 159.394 30.398 159.89 30.3694C160.635 30.3312 161.379 30.3312 162.124 30.3694C162.649 30.398 162.715 30.2072 162.668 29.7204C162.448 27.573 162.276 25.4256 162.086 23.2782C161.761 19.6515 161.437 16.0152 161.112 12.3884V12.3789Z"></path>
<path fill="black" d="M61.4422 4.08484C62.7402 4.09439 64.0573 3.92259 65.3457 4.21846C67.1877 4.63839 68.2375 5.73596 68.438 7.61613C68.6957 9.92579 68.5239 12.2545 68.562 14.5737C68.562 14.9364 68.4093 15.0318 68.0753 15.0318C66.5578 15.0318 65.0308 15.0128 63.5133 15.0318C63.0265 15.0318 63.0265 14.7646 63.0361 14.421C63.0361 13.0562 63.0551 11.701 63.0361 10.3362C63.0265 9.33406 62.7306 9.06683 61.7381 9.05728C59.6861 9.02865 59.6479 9.05728 59.6479 11.1379C59.6479 12.4454 59.7052 13.7529 59.6288 15.0605C59.562 16.3871 60.0392 17.4179 60.9077 18.3818C62.9597 20.6628 64.9639 22.982 66.9873 25.2821C67.9131 26.332 68.5334 27.4964 68.543 28.9375C68.543 32.0011 68.667 35.0743 68.4857 38.138C68.333 40.7435 66.8155 42.2228 64.2004 42.3755C62.2057 42.49 60.2015 42.4996 58.2068 42.3564C55.8876 42.1942 54.3605 40.7435 54.2365 38.4434C54.1219 36.315 54.1887 34.1772 54.1601 32.0393C54.1601 31.648 54.3128 31.543 54.6755 31.543C56.1643 31.5526 57.6628 31.5621 59.1516 31.543C59.6193 31.543 59.6575 31.7625 59.6479 32.1252C59.6384 33.49 59.6384 34.8453 59.6479 36.2101C59.6479 37.1263 59.9152 37.3935 60.8314 37.4222C62.9979 37.4985 63.0361 37.4603 63.0361 35.3225C63.0361 33.9577 63.017 32.6024 63.0361 31.2376C63.0456 30.3309 62.7306 29.596 62.1389 28.9184C60.0297 26.5133 57.9682 24.07 55.8112 21.7031C54.6278 20.4051 54.0742 18.9831 54.1315 17.2174C54.2174 14.5833 54.1506 11.9396 54.1601 9.29588C54.1601 8.76142 54.1601 8.21741 54.246 7.70203C54.6373 5.5069 56.1262 4.20891 58.3881 4.09438C59.3998 4.04666 60.4114 4.09438 61.4231 4.09438L61.4422 4.08484Z"></path>
<path fill="black" d="M22.2546 23.1823C22.2546 17.0932 22.2642 11.0136 22.2355 4.92453C22.2355 4.25644 22.3501 4.0083 23.0945 4.01784C26.5113 4.06556 29.928 4.04647 33.3352 4.01784C33.9079 4.01784 34.1274 4.13237 34.0988 4.75273C34.0415 5.97437 34.0606 7.20555 34.0988 8.43673C34.1178 8.94256 33.9556 9.06664 33.4689 9.05709C31.8177 9.02846 30.1571 9.06664 28.506 9.038C27.9715 9.02846 27.7806 9.13344 27.7806 9.72517C27.8092 13.037 27.8188 16.3392 27.7806 19.651C27.7806 20.2904 27.9906 20.3954 28.5537 20.3763C29.7562 20.3381 30.9588 20.3763 32.1518 20.3572C32.5622 20.3572 32.7149 20.4718 32.7149 20.9012C32.6958 22.1801 32.6862 23.459 32.7149 24.7475C32.7244 25.2724 32.5049 25.3678 32.0468 25.3583C30.8156 25.3297 29.594 25.3678 28.3628 25.3392C27.9142 25.3297 27.7806 25.4633 27.7806 25.9214C27.7997 29.5481 27.7997 33.1844 27.7806 36.8111C27.7806 37.3074 27.9142 37.441 28.401 37.4315C30.0807 37.4029 31.7605 37.4315 33.4402 37.4124C33.9174 37.4124 34.0988 37.5269 34.0892 38.0328C34.0606 39.283 34.0606 40.5429 34.0892 41.7931C34.0988 42.2608 33.9842 42.4421 33.4689 42.4421C29.9471 42.423 26.4254 42.4135 22.9036 42.4421C22.1878 42.4421 22.2355 42.0795 22.2355 41.5927C22.2355 35.4559 22.2355 29.3191 22.2355 23.1823H22.2546Z"></path>
<path fill="black" d="M88.8071 21.4165C88.8071 26.6657 88.8071 31.9245 88.8071 37.1737C88.8071 37.6032 88.8262 38.0327 88.769 38.4526C88.4731 40.8959 87.0892 42.2225 84.6078 42.3656C82.5558 42.4802 80.5038 42.4897 78.4519 42.3656C76.0372 42.2034 74.5102 40.6859 74.3956 38.2617C74.3002 36.2097 74.367 34.1578 74.3384 32.1058C74.3384 31.724 74.4529 31.6 74.8347 31.6C76.3235 31.6191 77.822 31.6191 79.3108 31.6C79.7403 31.6 79.8548 31.7431 79.8453 32.1535C79.8262 33.4611 79.8357 34.7686 79.8453 36.0761C79.8453 37.1641 80.1316 37.4218 81.2196 37.4409C83.2239 37.46 83.262 37.4314 83.262 35.389C83.262 25.2532 83.2716 15.1174 83.243 4.98166C83.243 4.18951 83.4625 3.99863 84.2165 4.0368C85.4954 4.10361 86.7743 4.08452 88.0532 4.0368C88.6544 4.01771 88.8071 4.17996 88.8071 4.78124C88.7785 10.3263 88.788 15.8714 88.788 21.426L88.8071 21.4165Z"></path>
<path fill="black" d="M169.682 23.2971C169.682 17.1602 169.692 11.033 169.663 4.89615C169.663 4.18035 169.854 3.98947 170.551 4.0181C171.858 4.07537 173.166 4.07537 174.464 4.0181C175.122 3.98947 175.237 4.21853 175.237 4.8198C175.218 15.385 175.237 25.9407 175.199 36.506C175.199 37.3077 175.428 37.4699 176.172 37.4413C177.718 37.384 179.265 37.4413 180.811 37.4127C181.297 37.4127 181.46 37.5463 181.45 38.0426C181.422 39.3215 181.431 40.6004 181.45 41.8793C181.45 42.2897 181.345 42.4424 180.916 42.4424C177.346 42.4328 173.767 42.4233 170.198 42.4424C169.501 42.4424 169.682 41.9747 169.682 41.6216C169.682 35.5134 169.682 29.4052 169.682 23.2971Z"></path>
<path fill="black" d="M51.1445 8.34155C51.1445 7.09128 51.1541 5.84102 51.1445 4.59075C51.1445 4.1899 51.24 4.01811 51.679 4.03719C52.3184 4.06583 52.9579 4.05628 53.5973 4.03719C53.9887 4.02765 54.1891 4.08491 54.0936 4.56212C53.5973 7.139 53.1297 9.73498 52.6429 12.3119C52.5093 13.0372 51.9176 12.6077 51.5358 12.6841C51.1254 12.77 51.1541 12.4359 51.1541 12.1687C51.1541 10.8898 51.1541 9.61091 51.1541 8.33201L51.1445 8.34155Z"></path>
</svg>
