<svg xmlns="http://www.w3.org/2000/svg" fill="none" viewBox="0 0 180 26" height="26" width="180">
<g clip-path="url(#clip0_122_47)">
<path fill="black" d="M6.46235 23.5363C6.43359 23.9478 6.41983 24.3617 6.41983 24.7807H0.000488281C0.000488281 24.3492 0.0117437 23.9215 0.0330039 23.4963C0.700826 10.4075 11.516 0 24.7587 0C38.0926 0 48.9641 10.5488 49.4956 23.7639C49.5093 24.1016 49.5168 24.4393 49.5168 24.7807H43.0987C43.0987 24.4005 43.0862 24.0228 43.0625 23.6476C42.4772 14.0518 34.4896 6.42434 24.7587 6.42434C15.064 6.42434 7.10266 13.993 6.46235 23.5363ZM14.7401 23.6114C14.6949 23.9995 14.6724 24.3899 14.6726 24.7807H8.25321C8.25321 24.4143 8.26572 24.0516 8.28948 23.6927C8.84975 15.076 16.0082 8.26023 24.7587 8.26023C33.5229 8.26023 40.6913 15.096 41.2316 23.7302C41.2529 24.0778 41.2629 24.428 41.2629 24.7807H34.846C34.846 24.4118 34.826 24.0491 34.786 23.6889C34.242 18.634 29.9524 14.6846 24.7587 14.6846C19.5924 14.6846 15.3204 18.594 14.7401 23.6114ZM24.7587 16.5205C25.843 16.5206 26.9167 16.7344 27.9184 17.1497C28.9201 17.565 29.8301 18.1735 30.5965 18.9406C31.3629 19.7077 31.9706 20.6183 32.385 21.6204C32.7994 22.6225 33.0122 23.6963 33.0114 24.7807H16.5059C16.5053 23.6964 16.7182 22.6226 17.1327 21.6206C17.5471 20.6186 18.1548 19.7081 18.9212 18.941C19.6876 18.1739 20.5975 17.5654 21.5991 17.15C22.6007 16.7347 23.6744 16.5208 24.7587 16.5205Z" clip-rule="evenodd" fill-rule="evenodd"></path>
</g>
<g clip-path="url(#clip1_122_47)">
<path fill="black" d="M69.7926 24.5531V5.8132H78.1654V0.458947H55.0732V5.8132H63.3313V24.5531H69.7926ZM104.642 12.506C104.642 19.9255 99.1366 25.012 92.1401 25.012C85.1437 25.012 79.6383 19.9255 79.6383 12.506C79.6383 5.08655 85.1437 0 92.1401 0C99.1366 0 104.642 5.08655 104.642 12.506ZM97.9517 12.506C97.9517 8.41383 95.6959 5.7367 92.1404 5.7367C88.5848 5.7367 86.3291 8.41383 86.3291 12.506C86.3291 16.5982 88.5848 19.2754 92.1404 19.2754C95.6959 19.2754 97.9517 16.5982 97.9517 12.506ZM114.641 19.4283H117.203C121.408 19.4283 123.893 16.9041 123.893 12.4678C123.893 8.10787 121.408 5.58372 117.203 5.58372H114.641V19.4283ZM108.142 24.5531V0.458947H117.661C125.652 0.458947 130.584 4.97182 130.584 12.506C130.584 20.0403 125.652 24.5531 117.661 24.5531H108.142ZM140.697 0.458947H147.961L157.557 24.5531H150.637L148.841 19.8873H139.435L137.638 24.5531H131.101L140.697 0.458947ZM144.062 7.91665L141.309 15.0302H146.967L144.214 7.91665H144.062ZM166.778 9.14047L171.939 0.458947H178.936L169.684 15.4126V24.5531H163.375V15.4126L154.123 0.458947H161.349L166.778 9.14047Z" clip-rule="evenodd" fill-rule="evenodd"></path>
</g>
<defs>
<clipPath id="clip0_122_47">
<rect fill="white" height="25.012" width="50.0241"></rect>
</clipPath>
<clipPath id="clip1_122_47">
<rect transform="translate(54.1992)" fill="white" height="25.012" width="125.06"></rect>
</clipPath>
</defs>
</svg>
