<svg xmlns="http://www.w3.org/2000/svg" fill="none" viewBox="0 0 122 122" height="122" width="122">
<circle stroke-width="2" stroke="white" r="60" cy="61" cx="61"></circle>
<line stroke-width="2" stroke="white" y2="103.707" x2="19.7071" y1="19.7071" x1="103.707"></line>
<path stroke-width="2" stroke="white" d="M59.1562 25.3882C59.8426 23.7546 62.1574 23.7546 62.8438 25.3882L65.2533 31.1225C65.802 32.4285 67.4973 32.7657 68.5041 31.7691L72.9245 27.3934C74.1839 26.1468 76.3225 27.0326 76.3315 28.8046L76.3631 35.0244C76.3703 36.4411 77.8075 37.4014 79.1191 36.8659L84.8775 34.5149C86.5181 33.8451 88.1549 35.4819 87.4851 37.1225L85.1341 42.8809C84.5986 44.1925 85.5589 45.6297 86.9756 45.6369L93.1954 45.6685C94.9674 45.6775 95.8532 47.8161 94.6066 49.0755L90.2309 53.4959C89.2343 54.5027 89.5715 56.198 90.8775 56.7467L96.6118 59.1562C98.2454 59.8426 98.2454 62.1574 96.6118 62.8438L90.8775 65.2533C89.5715 65.802 89.2342 67.4973 90.2309 68.5041L94.6066 72.9245C95.8532 74.1839 94.9674 76.3225 93.1954 76.3315L86.9756 76.3631C85.5589 76.3703 84.5986 77.8075 85.1341 79.1191L87.4851 84.8775C88.1549 86.5181 86.5181 88.1549 84.8775 87.4851L79.1191 85.1341C77.8075 84.5986 76.3703 85.5589 76.3631 86.9756L76.3315 93.1954C76.3225 94.9674 74.1839 95.8532 72.9245 94.6066L68.5041 90.2309C67.4973 89.2343 65.802 89.5715 65.2533 90.8775L62.8438 96.6118C62.1574 98.2454 59.8426 98.2454 59.1562 96.6118L56.7467 90.8775C56.198 89.5715 54.5027 89.2342 53.4959 90.2309L49.0755 94.6066C47.8161 95.8532 45.6775 94.9674 45.6685 93.1954L45.6369 86.9756C45.6297 85.5589 44.1925 84.5986 42.8809 85.1341L37.1225 87.4851C35.4819 88.1549 33.8451 86.5181 34.5149 84.8775L36.8659 79.1191C37.4014 77.8075 36.4411 76.3703 35.0244 76.3631L28.8046 76.3315C27.0326 76.3225 26.1468 74.1839 27.3934 72.9245L31.7691 68.5041C32.7657 67.4973 32.4285 65.802 31.1225 65.2533L25.3882 62.8438C23.7546 62.1574 23.7546 59.8426 25.3882 59.1562L31.1225 56.7467C32.4285 56.198 32.7657 54.5027 31.7691 53.4959L27.3934 49.0755C26.1468 47.8161 27.0326 45.6775 28.8046 45.6685L35.0244 45.6369C36.4411 45.6297 37.4014 44.1925 36.8659 42.8809L34.5149 37.1225C33.8451 35.4819 35.4819 33.8451 37.1225 34.5149L42.8809 36.8659C44.1925 37.4014 45.6297 36.4411 45.6369 35.0244L45.6685 28.8046C45.6775 27.0326 47.8161 26.1468 49.0755 27.3934L53.4959 31.7691C54.5027 32.7657 56.198 32.4285 56.7467 31.1225L59.1562 25.3882Z"></path>
<circle stroke-width="2" stroke="white" r="8" cy="64" cx="72"></circle>
<circle stroke-width="2" stroke="white" r="4" cy="60" cx="47"></circle>
</svg>
