<svg xmlns="http://www.w3.org/2000/svg" fill="none" viewBox="0 0 122 122" height="122" width="122">
<circle stroke-width="2" stroke="white" r="60" cy="61" cx="61"></circle>
<circle stroke-width="2" stroke="white" r="35" cy="61" cx="61"></circle>
<circle stroke-width="2" stroke="white" r="7" cy="47" cx="72"></circle>
<circle stroke-width="2" stroke="white" r="1" cy="47" cx="48"></circle>
<circle stroke-width="2" stroke="white" r="1" cy="82" cx="57"></circle>
<circle stroke-width="2" stroke="white" r="1" cy="65" cx="85"></circle>
<line stroke-width="2" stroke="white" y2="103.707" x2="19.7071" y1="19.7071" x1="103.707"></line>
<path stroke-width="2" stroke="white" d="M38.7839 60.8356C38.7629 61.8439 39.1392 63.9728 40.8128 64.4212C42.4863 64.8697 43.9327 63.6104 44.6637 62.6012C45.7017 61.1682 46.7001 60.5801 48.4434 61.0472C50.1867 61.5143 51.2354 63.0629 51.423 64.2222"></path>
<path stroke-width="2" stroke="white" d="M69.8383 70.594C68.9545 71.0799 67.299 72.4702 67.7474 74.1438C68.1958 75.8174 70.0096 76.4404 71.2491 76.5688C73.0091 76.7512 74.0176 77.3218 74.4847 79.0651C74.9518 80.8084 74.1351 82.4909 73.2249 83.2331"></path>
</svg>
