<svg xmlns="http://www.w3.org/2000/svg" fill="none" viewBox="0 0 200 42" height="42" width="200">
<g clip-path="url(#clip0_122_130)">
<path fill="black" d="M19.9871 40.5068L23.5843 4.79683C23.7179 2.93097 24.1168 2.66469 24.783 2.66469H25.1829V0.668082H19.3209V2.66469H19.7208C20.5206 2.66469 20.9196 3.19725 20.7869 4.79683L18.6538 26.1163L16.2554 4.79683C15.9891 3.06459 16.389 2.66469 17.3215 2.66469H17.4551V0.668082H9.32738V2.66469H9.72728C10.5271 2.66469 10.5271 2.93097 10.6597 4.79683L11.3278 10.2598L9.32738 27.5823L7.19525 4.79683C6.92897 2.93097 7.32886 2.66469 8.1277 2.66469H8.26132V0.668082H0V2.66469H0.399895C1.33235 2.66469 1.33235 2.93097 1.46596 4.79683L5.19673 40.5068H10.5261L12.6583 22.1193L14.6568 40.5068H19.9871ZM54.3638 17.0552C54.3638 14.5232 54.3638 13.7243 55.9624 13.7243C57.0285 13.7243 57.0285 14.1242 57.0285 16.2564V37.5749C57.0285 38.3747 56.7622 38.5073 56.3604 38.5073H56.0941V40.5058H64.2218V38.5073H63.8219C63.2894 38.5073 63.1538 38.241 63.1538 37.4412V15.0567C63.1538 11.3259 62.354 9.99356 58.7569 9.99356C57.78 9.88738 56.7963 10.1208 55.9712 10.6546C55.1461 11.1883 54.53 11.9899 54.2263 12.9245C53.8264 10.926 52.7604 9.99356 49.9621 9.99356C47.6973 9.99356 46.4976 10.6616 45.5651 12.9245V9.99356L38.5025 10.5261V12.5246H38.7688C39.1687 12.5246 39.5686 12.9245 39.5686 13.9906V37.3086C39.5686 38.241 39.3023 38.5073 38.7688 38.5073H38.5025V40.5058H46.364V38.5073H46.0977C45.6978 38.5073 45.5651 38.3737 45.5651 37.7075V17.0552C45.5651 14.5232 45.5651 13.7243 47.0311 13.7243C48.0972 13.7243 48.0972 14.1242 48.0972 16.2564V37.5749C48.0972 38.3747 47.8309 38.5073 47.4291 38.5073H47.0292V40.5058H55.0242V38.5073H54.8906C54.358 38.5073 54.0908 38.241 54.0908 37.4412V17.0552H54.3638ZM110.593 40.5058H120.453V38.5073H119.785C118.985 38.5073 118.719 38.1074 118.719 36.3752V20.9196H123.916V36.2425C123.916 37.9748 123.65 38.3747 122.85 38.3747H122.05V40.3713H131.777V38.3747H130.978C130.178 38.3747 129.911 37.9748 129.911 36.2425V4.79683C129.911 2.93097 130.045 2.66469 130.978 2.66469H131.777V0.668082H122.052V2.66469H122.852C123.652 2.66469 123.918 2.93097 123.918 4.79683V18.6538H118.588V4.79683C118.588 2.93097 118.855 2.66469 119.787 2.66469H120.455V0.668082H110.593V2.66469H111.393C112.193 2.66469 112.459 2.93097 112.459 4.79683V37.3086C112.459 38.1084 112.193 38.3747 111.393 38.3747H110.593V40.5058ZM182.945 40.5058H190.675V38.5073H190.403C189.871 38.5073 189.871 38.3737 189.871 37.7075V17.0552C189.871 14.5232 189.871 13.7243 191.47 13.7243C192.668 13.7243 192.668 14.1242 192.668 16.2564V37.5749C192.668 38.3747 192.402 38.5073 192.136 38.5073H191.74V40.5058H200.001V38.5073H199.601C199.069 38.5073 198.933 38.241 198.933 37.4412V15.0567C198.933 11.3259 198.001 9.99356 194.402 9.99356C192.004 9.99356 190.672 10.6616 189.739 12.9245V0L182.278 0.668082V2.66469H183.077C183.61 2.66469 183.877 2.93097 183.877 4.13066V37.3086C183.877 38.241 183.744 38.5073 183.077 38.5073H182.811V40.5058H182.945ZM30.6459 40.9057C37.175 40.9057 38.1074 35.4427 38.1074 25.4492C38.1074 15.4556 37.175 9.9926 30.6459 9.9926C24.1168 9.9926 23.1844 15.322 23.1844 25.4492C23.1844 35.4427 24.1168 40.9057 30.6459 40.9057ZM79.1468 40.5058H87.0082V38.5073H86.6083C86.2084 38.5073 86.2084 38.3737 86.2084 37.7075V17.0552C86.2084 14.5232 86.2084 13.7243 87.807 13.7243C88.8731 13.7243 89.0067 14.1242 89.0067 16.2564V37.5749C89.0067 38.3747 88.7404 38.5073 88.3386 38.5073H87.9387V40.5058H96.2039V38.5073H95.9376C95.405 38.5073 95.2695 38.241 95.2695 37.4412V15.0567C95.2695 11.3259 94.4697 9.99356 90.7389 9.99356C88.4741 9.99356 87.0082 10.6616 86.2084 12.9245V9.99356L78.6133 10.5261V12.5246H79.413C79.8129 12.5246 80.2128 12.9245 80.2128 13.9906V37.3086C80.2128 38.241 79.9466 38.5073 79.413 38.5073H79.1468L79.1477 40.5068L79.1468 40.5058ZM150.3 41.0393C152.965 41.0393 154.031 39.7032 154.565 38.1084C155.097 40.5068 155.631 41.0393 158.695 41.0393C162.292 41.0393 162.692 38.9072 162.692 34.7766H160.96C160.96 37.8411 160.96 38.1074 160.292 38.1074C159.759 38.1074 159.759 37.8411 159.759 36.1089V16.2573C159.759 12.2603 158.423 10.1281 153.764 10.1281C150.033 10.1281 146.435 11.1942 146.569 15.3249C146.702 17.1907 147.368 19.0556 149.367 18.922C151.099 18.7884 151.899 17.8559 151.899 16.39C151.825 15.6867 151.61 15.0055 151.267 14.3874C150.924 13.7693 150.459 13.2269 149.901 12.7928C150.653 12.4566 151.478 12.3189 152.299 12.3929C153.635 12.3929 153.898 13.459 153.898 15.3239V20.9205C147.102 23.1853 145.77 24.1187 145.77 32.6463C145.77 38.6419 147.368 41.0451 150.3 41.0451V41.0393ZM138.708 41.0393C143.771 41.0393 144.971 39.5734 144.704 31.1794H142.572C142.572 37.8421 142.305 38.242 140.04 38.242C137.241 38.242 137.241 37.0433 137.241 25.7174V24.7849H145.369C145.369 13.3263 144.033 10.1281 138.706 10.1281C133.776 10.1281 131.245 13.1927 131.245 25.7174C131.246 37.7085 133.244 41.0393 138.707 41.0393H138.708ZM72.0861 40.9057C77.0165 40.9057 78.3489 39.4398 78.2153 31.0458H76.0831C76.0831 37.7085 75.8169 38.1084 73.4184 38.1084C70.3538 38.1084 70.6201 36.9096 70.6201 25.5837V24.6513H78.4815C78.4815 13.1927 77.4155 9.99451 72.087 9.99451C67.1566 9.99451 64.6255 13.0591 64.6255 25.5837C64.6255 37.7047 66.624 40.9067 72.087 40.9067L72.0861 40.9057ZM163.092 40.5058H171.22V38.5073H170.552C170.019 38.5073 169.884 38.241 169.884 37.4412V0L162.289 0.668082V2.66469H163.088C163.621 2.66469 163.757 2.93097 163.757 3.73076V37.5749C163.757 38.3747 163.757 38.5073 163.357 38.5073H162.957V40.5058H163.092ZM104.731 40.9057C108.462 40.9057 110.328 38.5073 110.328 34.7766C110.328 26.1153 102.597 21.1858 102.597 15.0567C102.597 13.1908 103.265 12.6583 104.596 12.6583C106.594 12.6583 106.861 13.458 107.128 16.389L107.394 19.1873H109.661V10.2598H107.929C107.795 11.3259 107.529 11.7258 107.529 11.596C107 11.043 106.355 10.6132 105.641 10.3369C104.928 10.0607 104.162 9.94474 103.398 9.99738C100.2 9.99738 97.269 11.4633 97.269 16.2602C97.269 23.8553 105 29.5846 105 35.3139C105 37.8459 104.467 38.2449 102.601 38.2449C100.869 38.2449 100.336 37.4451 100.069 33.7143L99.9356 31.1823H97.5372V40.5097H99.5357C99.6693 39.4436 100.068 38.7774 100.335 39.1735C101.004 39.8416 101.8 40.9057 104.731 40.9057ZM172.556 34.244C172.556 39.0408 173.224 40.9067 178.019 40.9067C181.35 40.9067 182.15 39.5705 182.15 35.8436V30.7795H180.151V36.1089C180.151 37.8411 180.018 38.1074 179.351 38.1074C178.685 38.1074 178.552 37.8411 178.552 36.3752V12.5246H182.282V10.2598H178.552V2.66469H176.42C174.954 9.46005 173.621 10.2598 171.623 10.2598H171.09V12.5246H172.426V34.244H172.556ZM30.6459 38.241C29.1799 38.241 29.1799 37.4412 29.1799 25.452C29.1799 13.3311 29.1799 12.5275 30.6459 12.5275C31.9821 12.5275 31.9821 13.3273 31.9821 25.3165C31.9821 37.4374 31.9821 38.241 30.6459 38.241ZM96.6019 11.5922C101.665 7.86142 102.731 4.92949 100.999 2.39842C100.2 0.932452 98.0678 0 96.6028 1.33616C94.7369 2.80213 95.2666 5.46682 98.6013 7.06259C97.9332 7.73067 96.6028 9.19472 95.4031 10.2608L96.6019 11.5922ZM152.831 37.175C151.632 37.175 151.632 35.8388 151.632 31.8456C151.632 24.5167 151.632 23.5843 154.03 22.2519V34.7766C154.03 36.7751 153.764 37.175 152.831 37.175ZM70.6192 22.3817C70.7528 12.9217 70.8854 12.3882 72.2178 12.3882C73.5501 12.3882 73.4165 12.9207 73.4165 22.3817H70.6192ZM137.241 22.3817C137.375 12.9217 137.508 12.3882 138.84 12.3882C140.172 12.3882 139.906 12.9207 139.906 22.3817H137.241Z"></path>
</g>
<defs>
<clipPath id="clip0_122_130">
<rect fill="white" height="41.0393" width="200"></rect>
</clipPath>
</defs>
</svg>
