<svg xmlns="http://www.w3.org/2000/svg" fill="none" viewBox="0 0 191 101" height="101" width="191">
<g clip-path="url(#clip0_122_80)">
<path fill="black" d="M85.269 35.4142C84.5582 37.6176 84.0047 39.8685 83.6124 42.1501C83.437 43.164 83.2972 44.1849 83.1931 45.2128C82.8407 52.7374 83.5827 56.2783 83.5827 56.2783C84.6533 64.1119 87.6957 71.8028 92.3709 78.5194C101.211 91.2336 115.894 100.445 134.078 100.451C146.147 100.451 154.684 95.3108 156.226 94.4924L159.424 98.7092H190.336L176.611 79.6244C176.611 79.6244 185.912 67.4969 185.948 51.6976C186.025 20.6606 164.26 0.507934 133.898 0.460404C116.313 0.430698 101.391 9.0039 92.3218 21.5444C89.2595 25.771 86.8796 30.4511 85.269 35.4142ZM157.799 57.0002L155.162 53.4414H123.802L136.553 71.8384C123.281 74.4362 110.74 63.335 110.926 50.4381C111.11 37.2589 121.757 27.3891 134.496 27.4737C148.466 27.5688 162.413 42.6224 157.799 57.0002Z"></path>
<path fill="black" d="M92.3273 21.5073C92.012 21.0602 91.6879 20.6191 91.3533 20.1705C83.8335 10.1744 70.7658 0.0238064 50.4712 4.14759e-05C26.6198 -0.0296647 8.21371 15.9018 2.13932 35.3965C2.06795 35.6296 1.99657 35.8688 1.93114 36.102C1.92371 36.1139 1.92371 36.1257 1.91776 36.1376C0.640885 40.5997 -0.0047813 45.2182 -0.000466801 49.8589C0.0360399 54.2557 0.612342 58.6314 1.71553 62.888C5.54753 77.1173 15.5119 88.8557 28.6391 95.1564C28.7477 95.2039 28.8488 95.2574 28.9559 95.3049C29.0213 95.3336 29.0892 95.3653 29.1596 95.4C35.7827 98.4092 43.2192 100.088 51.1226 100.147C59.0675 100.095 66.8891 98.1795 73.9578 94.5562C81.0265 90.9328 87.1448 85.7024 91.8202 79.2859C92.012 79.023 92.192 78.7541 92.3764 78.4912C94.1206 75.9993 95.6332 73.3533 96.8953 70.5864C99.8624 64.0916 101.395 57.0351 101.391 49.896C101.391 47.2522 101.182 44.6603 100.787 42.1279H54.4534V65.6849H67.2282C67.2282 66.2567 60.6765 72.6168 50.8489 72.6168C40.0355 72.6168 27.799 64.0897 27.5536 50.4263C27.2964 36.2758 39.5567 27.003 50.8489 27.404C60.0193 27.7308 63.5226 30.3464 68.6394 35.3801L83.5599 35.392H85.2819C92.0135 35.3979 98.4032 35.3979 99.1853 35.3979C98.9234 34.4111 98.6107 33.4384 98.2485 32.4838C97.0649 29.3557 95.1273 25.4805 92.3303 21.5088"></path>
</g>
<defs>
<clipPath id="clip0_122_80">
<rect fill="white" height="101.001" width="190.336"></rect>
</clipPath>
</defs>
</svg>
