<svg xmlns="http://www.w3.org/2000/svg" fill="none" viewBox="0 0 429 100" height="100" width="429">
<g clip-path="url(#clip0_48_44)">
<path fill="black" d="M0 0H57.1503V10.3931H34.7669V41.7808H22.3835V10.3931H0V0ZM57.1503 99.0173H10.0001V57.2265H22.3835V88.6143H57.1503V99.0173ZM103.903 28.1715H85.8795V41.7907H73.496V0H106.485C119.117 0 125.254 6.18424 125.254 14.056C125.254 19.7042 121.838 23.913 115.691 26.0373L128.273 41.7808H114.41L103.903 28.1715ZM85.8795 88.6143H121.143V99.0073H73.496V57.2265H120.15V67.6196H85.8795V73.1686H113.864V82.5789H85.8795V88.6143ZM112.374 14.2049C112.374 11.7332 110.785 10.3931 106.972 10.3931H85.8795V18.0167H106.982C110.795 18.0167 112.374 16.6865 112.374 14.2049ZM179.683 34.7032H153.338L149.226 41.7808H135.85L161.113 0H172.255L197.519 41.7808H183.795L179.683 34.7032ZM152.444 99.0173H140.061V57.2265H152.444V99.0173ZM173.934 24.8064L166.506 11.9317L159.078 24.8064H173.934ZM215.94 70.2998C206.426 67.034 201.282 66.1902 195.036 66.1902C187.161 66.1902 185.433 67.4806 185.433 69.2575C185.433 70.5479 186.426 71.2825 189.693 71.5803L207.767 73.1189C220.25 74.1612 224.609 79.2535 224.609 86.0433C224.609 94.0639 215.89 100 198.214 100C190.19 100 179.495 98.3125 170.081 95.1956L176.615 85.001C185.93 88.4157 194.838 89.9543 201.332 89.9543C209.853 89.9543 211.729 88.6143 211.729 86.9367C211.729 85.5966 210.786 84.5642 207.072 84.2168L189.495 82.5789C177.558 81.487 173.05 76.9803 173.05 70.2005C173.05 63.0236 179.832 56.2438 197.469 56.2438C205.145 56.2438 213.219 57.7328 221.988 60.949L215.94 70.2998ZM229.952 41.7808H218.81L193.547 0H207.509L224.55 28.6182L241.591 0H255.205L229.952 41.7808ZM279.724 80.1965V57.2265H292.107V80.6929C292.107 93.4683 283.587 100 266.258 100C248.919 100 240.409 93.4683 240.409 80.6929V57.2265H252.792V80.1965C252.792 86.4304 256.655 89.1106 266.268 89.1106C275.861 89.1106 279.724 86.4403 279.724 80.1965ZM278.344 31.3877H313.607V41.7808H265.96V0H312.614V10.3931H278.344V15.942H306.328V25.3524H278.344V31.3877ZM341.343 85.3981H323.319V99.0173H310.926V57.2265H343.915C356.547 57.2265 362.684 63.4108 362.684 71.2825C362.684 76.9307 359.268 81.1396 353.131 83.2638L365.713 99.0073H351.84L341.343 85.3981ZM349.804 71.4413C349.804 68.9696 348.215 67.6295 344.412 67.6295H323.309V75.2531H344.412C348.225 75.2531 349.804 73.913 349.804 71.4413ZM379.675 41.7808H332.525V0H344.908V31.3877H379.675V41.7808ZM393.737 88.6143H429V99.0073H381.353V57.2265H428.007V67.6196H393.737V73.1686H421.721V82.5789H393.737V88.6143ZM390.172 15.6939H404.134V3.46436H414.045V15.6939H428.007V25.1042H414.045V37.3337H404.134V25.1042H390.172V15.6939Z"></path>
</g>
<defs>
<clipPath id="clip0_48_44">
<rect fill="white" height="100" width="429"></rect>
</clipPath>
</defs>
</svg>
