<svg height="512" width="512" viewBox="0 0 512 512" xmlns="http://www.w3.org/2000/svg" version="1.2">
	<title>b47e902db745a3d01ca1fea0d381e299</title>
	<style>
		.s0 { fill: #ffffff } 
	</style>
	<path d="m259 0.5c14.1 0.3 17.9 0.7 26 3 5.2 1.4 12.9 4.2 17 6.1 4.1 1.9 11.1 5.9 15.5 8.9 4.4 2.9 12.1 9.5 17 14.6 5 5.2 11.2 12.8 13.8 16.9 2.5 4.1 6.3 11.5 8.3 16.5 2 5 4.5 13 5.5 18 1.7 8 1.9 14.3 1.9 103.5h22.8c16.7 0 24.2 0.4 28.2 1.5 3 0.8 8.9 3.1 13 5.2 5.3 2.6 9.6 5.8 14.6 10.7 4.9 5 8.1 9.3 10.7 14.6 2.1 4.1 4.4 10 5.2 13 1.3 4.7 1.5 22.4 1.5 117 0 94.6-0.2 112.3-1.5 117-0.8 3-3.1 8.9-5.2 13-2.6 5.3-5.8 9.6-10.7 14.6-5 4.9-9.3 8.1-14.6 10.7-4.1 2.1-10 4.4-13 5.2-4.7 1.3-27.5 1.5-159 1.5-131.5 0-154.3-0.2-159-1.5-3-0.8-8.9-3.1-13-5.2-5.3-2.6-9.6-5.8-14.6-10.7-4.9-5-8.1-9.3-10.7-14.6-2.1-4.1-4.4-10-5.2-13-1.3-4.7-1.5-22.4-1.5-117 0-94.6 0.2-112.3 1.5-117 0.8-3 3.1-8.9 5.2-13 2.6-5.3 5.8-9.6 10.7-14.6 5-4.9 9.3-8.1 14.6-10.7 4.1-2.1 10-4.4 13-5.2 4-1.1 11.5-1.5 51-1.5l0.6-101.5 2.7-8.7c1.5-4.9 4.1-11.8 5.8-15.5 1.6-3.8 5.4-10.4 8.3-14.8 2.9-4.4 8.7-11.4 12.8-15.5 4.1-4.1 11-10 15.4-13 4.3-3 11.5-7.1 15.9-9.1 4.4-2.1 11.5-4.7 15.8-5.9 4.3-1.2 9.9-2.6 12.5-3.1 2.6-0.4 12.1-0.6 21.2-0.4zm-23 43c-3 1-8.4 3.3-12 5.1-3.6 1.9-8.8 5.2-11.5 7.5-2.8 2.2-6.9 6.4-9.3 9.2-2.3 2.9-5.7 8.1-7.6 11.7-1.9 3.6-4.2 9.2-5.2 12.5-1.5 5.2-1.8 11.9-2.1 52.3l-0.3 46.2h136c-0.6-84.7-0.9-92.4-2.4-97.5-0.9-3.3-3.2-9.2-5.1-13-1.8-3.8-5.5-9.5-8.1-12.5-2.6-3-6.8-7.2-9.3-9.3-2.5-2.1-8.2-5.6-12.6-7.7-4.4-2.2-10.7-4.6-14-5.4-3.3-0.8-8.7-1.6-12-1.8-3.3-0.2-8.9-0.1-12.5 0.3-3.6 0.3-9 1.4-12 2.4zm-137.3 190.8c-3.4 3.2-4.6 5.4-5.5 9.5-0.9 3.8-1.2 32.9-1.2 106.2 0 73.3 0.3 102.4 1.2 106.3 0.8 3.9 2.2 6.2 5.2 9.3 3.1 3 5.4 4.4 9.4 5.2 3.8 0.9 42.9 1.2 148.2 1.2 105.3 0 144.4-0.3 148.3-1.2 3.9-0.8 6.2-2.2 9.3-5.2 3-3.1 4.4-5.4 5.2-9.3 0.9-3.9 1.2-33 1.2-106.3 0-73.3-0.3-102.4-1.2-106.3-0.8-3.9-2.2-6.2-5.2-9.3-3.1-3-5.4-4.4-9.3-5.2-3.9-0.9-42.9-1.2-149-1.1-80.1 0.1-145.7 0.5-148 1-3 0.6-5.6 2.2-8.6 5.2zm158.8 51.9c7.3 0.3 10 0.8 14.5 3 3 1.5 7.7 4.9 10.3 7.5 2.6 2.6 6 7.3 7.5 10.3 2.4 4.9 2.7 6.6 2.7 16 0 9.4-0.3 11.1-2.7 16-1.5 3.1-5.1 7.8-13.8 16v24c0 17.8-0.3 24.8-1.3 27.3-0.8 1.7-3.3 4.9-5.5 7-2.6 2.3-5.6 3.9-8 4.3-2 0.4-5.7 0.5-8.2 0.3-2.6-0.3-6.1-1.5-8.2-2.9-2-1.4-4.7-4-6-5.9-2.2-3.3-2.3-4.2-2.9-53.6l-5.9-6c-3.2-3.3-6.8-8.2-8.1-11-1.5-3.4-2.4-7.6-2.7-13-0.3-5.5 0-9.7 1.1-13.5 0.9-3 3.2-7.7 5.2-10.5 2.1-2.7 5.8-6.6 8.3-8.5 2.5-1.9 6.9-4.3 9.6-5.3 3.8-1.3 7.4-1.7 14.1-1.5z" class="s0" fill-rule="evenodd" id="Path 0"></path>
</svg>