<svg xmlns="http://www.w3.org/2000/svg" fill="none" viewBox="0 0 54 9" height="9" width="54">
<g id="Reviews">
<g id="Stars">
<path fill="#4C19D8" d="M4.7046 6.95128C4.79764 6.89552 4.91382 6.89552 5.00686 6.95128L6.98502 8.13665C7.20793 8.27023 7.48183 8.07014 7.42238 7.81717L6.89888 5.58972C6.87378 5.48293 6.91021 5.37106 6.99338 5.29953L8.73467 3.80193C8.93232 3.63195 8.82739 3.30789 8.56762 3.28602L6.27138 3.09267C6.16292 3.08354 6.06838 3.01523 6.02564 2.91513L5.12614 0.808208C5.02449 0.5701 4.68697 0.570101 4.58531 0.808209L3.68582 2.91513C3.64308 3.01523 3.54854 3.08354 3.44008 3.09267L1.14384 3.28602C0.884071 3.30789 0.779141 3.63195 0.976787 3.80193L2.71808 5.29953C2.80124 5.37106 2.83768 5.48293 2.81258 5.58972L2.28908 7.81717C2.22962 8.07014 2.50353 8.27023 2.72644 8.13665L4.7046 6.95128Z" id="1"></path>
<path fill="#4C19D8" d="M15.7358 6.95128C15.8289 6.89552 15.9451 6.89552 16.0381 6.95128L18.0163 8.13665C18.2392 8.27023 18.5131 8.07014 18.4536 7.81717L17.9301 5.58972C17.905 5.48293 17.9415 5.37106 18.0246 5.29953L19.7659 3.80193C19.9636 3.63195 19.8586 3.30789 19.5989 3.28602L17.3026 3.09267C17.1942 3.08354 17.0996 3.01523 17.0569 2.91513L16.1574 0.808208C16.0557 0.5701 15.7182 0.570101 15.6166 0.808209L14.7171 2.91513C14.6743 3.01523 14.5798 3.08354 14.4713 3.09267L12.1751 3.28602C11.9153 3.30789 11.8104 3.63195 12.008 3.80193L13.7493 5.29953C13.8325 5.37106 13.8689 5.48293 13.8438 5.58972L13.3203 7.81717C13.2609 8.07014 13.5348 8.27023 13.7577 8.13665L15.7358 6.95128Z" id="2"></path>
<path fill="#4C19D8" d="M26.7515 6.95128C26.8445 6.89552 26.9607 6.89552 27.0537 6.95128L29.0319 8.13665C29.2548 8.27023 29.5287 8.07014 29.4693 7.81717L28.9458 5.58972C28.9207 5.48293 28.9571 5.37106 29.0403 5.29953L30.7815 3.80193C30.9792 3.63195 30.8743 3.30789 30.6145 3.28602L28.3183 3.09267C28.2098 3.08354 28.1153 3.01523 28.0725 2.91513L27.173 0.808208C27.0714 0.5701 26.7338 0.570101 26.6322 0.808209L25.7327 2.91513C25.69 3.01523 25.5954 3.08354 25.487 3.09267L23.1907 3.28602C22.9309 3.30789 22.826 3.63195 23.0237 3.80193L24.765 5.29953C24.8481 5.37106 24.8846 5.48293 24.8595 5.58972L24.336 7.81717C24.2765 8.07014 24.5504 8.27023 24.7733 8.13665L26.7515 6.95128Z" id="3"></path>
<path fill="#4C19D8" d="M37.7827 6.95128C37.8758 6.89552 37.9919 6.89552 38.085 6.95128L40.0631 8.13665C40.2861 8.27023 40.56 8.07014 40.5005 7.81717L39.977 5.58972C39.9519 5.48293 39.9883 5.37106 40.0715 5.29953L41.8128 3.80193C42.0104 3.63195 41.9055 3.30789 41.6457 3.28602L39.3495 3.09267C39.241 3.08354 39.1465 3.01523 39.1038 2.91513L38.2043 0.808208C38.1026 0.5701 37.7651 0.570101 37.6634 0.808209L36.7639 2.91513C36.7212 3.01523 36.6267 3.08354 36.5182 3.09267L34.222 3.28602C33.9622 3.30789 33.8573 3.63195 34.0549 3.80193L35.7962 5.29953C35.8794 5.37106 35.9158 5.48293 35.8907 5.58972L35.3672 7.81717C35.3077 8.07014 35.5817 8.27023 35.8046 8.13665L37.7827 6.95128Z" id="4"></path>
<path fill="#4C19D8" d="M48.814 6.95128C48.907 6.89552 49.0232 6.89552 49.1162 6.95128L51.0944 8.13665C51.3173 8.27023 51.5912 8.07014 51.5318 7.81717L51.0083 5.58972C50.9832 5.48293 51.0196 5.37106 51.1028 5.29953L52.844 3.80193C53.0417 3.63195 52.9368 3.30789 52.677 3.28602L50.3808 3.09267C50.2723 3.08354 50.1778 3.01523 50.135 2.91513L49.2355 0.808208C49.1339 0.5701 48.7963 0.570101 48.6947 0.808209L47.7952 2.91513C47.7525 3.01523 47.6579 3.08354 47.5495 3.09267L45.2532 3.28602C44.9934 3.30789 44.8885 3.63195 45.0862 3.80193L46.8275 5.29953C46.9106 5.37106 46.9471 5.48293 46.922 5.58972L46.3985 7.81717C46.339 8.07014 46.6129 8.27023 46.8358 8.13665L48.814 6.95128Z" id="5"></path>
</g>
</g>
</svg>
