<svg viewBox="0 0 185 98.55" fill="none" xmlns="http://www.w3.org/2000/svg">
<path fill="black" d="M137.518 35.3125H125.235L112.953 66.3064H125.139L117.559 98.5477H118.231L141.26 56.9027H128.978L137.518 35.3125Z"></path>
<path fill="black" d="M18.5193 35.3125H0V89.144H18.5193C35.7912 89.144 45.6746 77.3414 45.6746 62.1803C45.6746 47.0192 35.7912 35.3125 18.5193 35.3125ZM18.6153 79.5483H9.5955V44.7162H18.6153C31.1854 44.7162 35.8872 52.9685 35.8872 62.2762C35.8872 71.584 31.6652 79.5483 18.6153 79.5483Z"></path>
<path fill="black" d="M79.5559 34.9238C64.491 34.9238 52.3047 47.1103 52.3047 62.2714C52.3047 77.4325 64.491 89.523 79.5559 89.523C94.6209 89.523 106.807 77.4325 106.807 62.2714C106.807 47.1103 94.7168 34.9238 79.5559 34.9238ZM79.5559 79.7354C70.0564 79.7354 62.0921 71.4832 62.0921 62.0795C62.0921 52.6757 70.0564 44.7114 79.5559 44.7114C89.0555 44.7114 97.0197 52.3879 97.0197 62.0795C97.0197 71.771 89.1514 79.7354 79.5559 79.7354Z"></path>
<path fill="black" d="M158.033 79.5483V66.3064H181.158V56.9027H158.033V44.7162H184.037V35.3125H148.438V89.144H184.996V79.5483H158.033Z"></path>
<path fill="black" d="M66.3979 21.1548H53.895V15.004H64.4117V10.4365H53.895V4.6791H66.1964V0.015625H48.7422V25.9238H66.3979V21.1548Z"></path>
<path fill="black" d="M18.0396 21.1548H5.15279V15.004H15.6599V10.4365H5.15279V4.6791H17.4446V0.015625H0V25.9238H18.0396V21.1548Z"></path>
<path fill="black" d="M170.86 25.9238H175.994V16.6736L184.985 0.015625H179.16L173.422 11.6167L167.693 0.015625H161.859L170.86 16.6736V25.9238Z"></path>
<path fill="black" d="M139.894 12.9217C139.894 5.67705 135.001 0.015625 126.614 0.015625H117.633V25.9238H126.614C135.001 25.9238 139.894 20.1664 139.894 12.9217ZM122.824 4.88061H126.614C132.103 4.88061 134.703 8.65169 134.703 13.1233C134.703 17.5948 132.304 21.1644 126.614 21.1644H122.824V4.88061Z"></path>
<path fill="black" d="M159.164 25.9238H165.056L154.568 0.015625H151.372L140.875 25.9238H146.776L152.965 8.65169L159.164 25.9238Z"></path>
<path fill="black" d="M100.827 25.9238H105.97V16.6736L114.961 0.015625H109.127L103.399 11.6167L97.6604 0.015625H91.8359L100.827 16.6736V25.9238Z"></path>
<path fill="black" d="M34.7446 25.9238L45.1941 0.015625H39.3216L33.1517 17.2878L26.9818 0.015625H21.1094L31.5589 25.9238H34.7446Z"></path>
<path fill="black" d="M76.8499 16.8211H80.2563L85.7065 25.9082H91.7421L85.3899 15.9383C88.47 14.95 90.8785 12.5031 90.8785 8.13709C90.8785 3.77108 86.906 0 81.1295 0H71.6875V25.9082H76.8595V16.8211H76.8499ZM76.8499 4.66348H81.1295C83.8162 4.66348 85.8025 5.89172 85.8025 8.67445C85.8025 11.4572 84.0081 12.5511 80.928 12.5511H76.8499V4.66348Z"></path>
</svg>