<svg xmlns="http://www.w3.org/2000/svg" fill="none" viewBox="0 0 122 122" height="122" width="122">
<circle stroke-width="2" stroke="white" r="60" cy="61" cx="61"></circle>
<line stroke-width="2" stroke="white" y2="103.707" x2="19.7071" y1="19.7071" x1="103.707"></line>
<path stroke-width="2" stroke="white" d="M72.7758 29H51.6883C50.7133 29 49.8803 29.7032 49.7167 30.6644L46.3975 50.1644C46.1897 51.3855 47.1305 52.5 48.3692 52.5H75.6801C76.902 52.5 77.8382 51.4139 77.6582 50.2054L74.754 30.7054C74.608 29.7254 73.7666 29 72.7758 29Z"></path>
<path stroke-width="2" stroke="white" d="M51.7758 62H30.6883C29.7133 62 28.8803 62.7032 28.7167 63.6644L25.3975 83.1644C25.1897 84.3855 26.1305 85.5 27.3692 85.5H54.6801C55.902 85.5 56.8382 84.4139 56.6582 83.2054L53.754 63.7054C53.608 62.7254 52.7666 62 51.7758 62Z"></path>
<path stroke-width="2" stroke="white" d="M92.7758 62H71.6883C70.7133 62 69.8803 62.7032 69.7167 63.6644L66.3975 83.1644C66.1897 84.3855 67.1305 85.5 68.3692 85.5H95.6801C96.902 85.5 97.8382 84.4139 97.6582 83.2054L94.754 63.7054C94.608 62.7254 93.7666 62 92.7758 62Z"></path>
</svg>
