<svg xmlns="http://www.w3.org/2000/svg" fill="none" viewBox="0 0 477 100" height="100" width="477">
<g clip-path="url(#clip0_48_43)">
<path fill="black" d="M27.1588 70.7406H11.9785V52.4614H0.111328V98.9173H11.978V80.5762H27.1588V98.9173H37.3523V52.4614H27.1588V70.7406ZM290.287 98.9173H318.5V89.0843H300.48V80.5127H318.5V70.6802H300.48V62.2944H318.5V52.4609H290.287V98.9168M120.871 83.1117C120.871 86.9406 117.847 89.9411 113.985 89.9411C110.164 89.9411 107.284 87.0046 107.284 83.1112V52.4614H97.09V82.5604C97.09 93.0279 103.587 99.53 114.046 99.53C124.543 99.53 131.064 93.0279 131.064 82.5604V52.4614H120.87V83.1112M67.1303 51.8482C54.0621 51.8482 43.4316 62.5437 43.4316 75.6899C43.4316 88.8356 54.0621 99.53 67.1298 99.53C80.2306 99.53 90.8885 88.835 90.8885 75.6899C90.8885 62.5432 80.2311 51.8482 67.1303 51.8482ZM67.1303 89.4503C59.6485 89.4503 53.5632 83.2777 53.5632 75.6899C53.5632 68.101 59.6485 61.9269 67.1298 61.9269C74.6441 61.9269 80.7573 68.1005 80.7573 75.6899C80.7573 83.2772 74.6446 89.4503 67.1303 89.4503ZM451.651 72.0295V81.8635H465.373C463.588 86.7153 459.35 89.5746 453.836 89.5746C445.892 89.5746 439.901 83.6051 439.901 75.6899C439.901 68.0325 446.016 61.8036 453.529 61.8036C458.996 61.8036 462.945 64.1894 465.603 69.0955L466.022 69.868L474.943 64.4518L474.545 63.7452C470.352 56.295 462.472 51.8482 453.468 51.8482C439.958 51.8482 429.771 62.098 429.771 75.6899C429.771 89.2807 440.116 99.53 453.836 99.53C466.786 99.53 476.553 89.5452 476.553 76.3031V72.0295H451.651ZM413.13 80.5229L395.427 52.462H384.446V98.9173H394.639V69.8746L412.953 98.9173H423.322V52.4614H413.13V80.5229ZM365.716 52.462H375.911V98.9173H365.716V52.462ZM254.096 98.9173H282.308V89.0843H264.289V80.5127H282.308V70.6802H264.289V62.2944H282.308V52.4609H254.095V98.9168M156.926 70.6625L155.964 70.3437C151.292 68.8031 148.427 67.7335 148.427 65.2604C148.427 62.7117 150.456 61.1295 153.72 61.1295C156.882 61.1295 159.26 62.3924 160.991 64.9889L161.483 65.7285L169.995 59.2858L169.338 58.6056C166.108 55.265 161.721 51.8482 153.659 51.8482C144.69 51.8482 137.928 57.7467 137.928 65.5691C137.928 75.0589 145.602 77.4102 151.206 79.1274L151.948 79.3548C156.198 80.6533 159.869 81.7757 159.869 84.6442C159.869 87.0772 158.041 89.6955 154.026 89.6955C150.394 89.6955 147.129 87.6579 145.066 84.1031L144.581 83.268L135.347 90.5472L135.931 91.2107C140.852 96.8092 146.791 99.5305 154.087 99.5305C162.01 99.5305 170.431 94.3345 170.431 84.7061C170.431 75.029 161.973 72.2944 156.926 70.6625ZM342.699 52.462H326.478V98.9173H336.672V86.1574H342.637C352.181 86.1574 359.656 78.7569 359.656 69.3097C359.656 59.8625 352.207 52.462 342.699 52.462ZM336.672 62.0493H342.086C346.326 62.0493 349.401 65.1031 349.401 69.3092C349.401 73.5163 346.326 76.5691 342.086 76.5691H336.672V62.0493ZM176.761 98.9173H204.973V89.0843H186.954V80.5127H204.973V70.6802H186.954V62.2944H204.973V52.4609H176.761V98.9168M248.886 52.462H236.371L223.144 68.9523V52.462H212.952V98.9178H223.144V82.7919L226.835 78.1762L238.176 98.9173H249.785L234.042 70.8066L248.885 52.462M335.942 23.998C335.942 10.1046 326.099 0.76957 311.448 0.76957H298.414V47.2264H311.815C325.795 47.2264 335.942 37.4569 335.942 23.998ZM310.467 10.3584C320.179 10.3584 325.75 15.329 325.75 23.998C325.75 32.1554 319.755 37.6376 310.834 37.6376H308.607V10.3584H310.467ZM216.253 47.8391C229.353 47.8391 240.012 37.1437 240.012 23.998C240.012 10.8513 229.353 0.156372 216.253 0.156372C203.185 0.156372 192.555 10.8518 192.555 23.998C192.555 37.1432 203.185 47.8391 216.253 47.8391ZM216.253 10.2361C223.767 10.2361 229.881 16.4097 229.881 23.9975C229.881 31.5863 223.767 37.7599 216.253 37.7599C208.772 37.7599 202.687 31.5863 202.687 23.998C202.687 16.4092 208.772 10.2361 216.253 10.2361ZM268.312 0.156372C255.245 0.156372 244.615 10.8518 244.615 23.998C244.615 37.1432 255.245 47.8391 268.312 47.8391C281.412 47.8391 292.071 37.1437 292.071 23.998C292.071 10.8513 281.412 0.156372 268.312 0.156372ZM268.312 37.7599C260.831 37.7599 254.746 31.5863 254.746 23.998C254.746 16.4092 260.831 10.2361 268.312 10.2361C275.826 10.2361 281.94 16.4097 281.94 23.9975C281.94 31.5863 275.826 37.7599 268.312 37.7599ZM165.235 47.8391C178.187 47.8391 187.953 37.8538 187.953 24.6107V20.3386H163.05V30.1726H176.774C174.988 35.0234 170.749 37.8833 165.236 37.8833C157.292 37.8833 151.302 31.9137 151.302 23.998C151.302 16.3406 157.415 10.1127 164.929 10.1127C170.395 10.1127 174.345 12.4975 177.003 17.4046L177.421 18.1777L186.344 12.7604L185.945 12.0533C181.75 4.60307 173.872 0.156372 164.868 0.156372C151.358 0.156372 141.169 10.4061 141.169 23.998C141.169 37.5889 151.516 47.8391 165.236 47.8391" clip-rule="evenodd" fill-rule="evenodd"></path>
</g>
<defs>
<clipPath id="clip0_48_43">
<rect fill="white" height="100" width="477"></rect>
</clipPath>
</defs>
</svg>
