<svg xmlns="http://www.w3.org/2000/svg" fill="none" viewBox="0 0 31 31" height="31" width="31">
<g clip-path="url(#clip0_278_2728)">
<path fill="#494949" d="M15.3548 30.6998C23.8351 30.6998 30.7097 23.8297 30.7097 15.355C30.7097 6.88034 23.8351 0.0102539 15.3548 0.0102539C6.87459 0.0102539 0 6.88034 0 15.355C0 23.8297 6.87459 30.6998 15.3548 30.6998Z"></path>
<path fill="white" d="M10.1376 8.45567L8.45779 10.1355C8.2659 10.3274 8.2659 10.6385 8.45779 10.8303L19.8786 22.2512C20.0705 22.4431 20.3816 22.4431 20.5735 22.2512L22.2533 20.5714C22.4452 20.3795 22.4452 20.0684 22.2533 19.8765L10.8325 8.45567C10.6406 8.26379 10.3295 8.26379 10.1376 8.45567Z"></path>
<path fill="white" d="M19.8777 8.45486L8.45681 19.8757C8.26493 20.0676 8.26493 20.3787 8.45681 20.5706L10.1366 22.2504C10.3285 22.4423 10.6396 22.4423 10.8315 22.2504L22.2523 10.8295C22.4442 10.6377 22.4442 10.3265 22.2523 10.1347L20.5725 8.45486C20.3806 8.26298 20.0695 8.26298 19.8777 8.45486Z"></path>
</g>
<defs>
<clipPath id="clip0_278_2728">
<rect fill="white" height="30.7097" width="30.7097"></rect>
</clipPath>
</defs>
</svg>
