<svg xmlns="http://www.w3.org/2000/svg" fill="none" viewBox="0 0 23 23" height="23" width="23">
<path stroke-width="0.2" stroke="black" fill="black" d="M11.2 0.100403C11.4332 0.100403 11.6218 0.289073 11.6218 0.522278V1.09552C14.0761 1.19675 16.3919 2.17761 18.1814 3.88654C18.35 4.04759 18.3562 4.31554 18.1951 4.48419C18.034 4.65279 17.7661 4.6589 17.5974 4.49786C15.9656 2.9395 13.8577 2.04191 11.6218 1.94122V3.64142C15.4617 3.85345 18.5455 6.93826 18.7576 10.7781H20.4587C20.3733 8.8492 19.7041 7.03234 18.5056 5.49982C18.3619 5.31615 18.3942 5.05073 18.5779 4.90704C18.7616 4.76328 19.027 4.79571 19.1707 4.97931C20.4863 6.66144 21.2184 8.65877 21.3044 10.7781H21.8777C22.1109 10.7781 22.2996 10.9668 22.2996 11.2C22.2996 11.4332 22.1109 11.6219 21.8777 11.6219H21.3035C21.0872 16.8644 16.8643 21.0872 11.6218 21.3035V21.8777C11.6218 22.111 11.4332 22.2996 11.2 22.2996C10.9667 22.2996 10.7781 22.111 10.7781 21.8777V21.3035C5.53557 21.0872 1.31272 16.8644 1.09644 11.6219H0.522217C0.289012 11.6219 0.100342 11.4332 0.100342 11.2C0.100342 10.9668 0.289012 10.7781 0.522217 10.7781H1.09644C1.31268 5.53562 5.53555 1.31179 10.7781 1.09552V0.522278C10.7781 0.289073 10.9667 0.100403 11.2 0.100403ZM1.94116 11.6219C2.15624 16.3984 6.00157 20.2427 10.7781 20.4578V18.7576C10.387 18.7359 9.9973 18.6861 9.61499 18.6043C9.38701 18.5556 9.24124 18.3313 9.28979 18.1033C9.33853 17.8754 9.56342 17.7292 9.79175 17.7781C10.1159 17.8474 10.4462 17.8911 10.7781 17.9119V16.2088C8.34109 16.0053 6.39365 14.0588 6.19019 11.6219H4.48804C4.64528 14.1308 6.19409 16.3585 8.5271 17.3729C8.74099 17.4658 8.83886 17.7146 8.74585 17.9285C8.65279 18.1423 8.40406 18.2402 8.19019 18.1473C5.54888 16.9988 3.79966 14.4676 3.64136 11.6219H1.94116ZM18.7576 11.6219C18.5455 15.4618 15.4617 18.5456 11.6218 18.7576V20.4578C16.3983 20.2427 20.2437 16.3984 20.4587 11.6219H18.7576ZM16.2097 11.6219C16.0062 14.0588 14.0588 16.0053 11.6218 16.2088V17.9119C14.9957 17.7021 17.702 14.9957 17.9119 11.6219H16.2097ZM10.7781 4.48712C7.40419 4.69694 4.69786 7.40429 4.48804 10.7781H6.19019C6.21331 10.5007 6.25851 10.2257 6.3269 9.95685C6.38441 9.73096 6.61348 9.59474 6.8396 9.65216C7.06553 9.70963 7.20257 9.93892 7.14526 10.1649C7.09421 10.3655 7.0595 10.5709 7.03882 10.7781H7.82104C8.05422 10.7782 8.24292 10.9669 8.24292 11.2C8.24292 11.4332 8.05418 11.6218 7.82104 11.6219H7.03882C7.23709 13.5926 8.80735 15.1629 10.7781 15.3611V14.5789C10.7781 14.3458 10.9668 14.157 11.2 14.157C11.4331 14.1571 11.6218 14.3458 11.6218 14.5789V15.3611C13.5925 15.1629 15.1628 13.5926 15.3611 11.6219H14.5789C14.3457 11.6218 14.157 11.4332 14.157 11.2C14.157 10.9668 14.3457 10.7782 14.5789 10.7781H15.3611C15.1628 8.80741 13.5926 7.23615 11.6218 7.0379V7.82111C11.6218 8.05424 11.4331 8.24296 11.2 8.24298C10.9668 8.24298 10.7781 8.05426 10.7781 7.82111V7.03888C9.49172 7.16681 8.3418 7.87416 7.64624 8.99005C7.52305 9.18786 7.2631 9.24879 7.06519 9.12579C6.86736 9.00248 6.80631 8.74162 6.92944 8.54376C7.78005 7.17912 9.19762 6.31976 10.7781 6.18927V4.48712ZM11.2 9.45197C12.1639 9.45197 12.948 10.2361 12.948 11.2C12.948 12.1639 12.1639 12.9481 11.2 12.9481C10.236 12.9481 9.4519 12.1639 9.4519 11.2C9.4519 10.2361 10.236 9.45197 11.2 9.45197ZM11.2 10.2967C10.7019 10.2967 10.2966 10.7019 10.2966 11.2C10.2966 11.6981 10.7019 12.1033 11.2 12.1033C11.698 12.1033 12.1033 11.6981 12.1033 11.2C12.1033 10.7019 11.698 10.2967 11.2 10.2967ZM11.6218 6.19025C14.0589 6.39371 16.0063 8.34115 16.2097 10.7781H17.9119C17.702 7.40431 14.9957 4.69694 11.6218 4.48712V6.19025ZM10.7781 1.94122C6.00155 2.1563 2.15624 6.00161 1.94116 10.7781H3.64233C3.85439 6.93826 6.93819 3.85345 10.7781 3.64142V1.94122Z"></path>
</svg>
