<svg xmlns="http://www.w3.org/2000/svg" fill="none" viewBox="0 0 18 18" height="18" width="18">
<g clip-path="url(#clip0_278_1384)">
<path fill="black" d="M7.30556 16.9453H4.97121L7.72743 13.2703C7.84728 13.1105 7.86655 12.8968 7.77722 12.7181C7.68788 12.5394 7.50528 12.4266 7.30556 12.4266H3.91652C3.62528 12.4266 3.38917 12.6627 3.38917 12.9539C3.38917 13.2452 3.62528 13.4813 3.91652 13.4813H6.25087L3.49464 17.1563C3.37479 17.3161 3.35549 17.5298 3.44486 17.7085C3.53419 17.8872 3.71679 18 3.91652 18H7.30556C7.59679 18 7.8329 17.7639 7.8329 17.4727C7.8329 17.1814 7.59679 16.9453 7.30556 16.9453Z"></path>
<path fill="black" d="M7.8703 9.03744H2.14698L8.29218 0.843753C8.41203 0.683968 8.43129 0.470146 8.342 0.291517C8.25263 0.112852 8.07002 0 7.8703 0H1.09229C0.801055 0 0.564945 0.23611 0.564945 0.527346C0.564945 0.818581 0.801055 1.05469 1.09229 1.05469H6.81561L0.670414 9.24838C0.550566 9.40817 0.5313 9.62195 0.620597 9.80062C0.70993 9.97928 0.892532 10.0921 1.09229 10.0921H7.8703C8.16154 10.0921 8.39765 9.85602 8.39765 9.56479C8.39765 9.27352 8.16154 9.03744 7.8703 9.03744Z"></path>
<path fill="black" d="M16.9077 12.2382H12.314L17.3296 5.55072C17.4494 5.39094 17.4687 5.17712 17.3794 4.99849C17.29 4.81982 17.1074 4.70697 16.9077 4.70697H11.2593C10.968 4.70697 10.7319 4.94308 10.7319 5.23432C10.7319 5.52555 10.968 5.76166 11.2593 5.76166H15.853L10.8374 12.4492C10.7176 12.609 10.6983 12.8228 10.7876 13.0014C10.8769 13.1801 11.0595 13.2929 11.2593 13.2929H16.9077C17.199 13.2929 17.4351 13.0568 17.4351 12.7656C17.4351 12.4744 17.199 12.2382 16.9077 12.2382Z"></path>
</g>
<defs>
<clipPath id="clip0_278_1384">
<rect fill="white" height="18" width="18"></rect>
</clipPath>
</defs>
</svg>
