<svg xmlns="http://www.w3.org/2000/svg" fill="none" viewBox="0 0 23 20" height="20" width="23">
<path fill="black" d="M18.1957 0C17.1059 0 16.0377 0.375727 15.188 1.05796C14.8978 1.29097 14.8514 1.71503 15.0844 2.00522C15.3174 2.29537 15.7415 2.34182 16.0317 2.10881C16.6431 1.61795 17.4116 1.34766 18.1957 1.34766C20.1017 1.34766 21.6523 2.89831 21.6523 4.80435C21.6523 6.71039 20.1016 8.26104 18.1957 8.26104H5.52535C5.15321 8.26104 4.85152 8.56274 4.85152 8.93487C4.85152 9.30701 5.15321 9.6087 5.52535 9.6087H18.1957C20.8448 9.6087 23 7.45348 23 4.80435C23 2.15522 20.8447 0 18.1957 0Z"></path>
<path fill="black" d="M4.23443 6.91792H11.4326C11.8047 6.91792 12.1064 6.61623 12.1064 6.2441C12.1064 5.87196 11.8047 5.57027 11.4326 5.57027H4.23443C3.86229 5.57027 3.5606 5.87196 3.5606 6.2441C3.5606 6.61623 3.86229 6.91792 4.23443 6.91792Z"></path>
<path fill="black" d="M11.2437 10.9609H0.673828C0.301695 10.9609 0 11.2626 0 11.6348C0 12.0069 0.301695 12.3086 0.673828 12.3086H11.2437C12.7722 12.3086 14.0157 13.5521 14.0157 15.0805C14.0157 16.609 12.7722 17.8525 11.2437 17.8525C10.6149 17.8525 9.99871 17.6357 9.50839 17.2421C9.21824 17.0091 8.79413 17.0555 8.56112 17.3457C8.32811 17.6359 8.37452 18.06 8.66471 18.2929C9.39339 18.8779 10.3093 19.2001 11.2437 19.2001C13.5153 19.2001 15.3634 17.3521 15.3634 15.0805C15.3634 12.8089 13.5153 10.9609 11.2437 10.9609Z"></path>
<path fill="black" d="M0.673828 6.91792H1.58282C1.95496 6.91792 2.25665 6.61623 2.25665 6.2441C2.25665 5.87196 1.95496 5.57027 1.58282 5.57027H0.673828C0.301695 5.57027 0 5.87196 0 6.2441C0 6.61623 0.301695 6.91792 0.673828 6.91792Z"></path>
<path fill="black" d="M8.80469 14.3169C8.80469 13.9448 8.50299 13.6431 8.13086 13.6431H4.08789C3.71576 13.6431 3.41406 13.9448 3.41406 14.3169C3.41406 14.689 3.71576 14.9907 4.08789 14.9907H8.13086C8.50304 14.9907 8.80469 14.689 8.80469 14.3169Z"></path>
</svg>
