<svg xmlns="http://www.w3.org/2000/svg" fill="none" viewBox="0 0 20 19" height="19" width="20">
<path stroke-width="0.2" stroke="black" fill="black" d="M5.88452 0.139465C6.01437 0.0851535 6.16151 0.0870387 6.28882 0.147278C6.53674 0.264564 6.64242 0.561426 6.52515 0.809387C5.53785 2.92474 5.4839 5.35748 6.37671 7.51447C8.1354 11.7628 13.0054 13.7809 17.2537 12.0223C17.4418 11.9448 17.6581 11.9904 17.7996 12.1365L17.8005 12.1375C17.9405 12.2854 17.9762 12.5037 17.8904 12.6883C16.9021 14.8196 15.1455 16.4997 12.9724 17.3924C8.2079 19.3493 2.7587 17.0738 0.801514 12.3094C-1.15554 7.54512 1.12058 2.09698 5.88452 0.139465ZM5.15503 1.61212C2.64441 3.11357 1.09895 5.82759 1.09839 8.76544C1.0976 13.3698 4.82898 17.1033 9.43335 17.1043L9.70386 17.0994C12.4053 17.0037 14.8952 15.6068 16.3865 13.3514C15.6338 13.5432 14.8601 13.6423 14.0828 13.6424C8.92982 13.6425 4.75196 9.4653 4.75171 4.31232C4.75055 3.39669 4.88755 2.48681 5.15503 1.61212ZM14.4275 5.45782C14.5239 5.45319 14.6202 5.4657 14.7117 5.49493L14.8025 5.53107L14.8123 5.53497L14.7605 5.62189L14.8123 5.53595C14.9229 5.6019 14.9844 5.72445 14.9744 5.85236L14.9763 5.85333C14.9754 5.90531 14.9648 5.9567 14.9451 6.0047L14.9441 6.00372C14.9281 6.04507 14.9077 6.08494 14.8816 6.12091L14.8777 6.12579L14.8025 6.21661L14.7996 6.22052L14.6804 6.35138L14.6794 6.3504L13.5808 7.5799H14.6892V7.58087C14.772 7.57565 14.854 7.59253 14.9265 7.63068L14.9978 7.67755L15.0027 7.68146L15.0535 7.7381C15.0965 7.79852 15.1187 7.87171 15.1179 7.94708H15.1189C15.1218 8.04701 15.0807 8.14354 15.0066 8.21075L14.9998 8.21661C14.9117 8.28284 14.8029 8.31345 14.6931 8.30646V8.30743H12.8533V8.30646C12.7282 8.31461 12.6043 8.27976 12.5037 8.2049L12.4929 8.19708L12.4939 8.19611C12.3481 8.05494 12.3322 7.82697 12.4568 7.66681C12.5044 7.60523 12.6005 7.49398 12.7429 7.33575L13.1384 6.88458L13.4792 6.4881L13.4802 6.48712L13.7419 6.19318C13.7544 6.17865 13.7649 6.16357 13.7761 6.15021H12.9675V6.14923C12.8516 6.15407 12.7356 6.14115 12.6238 6.11017L12.616 6.10822C12.5578 6.08668 12.5117 6.04675 12.4822 5.992C12.4541 5.93978 12.4432 5.87907 12.4431 5.81622H12.4441C12.4418 5.71503 12.4847 5.61778 12.5623 5.55255L12.5662 5.5506C12.6494 5.48637 12.7523 5.45324 12.8572 5.45782H14.4275ZM10.7703 2.89923C10.888 2.8935 11.0053 2.90953 11.1169 2.94513L11.2283 2.9881L11.2371 2.992L11.2849 3.02521C11.3891 3.10808 11.4462 3.23877 11.4333 3.37384L11.4324 3.37286C11.431 3.43128 11.4207 3.48922 11.3992 3.54376C11.3802 3.59355 11.3549 3.6409 11.324 3.68439L11.321 3.68829L11.2458 3.784L11.2419 3.78888L11.1667 3.7215L11.241 3.78888L11.0945 3.95099L9.67749 5.53302H11.1199V5.534C11.2524 5.52654 11.3831 5.56731 11.4871 5.65021L11.4929 5.65411L11.4919 5.65509L11.5525 5.72247C11.6045 5.7964 11.6311 5.88633 11.6277 5.97833L11.6267 5.97736C11.6279 6.09459 11.5794 6.20674 11.491 6.284L11.4861 6.2879C11.3803 6.36861 11.2486 6.40667 11.116 6.39825V6.40021H8.79858V6.39825C8.64642 6.40778 8.49574 6.36418 8.37378 6.27228L8.36597 6.26642C8.18105 6.09647 8.1614 5.8109 8.32104 5.617H8.32202C8.3787 5.54955 8.49565 5.41569 8.67261 5.21759H8.67358L9.1853 4.65021V4.64923L9.62573 4.17365L9.94995 3.80939C9.97726 3.77693 10.0004 3.74408 10.0242 3.71466H8.96167V3.71368C8.81854 3.71875 8.67562 3.70204 8.53784 3.6629L8.53394 3.66193C8.4651 3.63959 8.41059 3.59463 8.37573 3.53107C8.35922 3.50082 8.34788 3.46762 8.34058 3.43243L8.32983 3.32111C8.32656 3.202 8.37778 3.08778 8.46851 3.01056L8.47241 3.00763L8.55347 2.95685C8.63629 2.91453 8.72906 2.89497 8.823 2.90021V2.89923H10.7703ZM18.45 2.67755C18.6074 2.66995 18.7646 2.69973 18.908 2.76544L18.9167 2.76935L18.8669 2.85626L18.9167 2.77032C19.051 2.84831 19.1278 2.99762 19.113 3.15216L19.1121 3.15118C19.1106 3.20956 19.1004 3.26757 19.0789 3.32208L19.0779 3.32111C19.059 3.37083 19.0345 3.41828 19.0037 3.46173L18.9998 3.46759H18.9988L18.9041 3.58282L18.9011 3.58575L18.7546 3.74884L17.3367 5.33087H18.7908C18.9236 5.32323 19.0548 5.3649 19.1589 5.44806L19.1638 5.45197C19.2543 5.5346 19.3041 5.65365 19.2996 5.77618L19.2986 5.77521C19.2997 5.89242 19.2503 6.00463 19.1619 6.08185L19.155 6.08868L19.1541 6.08771C19.0448 6.16484 18.9118 6.19812 18.7791 6.18439V6.18536H16.4666V6.18439C16.3144 6.19399 16.1638 6.15029 16.0417 6.05841L16.0339 6.05255C15.8488 5.88263 15.8293 5.59712 15.989 5.40314V5.40216C16.0457 5.33471 16.1636 5.20181 16.3406 5.00372V5.00275L16.8523 4.43634L17.281 3.95978L17.6091 3.58771C17.6369 3.55468 17.6612 3.52189 17.6853 3.492H16.5173C16.4091 3.48763 16.3014 3.4709 16.197 3.44122L16.1941 3.44025V3.43927C16.1252 3.41696 16.0708 3.373 16.0359 3.30939C16.0192 3.27888 16.0081 3.24532 16.0007 3.20978L15.99 3.09845C15.9869 2.97971 16.0374 2.86599 16.1277 2.78888L16.1316 2.78497H16.1326C16.2326 2.70853 16.3566 2.67068 16.4822 2.67755H18.45Z"></path>
</svg>
