<svg width="459" height="440" viewBox="0 0 459 440" fill="none" xmlns="http://www.w3.org/2000/svg">
<path d="M425.387 177.102C418.458 173.074 412.233 167.944 406.955 161.913C407.488 153.517 409.488 145.278 412.864 137.572C419.072 120.057 426.091 100.217 414.827 84.7931C403.563 69.3691 382.293 69.8598 363.627 70.2864C355.378 71.1351 347.046 70.5724 338.987 68.6224C334.693 61.6359 331.626 53.9661 329.92 45.9451C324.629 27.9184 318.592 7.54511 300.053 1.44377C282.176 -4.31623 265.621 8.35577 250.987 19.4918C244.672 25.2586 237.355 29.8208 229.397 32.9531C221.357 29.8464 213.958 25.2829 207.573 19.4918C192.981 8.41977 176.491 -4.38023 158.528 1.46511C140.032 7.48111 133.995 27.9184 128.661 45.9451C126.957 53.9401 123.921 61.5917 119.68 68.5798C111.606 70.5245 103.262 71.1014 94.9973 70.2864C76.2667 69.7744 55.168 69.2198 43.7973 84.7931C32.4267 100.366 39.5307 120.057 45.76 137.55C49.1828 145.246 51.2125 153.487 51.7547 161.892C46.487 167.931 40.2683 173.069 33.344 177.102C17.728 187.769 0 199.908 0 219.62C0 239.332 17.728 251.428 33.344 262.137C40.2667 266.164 46.4853 271.295 51.7547 277.326C51.2695 285.728 49.2976 293.977 45.9307 301.689C39.744 319.182 32.7467 339.022 43.9893 354.446C55.232 369.87 76.4373 369.38 95.1893 368.953C103.445 368.104 111.784 368.666 119.851 370.617C124.125 377.611 127.184 385.279 128.896 393.294C134.187 411.321 140.224 431.694 158.763 437.796C161.735 438.749 164.836 439.238 167.957 439.246C182.959 437.094 196.902 430.272 207.808 419.748C214.123 413.981 221.44 409.419 229.397 406.286C237.438 409.393 244.836 413.957 251.221 419.748C265.835 430.905 282.389 443.641 300.288 437.774C318.784 431.758 324.821 411.321 330.155 393.316C331.864 385.306 334.923 377.645 339.2 370.66C347.243 368.702 355.561 368.125 363.797 368.953C382.528 369.401 403.627 370.02 414.997 354.446C426.368 338.873 419.264 319.182 413.035 301.668C409.635 293.98 407.607 285.756 407.04 277.369C412.311 271.325 418.537 266.186 425.472 262.158C441.088 251.492 458.816 239.332 458.816 219.62C458.816 199.908 441.024 187.79 425.387 177.102Z" fill="#4392F1"/>
<path d="M212.797 291.278C210.076 291.729 207.286 291.592 204.588 290.876C201.89 290.16 199.338 288.88 197.079 287.109L132.068 236.484C127.714 232.842 124.805 227.558 123.953 221.748C123.101 215.937 124.373 210.052 127.501 205.334C130.629 200.615 135.368 197.43 140.721 196.451C146.073 195.472 151.621 196.774 156.195 200.084L206.254 239.065L289.704 145.51C293.519 141.233 298.797 138.801 304.376 138.751C309.954 138.702 315.376 141.037 319.45 145.245C323.523 149.452 325.914 155.187 326.096 161.187C326.278 167.187 324.236 172.962 320.42 177.24L224.501 284.773C221.387 288.262 217.28 290.544 212.797 291.278Z" fill="white"/>
</svg>
