<svg width="9" height="8" viewBox="0 0 9 8" fill="none" xmlns="http://www.w3.org/2000/svg">
<path d="M8.35836 3.62638L5.15814 0.153545C5.06679 0.0544132 4.94504 0 4.81521 0C4.68525 0 4.56356 0.0544914 4.47221 0.153545L4.18165 0.468923C4.09037 0.567899 4.04009 0.700102 4.04009 0.84106C4.04009 0.98194 4.09037 1.1186 4.18165 1.21757L6.04861 3.24799H0.978735C0.711307 3.24799 0.5 3.47518 0.5 3.76546V4.21132C0.5 4.5016 0.711307 4.7517 0.978735 4.7517H6.0698L4.18173 6.79345C4.09045 6.89258 4.04016 7.02119 4.04016 7.16215C4.04016 7.30295 4.09045 7.43343 4.18173 7.53248L4.47228 7.84685C4.56363 7.94598 4.68532 8 4.81529 8C4.94511 8 5.06686 7.94527 5.15822 7.84614L8.35843 4.37339C8.45 4.27394 8.50036 4.14119 8.5 4.00008C8.50029 3.85849 8.45 3.72567 8.35836 3.62638Z" fill="white"/>
</svg>
