<svg width="70" height="103" viewBox="0 0 70 103" fill="none" xmlns="http://www.w3.org/2000/svg">
<g clip-path="url(#clip0_1_5600)">
<path d="M26.8919 62.3996L26.9589 57.8743L23.1125 60.2594C22.9935 60.3332 22.8559 60.3713 22.7158 60.3692L18.1905 60.3024L20.5756 64.1487C20.6494 64.2678 20.6875 64.4053 20.6854 64.5454L20.6184 69.0707L24.4647 66.6856C24.5838 66.6118 24.7214 66.5737 24.8614 66.5758L29.3868 66.6427L27.0017 62.7964C26.928 62.6774 26.8898 62.5397 26.8919 62.3996Z" fill="white"/>
<path d="M56.6709 46.9157C56.5971 46.7966 56.559 46.6591 56.5611 46.519L56.6919 37.6767L49.1764 42.337C49.0574 42.4108 48.9198 42.4489 48.7797 42.4468L39.9374 42.316L44.5977 49.8316C44.6715 49.9506 44.7096 50.0882 44.7075 50.2283L44.5766 59.0704L52.0922 54.4102C52.2113 54.3364 52.3488 54.2983 52.4889 54.3003L61.3311 54.431L56.6709 46.9157Z" fill="white"/>
<path d="M42.8619 19.5333L47.3872 19.6003L45.0022 15.754C44.9283 15.6349 44.8903 15.4974 44.8923 15.3573L44.9594 10.8319L41.113 13.217C40.994 13.2908 40.8564 13.3289 40.7163 13.3268L36.1908 13.2599L38.5759 17.1062C38.6497 17.2253 38.6878 17.3628 38.6858 17.5029L38.6188 22.0282L42.4651 19.6431C42.5843 19.5694 42.7219 19.5313 42.8619 19.5333Z" fill="white"/>
<path d="M55.3917 80.4447L55.4587 75.9193L51.6124 78.3044C51.4934 78.3782 51.3558 78.4163 51.2157 78.4142L46.6902 78.3473L49.0753 82.1936C49.1491 82.3127 49.1872 82.4502 49.1852 82.5903L49.1182 87.1156L52.9645 84.7305C53.0836 84.6567 53.2211 84.6186 53.3612 84.6207L57.8865 84.6877L55.5014 80.8413C55.4279 80.7224 55.3896 80.5848 55.3917 80.4447Z" fill="white"/>
</g>
<defs>
<clipPath id="clip0_1_5600">
<rect width="75" height="75" fill="white" transform="translate(37.3477 0.390625) rotate(29.5225)"/>
</clipPath>
</defs>
</svg>
