<svg xmlns="http://www.w3.org/2000/svg" fill="none" viewBox="0 0 49 49" height="49" width="49">
<path fill="white" d="M36.0277 16.2022C36.8606 16.2022 37.5388 15.5245 37.5388 14.6912C37.5388 13.8583 36.8606 13.1805 36.0277 13.1805H31.4063C31.0968 13.1805 30.8171 12.9939 30.699 12.708C30.5801 12.4216 30.6459 12.0926 30.865 11.8735L37.0962 5.64237C37.5306 5.20834 37.6584 4.56235 37.4236 3.99598C37.1896 3.42849 36.6416 3.0625 36.0277 3.0625H25.7725C24.9396 3.0625 24.2615 3.74027 24.2615 4.57356C24.2615 5.40685 24.9396 6.08463 25.7725 6.08463H30.5315C30.8411 6.08463 31.1207 6.27117 31.2388 6.55716C31.3577 6.84352 31.2919 7.1725 31.0728 7.39157L24.8417 13.6227C24.408 14.0568 24.2794 14.7031 24.5142 15.2691C24.7482 15.8366 25.2963 16.2022 25.9101 16.2022H36.0277Z"></path>
<path fill="white" d="M8.46677 31.0699H18.1664C18.9478 31.0699 19.5833 30.4343 19.5833 29.653C19.5833 28.8717 18.9478 28.2362 18.1664 28.2362H13.7364C13.4269 28.2362 13.1472 28.0496 13.0291 27.7636C12.9102 27.4773 12.976 27.1483 13.1951 26.9292L19.1683 20.956C19.5751 20.5489 19.6954 19.9429 19.4756 19.4117C19.2558 18.8801 18.7421 18.5369 18.1664 18.5369H8.33592C7.5546 18.5369 6.91907 19.1724 6.91907 19.9537C6.91907 20.735 7.5546 21.3706 8.33592 21.3706H12.8975C13.2071 21.3706 13.4867 21.5571 13.6048 21.8431C13.7237 22.1291 13.6579 22.4585 13.4388 22.6775L7.46562 28.6511C7.05888 29.0579 6.93851 29.6635 7.15833 30.1951C7.37814 30.7267 7.8918 31.0699 8.46677 31.0699Z"></path>
<path fill="white" d="M39.8716 41.7195H33.8325C33.523 41.7195 33.2434 41.533 33.1252 41.247C33.0063 40.9606 33.0721 40.6317 33.2912 40.4126L41.4335 32.27C42.0675 31.6359 42.2559 30.6909 41.9127 29.8624C41.5703 29.0336 40.7688 28.4983 39.8716 28.4983H26.4709C25.2529 28.4983 24.2615 29.4893 24.2615 30.7077C24.2615 31.926 25.2529 32.9171 26.4709 32.9171H32.6893C32.9989 32.9171 33.2785 33.1036 33.3966 33.3896C33.5155 33.676 33.4497 34.005 33.2307 34.224L25.0884 42.3663C24.4544 43.0003 24.266 43.9454 24.6091 44.7738C24.9516 45.6026 25.7531 46.1379 26.6503 46.1379H39.8716C41.0895 46.1379 42.0809 45.1469 42.0809 43.9286C42.0809 42.7106 41.0895 41.7195 39.8716 41.7195Z"></path>
</svg>
