<svg width="57" height="57" viewBox="0 0 57 57" fill="none" xmlns="http://www.w3.org/2000/svg">
<path d="M44.2862 56.1608L42.4008 54.2749C41.8635 53.7376 41.1348 53.4357 40.3749 53.4357C39.615 53.4357 38.8863 53.7376 38.3489 54.2749L36.4634 56.1608C35.9261 56.6981 35.1973 56.9999 34.4374 56.9999C33.6776 56.9999 32.9488 56.6981 32.4115 56.1608L30.526 54.2753C29.9887 53.738 29.26 53.4362 28.5001 53.4362C27.7402 53.4362 27.0114 53.738 26.4741 54.2753L24.5887 56.1608C24.0514 56.6981 23.3226 56.9999 22.5627 56.9999C21.8029 56.9999 21.0741 56.6981 20.5368 56.1608L18.6513 54.2753C18.114 53.738 17.3853 53.4362 16.6254 53.4362C15.8655 53.4362 15.1367 53.738 14.5994 54.2753L12.714 56.1608C12.1767 56.6981 11.4479 56.9999 10.688 56.9999C9.92815 56.9999 9.1994 56.6981 8.66207 56.1608L0.839277 48.338C0.30197 47.8007 0.000114807 47.0719 0.000114807 46.312C0.000114807 45.5522 0.30197 44.8234 0.839277 44.2861L2.72472 42.4006C2.99078 42.1346 3.20183 41.8187 3.34582 41.4711C3.48981 41.1235 3.56392 40.751 3.56392 40.3747C3.56392 39.9985 3.48981 39.6259 3.34582 39.2783C3.20183 38.9307 2.99078 38.6149 2.72472 38.3488L0.839277 36.4633C0.573219 36.1972 0.362169 35.8814 0.218179 35.5338C0.0741883 35.1862 7.74079e-05 34.8136 7.74079e-05 34.4374C7.74079e-05 34.0611 0.0741883 33.6886 0.218179 33.341C0.362169 32.9934 0.573219 32.6775 0.839277 32.4115L2.72484 30.5259C3.26214 29.9886 3.56399 29.2599 3.56399 28.5C3.56399 27.7402 3.26214 27.0114 2.72484 26.4741L0.839277 24.5886C0.30197 24.0512 0.000114807 23.3225 0.000114807 22.5626C0.000114807 21.8027 0.30197 21.074 0.839277 20.5367L2.72472 18.6513C3.26203 18.114 3.56389 17.3853 3.56389 16.6254C3.56389 15.8655 3.26203 15.1367 2.72472 14.5994L0.839163 12.7139C0.301856 12.1765 0 11.4478 0 10.6879C0 9.92804 0.301856 9.19928 0.839163 8.66196L8.66196 0.839162C9.19928 0.301855 9.92804 0 10.6879 0C11.4478 0 12.1765 0.301855 12.7139 0.839162L14.5993 2.72461C15.1366 3.26192 15.8654 3.56377 16.6253 3.56377C17.3851 3.56377 18.1139 3.26192 18.6512 2.72461L20.5367 0.839162C21.074 0.301855 21.8027 0 22.5626 0C23.3225 0 24.0512 0.301855 24.5886 0.839162L26.474 2.72461C27.0113 3.26192 27.7401 3.56377 28.5 3.56377C29.2598 3.56377 29.9886 3.26192 30.5259 2.72461L32.4114 0.839162C32.9487 0.301855 33.6774 0 34.4373 0C35.1972 0 35.9259 0.301855 36.4633 0.839162L38.3487 2.72461C38.886 3.26192 39.6148 3.56377 40.3747 3.56377C41.1345 3.56377 41.8633 3.26192 42.4006 2.72461L44.2861 0.839162C44.8234 0.301855 45.5521 0 46.312 0C47.0719 0 47.8006 0.301855 48.338 0.839162L56.1607 8.66151C56.4267 8.92754 56.6378 9.24338 56.7818 9.59098C56.9257 9.93859 56.9999 10.3112 56.9999 10.6874C56.9999 11.0636 56.9257 11.4362 56.7818 11.7838C56.6378 12.1314 56.4267 12.4473 56.1607 12.7133L54.2752 14.5989C54.0091 14.8649 53.7981 15.1807 53.6541 15.5283C53.5101 15.8759 53.436 16.2485 53.436 16.6248C53.436 17.001 53.5101 17.3736 53.6541 17.7212C53.7981 18.0688 54.0091 18.3846 54.2752 18.6506L56.1607 20.5358C56.698 21.0731 56.9998 21.8018 56.9998 22.5617C56.9998 23.3216 56.698 24.0503 56.1607 24.5877L54.2752 26.4731C53.7379 27.0104 53.436 27.7392 53.436 28.4991C53.436 29.2589 53.7379 29.9877 54.2752 30.525L56.1608 32.4106C56.6981 32.9479 56.9999 33.6766 56.9999 34.4365C56.9999 35.1964 56.6981 35.9252 56.1608 36.4625L54.2753 38.3478C53.738 38.8851 53.4362 39.6139 53.4362 40.3738C53.4362 41.1336 53.738 41.8624 54.2753 42.3997L56.1609 44.2853C56.6982 44.8226 57 45.5514 57 46.3112C57 47.0711 56.6982 47.7998 56.1609 48.3372L52.2494 52.2485L48.3381 56.1608C47.8008 56.6981 47.072 56.9999 46.3121 56.9999C45.5523 56.9999 44.8235 56.6981 44.2862 56.1608Z" fill="#1F4FD1"/>
<path d="M11.5441 10.7762C13.256 10.7762 13.53 10.5537 15.3444 10.5537C19.2476 10.5537 21.4731 13.19 21.4731 16.5453V22.5369H17.5528V16.3399C17.5528 14.8848 16.4744 14.0631 15.3444 14.0631C14.2145 14.0631 13.1363 14.8848 13.1363 16.3399V22.5369H9.21545V10.5537C9.98173 10.7093 10.7623 10.7839 11.5441 10.7762Z" fill="white"/>
<path d="M36.0002 10.5366H48.2403V14.1829H46.2031C44.9877 14.1829 44.0803 15.1073 44.0803 16.3228V22.537H40.1601V16.3228C40.1601 15.0902 39.27 14.1829 38.0374 14.1829H36.0002V10.5366Z" fill="white"/>
<path d="M36.0002 23.9482H48.2403V27.5945H46.2031C44.9877 27.5945 44.0803 28.519 44.0803 29.7344V35.9483H40.1601V29.7342C40.1601 28.5016 39.27 27.5943 38.0374 27.5943H36.0002V23.9482Z" fill="white"/>
<path d="M22.312 41.2412C22.3021 42.3012 22.582 43.3437 23.1214 44.2562C23.6738 45.175 24.4545 45.9352 25.3877 46.463C26.3209 46.9908 27.3747 47.2682 28.4468 47.2682C29.5188 47.2682 30.5727 46.9908 31.5058 46.463C32.439 45.9352 33.2197 45.175 33.7721 44.2562C34.3115 43.3437 34.5914 42.3012 34.5815 41.2412H22.312Z" fill="white"/>
<path d="M30.5316 16.5455C30.5316 15.4157 29.6584 14.3885 28.4602 14.3885C27.2789 14.3885 26.3717 15.3644 26.3717 16.5455C26.3717 17.6412 27.2104 18.6683 28.4602 18.6683C28.7359 18.6659 29.0083 18.609 29.2619 18.5008C29.5155 18.3926 29.7452 18.2354 29.9377 18.038C30.1302 17.8407 30.2818 17.6073 30.3838 17.3511C30.4857 17.095 30.5359 16.8212 30.5316 16.5455ZM28.4601 10.5368C30.2747 10.5368 30.5315 10.7593 32.2605 10.7593C33.0422 10.767 33.8226 10.6924 34.5887 10.5368V22.5367C33.8226 22.381 33.0422 22.3064 32.2605 22.3139C30.5316 22.3139 30.2747 22.5365 28.4602 22.5365C24.9508 22.5365 22.3315 19.8317 22.3315 16.5448C22.3315 13.0869 25.1219 10.5361 28.4602 10.5361L28.4601 10.5368Z" fill="white"/>
<path d="M30.5317 29.9572C30.5317 28.8273 29.6586 27.8002 28.4603 27.8002C27.279 27.8002 26.3718 28.7759 26.3718 29.9572C26.3718 31.0528 27.2105 32.0799 28.4603 32.0799C28.736 32.0775 29.0084 32.0205 29.262 31.9124C29.5156 31.8042 29.7453 31.647 29.9378 31.4497C30.1303 31.2524 30.2819 31.0189 30.3839 30.7628C30.4858 30.5066 30.536 30.2328 30.5317 29.9572ZM28.4602 23.9485C30.2748 23.9485 30.5316 24.171 32.2606 24.171C33.0423 24.1786 33.8227 24.1041 34.5888 23.9485V35.9486C33.8227 35.793 33.0423 35.7184 32.2605 35.726C30.5316 35.726 30.2747 35.9486 28.4602 35.9486C24.9508 35.9486 22.3315 33.2438 22.3315 29.957C22.3315 26.499 25.1219 23.9482 28.4602 23.9482V23.9485Z" fill="white"/>
<path d="M15.7342 23.9411C13.9453 23.9483 13.4858 24.1456 11.7665 24.1456C10.9121 24.1467 10.059 24.0781 9.21582 23.9404V31.3232V36.6987H13.1361V34.6669C13.9785 34.7923 14.7112 34.9835 15.8334 34.9835C19.0628 34.9835 21.473 32.4947 21.473 29.4701C21.473 26.2929 18.9377 23.9484 15.7342 23.9411ZM15.2129 31.7247C14.9372 31.7223 14.6648 31.6654 14.4112 31.5572C14.1576 31.4491 13.9279 31.2918 13.7354 31.0945C13.5429 30.8972 13.3913 30.6637 13.2893 30.4076C13.1874 30.1514 13.1372 29.8777 13.1415 29.602C13.1415 28.4722 14.0147 27.445 15.2129 27.445C16.3942 27.445 17.3015 28.4207 17.3015 29.602C17.3015 30.6977 16.4627 31.7247 15.2129 31.7247Z" fill="white"/>
</svg>
