<svg xmlns="http://www.w3.org/2000/svg" xmlns:xlink="http://www.w3.org/1999/xlink" width="900" zoomAndPan="magnify" viewBox="0 0 675 225" height="300" preserveAspectRatio="xMidYMid meet" version="1.2"><defs/><g id="f9ec681c9a"><g style="fill:#ffffff;fill-opacity:1;"><g transform="translate(22.499999, 139.56575)"><path style="stroke:none" d="M 32.8125 1.34375 C 23.832031 1.34375 16.472656 -1.757812 10.734375 -7.96875 C 5.003906 -14.1875 2.140625 -22.082031 2.140625 -31.65625 C 2.140625 -41.28125 4.929688 -49.242188 10.515625 -55.546875 C 16.109375 -61.847656 23.507812 -65 32.71875 -65 C 40.320312 -65 46.425781 -62.988281 51.03125 -58.96875 C 55.644531 -54.957031 58.304688 -49.804688 59.015625 -43.515625 L 46.1875 -43.515625 C 45.59375 -46.773438 44.117188 -49.359375 41.765625 -51.265625 C 39.421875 -53.171875 36.40625 -54.125 32.71875 -54.125 C 27.070312 -54.125 22.757812 -52.039062 19.78125 -47.875 C 16.8125 -43.71875 15.328125 -38.3125 15.328125 -31.65625 C 15.328125 -25.050781 16.914062 -19.664062 20.09375 -15.5 C 23.28125 -11.34375 27.519531 -9.265625 32.8125 -9.265625 C 36.550781 -9.265625 39.671875 -10.289062 42.171875 -12.34375 C 44.671875 -14.394531 46.128906 -17.113281 46.546875 -20.5 L 59.203125 -20.5 C 58.847656 -14.5 56.5 -9.476562 52.15625 -5.4375 C 47.34375 -0.914062 40.894531 1.34375 32.8125 1.34375 Z M 32.8125 1.34375 "/></g></g><g style="fill:#ffffff;fill-opacity:1;"><g transform="translate(83.929684, 139.56575)"><path style="stroke:none" d="M 42.796875 -5.5625 C 38.335938 -0.957031 32.597656 1.34375 25.578125 1.34375 C 18.566406 1.34375 12.832031 -0.957031 8.375 -5.5625 C 3.914062 -10.175781 1.6875 -15.929688 1.6875 -22.828125 C 1.6875 -29.722656 3.914062 -35.472656 8.375 -40.078125 C 12.832031 -44.679688 18.566406 -46.984375 25.578125 -46.984375 C 32.597656 -46.984375 38.335938 -44.679688 42.796875 -40.078125 C 47.253906 -35.472656 49.484375 -29.722656 49.484375 -22.828125 C 49.484375 -15.929688 47.253906 -10.175781 42.796875 -5.5625 Z M 25.59375 -7.9375 C 29.21875 -7.9375 32.050781 -9.285156 34.09375 -11.984375 C 36.144531 -14.691406 37.171875 -18.300781 37.171875 -22.8125 C 37.171875 -27.332031 36.144531 -30.957031 34.09375 -33.6875 C 32.050781 -36.425781 29.21875 -37.796875 25.59375 -37.796875 C 21.90625 -37.796875 19.050781 -36.441406 17.03125 -33.734375 C 15.007812 -31.035156 14 -27.398438 14 -22.828125 C 14 -18.304688 15.007812 -14.691406 17.03125 -11.984375 C 19.050781 -9.285156 21.90625 -7.9375 25.59375 -7.9375 Z M 25.59375 -7.9375 "/></g></g><g style="fill:#ffffff;fill-opacity:1;"><g transform="translate(135.106223, 139.56575)"><path style="stroke:none" d="M 22.46875 1.34375 C 15.925781 1.34375 10.8125 -0.0976562 7.125 -2.984375 C 3.445312 -5.867188 1.425781 -9.804688 1.0625 -14.796875 L 12.296875 -14.796875 C 13.078125 -9.742188 16.40625 -7.21875 22.28125 -7.21875 C 24.957031 -7.21875 27.023438 -7.691406 28.484375 -8.640625 C 29.941406 -9.597656 30.671875 -10.878906 30.671875 -12.484375 C 30.671875 -13.078125 30.566406 -13.609375 30.359375 -14.078125 C 30.148438 -14.554688 29.789062 -14.988281 29.28125 -15.375 C 28.78125 -15.757812 28.335938 -16.070312 27.953125 -16.3125 C 27.566406 -16.550781 26.894531 -16.789062 25.9375 -17.03125 C 24.988281 -17.269531 24.257812 -17.445312 23.75 -17.5625 C 23.25 -17.675781 22.390625 -17.835938 21.171875 -18.046875 C 19.953125 -18.253906 19.109375 -18.421875 18.640625 -18.546875 C 16.140625 -19.015625 14.097656 -19.5 12.515625 -20 C 10.941406 -20.507812 9.296875 -21.253906 7.578125 -22.234375 C 5.859375 -23.222656 4.566406 -24.5625 3.703125 -26.25 C 2.835938 -27.945312 2.40625 -29.984375 2.40625 -32.359375 C 2.40625 -37.117188 4.144531 -40.742188 7.625 -43.234375 C 11.101562 -45.734375 15.578125 -46.984375 21.046875 -46.984375 C 26.929688 -46.984375 31.550781 -45.628906 34.90625 -42.921875 C 38.257812 -40.222656 40.175781 -36.523438 40.65625 -31.828125 L 29.6875 -31.828125 C 29.207031 -36.285156 26.265625 -38.515625 20.859375 -38.515625 C 18.421875 -38.515625 16.503906 -38.066406 15.109375 -37.171875 C 13.710938 -36.285156 13.015625 -35.039062 13.015625 -33.4375 C 13.015625 -32.894531 13.117188 -32.398438 13.328125 -31.953125 C 13.535156 -31.515625 13.890625 -31.128906 14.390625 -30.796875 C 14.898438 -30.472656 15.390625 -30.207031 15.859375 -30 C 16.335938 -29.789062 17.019531 -29.582031 17.90625 -29.375 C 18.800781 -29.164062 19.578125 -28.988281 20.234375 -28.84375 C 20.890625 -28.695312 21.78125 -28.519531 22.90625 -28.3125 C 24.039062 -28.101562 24.9375 -27.9375 25.59375 -27.8125 C 27.488281 -27.394531 29.046875 -27.023438 30.265625 -26.703125 C 31.484375 -26.378906 32.894531 -25.84375 34.5 -25.09375 C 36.101562 -24.351562 37.363281 -23.519531 38.28125 -22.59375 C 39.207031 -21.675781 40.007812 -20.429688 40.6875 -18.859375 C 41.375 -17.285156 41.71875 -15.457031 41.71875 -13.375 C 41.71875 -8.851562 39.945312 -5.269531 36.40625 -2.625 C 32.875 0.0195312 28.226562 1.34375 22.46875 1.34375 Z M 22.46875 1.34375 "/></g></g><g style="fill:#ffffff;fill-opacity:1;"><g transform="translate(178.347735, 139.56575)"><path style="stroke:none" d="M 3.921875 0 L 3.921875 -45.734375 L 15.609375 -45.734375 L 15.609375 -39.578125 L 15.875 -39.578125 C 18.78125 -44.515625 23.207031 -46.984375 29.15625 -46.984375 C 32.007812 -46.984375 34.550781 -46.253906 36.78125 -44.796875 C 39.007812 -43.335938 40.6875 -41.394531 41.8125 -38.96875 L 42 -38.96875 C 45.320312 -44.3125 49.894531 -46.984375 55.71875 -46.984375 C 60.476562 -46.984375 64.179688 -45.539062 66.828125 -42.65625 C 69.472656 -39.78125 70.796875 -35.816406 70.796875 -30.765625 L 70.796875 0 L 58.671875 0 L 58.671875 -28.703125 C 58.671875 -33.929688 56.320312 -36.546875 51.625 -36.546875 C 49.0625 -36.546875 47.050781 -35.640625 45.59375 -33.828125 C 44.144531 -32.015625 43.421875 -29.59375 43.421875 -26.5625 L 43.421875 0 L 31.296875 0 L 31.296875 -28.703125 C 31.296875 -33.929688 28.945312 -36.546875 24.25 -36.546875 C 21.8125 -36.546875 19.832031 -35.640625 18.3125 -33.828125 C 16.800781 -32.015625 16.046875 -29.59375 16.046875 -26.5625 L 16.046875 0 Z M 3.921875 0 "/></g></g><g style="fill:#ffffff;fill-opacity:1;"><g transform="translate(252.705285, 139.56575)"><path style="stroke:none" d="M 25.40625 1.34375 C 18.039062 1.34375 12.242188 -0.925781 8.015625 -5.46875 C 3.796875 -10.019531 1.6875 -15.832031 1.6875 -22.90625 C 1.6875 -29.75 3.796875 -35.472656 8.015625 -40.078125 C 12.242188 -44.679688 17.65625 -46.984375 24.25 -46.984375 C 31.4375 -46.984375 36.992188 -44.484375 40.921875 -39.484375 C 44.847656 -34.492188 46.8125 -27.8125 46.8125 -19.4375 L 13.640625 -19.4375 C 14.117188 -15.8125 15.335938 -13.003906 17.296875 -11.015625 C 19.253906 -9.023438 21.929688 -8.03125 25.328125 -8.03125 C 29.773438 -8.03125 32.710938 -9.898438 34.140625 -13.640625 L 46.09375 -13.640625 C 45.195312 -9.359375 42.9375 -5.789062 39.3125 -2.9375 C 35.6875 -0.0820312 31.050781 1.34375 25.40625 1.34375 Z M 24.421875 -37.625 C 18.546875 -37.625 15.007812 -34.351562 13.8125 -27.8125 L 34.140625 -27.8125 C 33.960938 -30.726562 32.984375 -33.09375 31.203125 -34.90625 C 29.421875 -36.71875 27.160156 -37.625 24.421875 -37.625 Z M 24.421875 -37.625 "/></g></g><g style="fill:#ffffff;fill-opacity:1;"><g transform="translate(300.31553, 139.56575)"><path style="stroke:none" d="M 1.25 -37.71875 L 1.25 -45.734375 L 7.578125 -45.734375 L 7.578125 -60 L 19.4375 -60 L 19.4375 -45.734375 L 27.28125 -45.734375 L 27.28125 -37.71875 L 19.4375 -37.71875 L 19.4375 -13.46875 C 19.4375 -10.4375 20.953125 -8.921875 23.984375 -8.921875 L 27.546875 -9 L 27.546875 -0.09375 C 25.703125 0.03125 23.175781 0.09375 19.96875 0.09375 C 16.457031 0.09375 13.515625 -0.753906 11.140625 -2.453125 C 8.765625 -4.148438 7.578125 -6.957031 7.578125 -10.875 L 7.578125 -37.71875 Z M 1.25 -37.71875 "/></g></g><g style="fill:#ffffff;fill-opacity:1;"><g transform="translate(329.915893, 139.56575)"><path style="stroke:none" d="M 3.921875 0 L 3.921875 -45.734375 L 16.046875 -45.734375 L 16.046875 0 Z M 3.921875 -52.875 L 3.921875 -63.75 L 16.046875 -63.75 L 16.046875 -52.875 Z M 3.921875 -52.875 "/></g></g><g style="fill:#ffffff;fill-opacity:1;"><g transform="translate(349.887237, 139.56575)"><path style="stroke:none" d="M 25.140625 1.34375 C 18.066406 1.34375 12.390625 -0.941406 8.109375 -5.515625 C 3.828125 -10.097656 1.6875 -15.863281 1.6875 -22.8125 C 1.6875 -29.769531 3.78125 -35.535156 7.96875 -40.109375 C 12.164062 -44.691406 17.679688 -46.984375 24.515625 -46.984375 C 30.285156 -46.984375 34.984375 -45.46875 38.609375 -42.4375 C 42.234375 -39.40625 44.460938 -35.332031 45.296875 -30.21875 L 33.4375 -30.21875 C 33.019531 -32.300781 32.066406 -33.992188 30.578125 -35.296875 C 29.097656 -36.609375 27.253906 -37.265625 25.046875 -37.265625 C 21.484375 -37.265625 18.75 -35.984375 16.84375 -33.421875 C 14.945312 -30.867188 14 -27.335938 14 -22.828125 C 14 -18.367188 14.921875 -14.84375 16.765625 -12.25 C 18.609375 -9.664062 21.3125 -8.375 24.875 -8.375 C 30.164062 -8.375 33.226562 -10.960938 34.0625 -16.140625 L 45.734375 -16.140625 C 45.316406 -11.085938 43.265625 -6.910156 39.578125 -3.609375 C 35.898438 -0.304688 31.085938 1.34375 25.140625 1.34375 Z M 25.140625 1.34375 "/></g></g><g style="fill:#ffffff;fill-opacity:1;"><g transform="translate(396.962514, 139.56575)"><path style="stroke:none" d=""/></g></g><g style="fill:#ffffff;fill-opacity:1;"><g transform="translate(411.941023, 139.56575)"><path style="stroke:none" d="M 1.609375 -52.875 L 1.609375 -63.75 L 52.875 -63.75 L 52.875 -52.875 L 33.703125 -52.875 L 33.703125 0 L 20.765625 0 L 20.765625 -52.875 Z M 1.609375 -52.875 "/></g></g><g style="fill:#ffffff;fill-opacity:1;"><g transform="translate(466.416408, 139.56575)"><path style="stroke:none" d="M 3.921875 0 L 3.921875 -45.734375 L 16.046875 -45.734375 L 16.046875 0 Z M 3.921875 -52.875 L 3.921875 -63.75 L 16.046875 -63.75 L 16.046875 -52.875 Z M 3.921875 -52.875 "/></g></g><g style="fill:#ffffff;fill-opacity:1;"><g transform="translate(486.387753, 139.56575)"><path style="stroke:none" d="M 3.921875 0 L 3.921875 -45.734375 L 15.609375 -45.734375 L 15.609375 -39.578125 L 15.875 -39.578125 C 18.78125 -44.515625 23.207031 -46.984375 29.15625 -46.984375 C 32.007812 -46.984375 34.550781 -46.253906 36.78125 -44.796875 C 39.007812 -43.335938 40.6875 -41.394531 41.8125 -38.96875 L 42 -38.96875 C 45.320312 -44.3125 49.894531 -46.984375 55.71875 -46.984375 C 60.476562 -46.984375 64.179688 -45.539062 66.828125 -42.65625 C 69.472656 -39.78125 70.796875 -35.816406 70.796875 -30.765625 L 70.796875 0 L 58.671875 0 L 58.671875 -28.703125 C 58.671875 -33.929688 56.320312 -36.546875 51.625 -36.546875 C 49.0625 -36.546875 47.050781 -35.640625 45.59375 -33.828125 C 44.144531 -32.015625 43.421875 -29.59375 43.421875 -26.5625 L 43.421875 0 L 31.296875 0 L 31.296875 -28.703125 C 31.296875 -33.929688 28.945312 -36.546875 24.25 -36.546875 C 21.8125 -36.546875 19.832031 -35.640625 18.3125 -33.828125 C 16.800781 -32.015625 16.046875 -29.59375 16.046875 -26.5625 L 16.046875 0 Z M 3.921875 0 "/></g></g><g style="fill:#ffffff;fill-opacity:1;"><g transform="translate(560.745326, 139.56575)"><path style="stroke:none" d="M 25.40625 1.34375 C 18.039062 1.34375 12.242188 -0.925781 8.015625 -5.46875 C 3.796875 -10.019531 1.6875 -15.832031 1.6875 -22.90625 C 1.6875 -29.75 3.796875 -35.472656 8.015625 -40.078125 C 12.242188 -44.679688 17.65625 -46.984375 24.25 -46.984375 C 31.4375 -46.984375 36.992188 -44.484375 40.921875 -39.484375 C 44.847656 -34.492188 46.8125 -27.8125 46.8125 -19.4375 L 13.640625 -19.4375 C 14.117188 -15.8125 15.335938 -13.003906 17.296875 -11.015625 C 19.253906 -9.023438 21.929688 -8.03125 25.328125 -8.03125 C 29.773438 -8.03125 32.710938 -9.898438 34.140625 -13.640625 L 46.09375 -13.640625 C 45.195312 -9.359375 42.9375 -5.789062 39.3125 -2.9375 C 35.6875 -0.0820312 31.050781 1.34375 25.40625 1.34375 Z M 24.421875 -37.625 C 18.546875 -37.625 15.007812 -34.351562 13.8125 -27.8125 L 34.140625 -27.8125 C 33.960938 -30.726562 32.984375 -33.09375 31.203125 -34.90625 C 29.421875 -36.71875 27.160156 -37.625 24.421875 -37.625 Z M 24.421875 -37.625 "/></g></g><g style="fill:#ffffff;fill-opacity:1;"><g transform="translate(609.247121, 139.56575)"><path style="stroke:none" d="M 22.46875 1.34375 C 15.925781 1.34375 10.8125 -0.0976562 7.125 -2.984375 C 3.445312 -5.867188 1.425781 -9.804688 1.0625 -14.796875 L 12.296875 -14.796875 C 13.078125 -9.742188 16.40625 -7.21875 22.28125 -7.21875 C 24.957031 -7.21875 27.023438 -7.691406 28.484375 -8.640625 C 29.941406 -9.597656 30.671875 -10.878906 30.671875 -12.484375 C 30.671875 -13.078125 30.566406 -13.609375 30.359375 -14.078125 C 30.148438 -14.554688 29.789062 -14.988281 29.28125 -15.375 C 28.78125 -15.757812 28.335938 -16.070312 27.953125 -16.3125 C 27.566406 -16.550781 26.894531 -16.789062 25.9375 -17.03125 C 24.988281 -17.269531 24.257812 -17.445312 23.75 -17.5625 C 23.25 -17.675781 22.390625 -17.835938 21.171875 -18.046875 C 19.953125 -18.253906 19.109375 -18.421875 18.640625 -18.546875 C 16.140625 -19.015625 14.097656 -19.5 12.515625 -20 C 10.941406 -20.507812 9.296875 -21.253906 7.578125 -22.234375 C 5.859375 -23.222656 4.566406 -24.5625 3.703125 -26.25 C 2.835938 -27.945312 2.40625 -29.984375 2.40625 -32.359375 C 2.40625 -37.117188 4.144531 -40.742188 7.625 -43.234375 C 11.101562 -45.734375 15.578125 -46.984375 21.046875 -46.984375 C 26.929688 -46.984375 31.550781 -45.628906 34.90625 -42.921875 C 38.257812 -40.222656 40.175781 -36.523438 40.65625 -31.828125 L 29.6875 -31.828125 C 29.207031 -36.285156 26.265625 -38.515625 20.859375 -38.515625 C 18.421875 -38.515625 16.503906 -38.066406 15.109375 -37.171875 C 13.710938 -36.285156 13.015625 -35.039062 13.015625 -33.4375 C 13.015625 -32.894531 13.117188 -32.398438 13.328125 -31.953125 C 13.535156 -31.515625 13.890625 -31.128906 14.390625 -30.796875 C 14.898438 -30.472656 15.390625 -30.207031 15.859375 -30 C 16.335938 -29.789062 17.019531 -29.582031 17.90625 -29.375 C 18.800781 -29.164062 19.578125 -28.988281 20.234375 -28.84375 C 20.890625 -28.695312 21.78125 -28.519531 22.90625 -28.3125 C 24.039062 -28.101562 24.9375 -27.9375 25.59375 -27.8125 C 27.488281 -27.394531 29.046875 -27.023438 30.265625 -26.703125 C 31.484375 -26.378906 32.894531 -25.84375 34.5 -25.09375 C 36.101562 -24.351562 37.363281 -23.519531 38.28125 -22.59375 C 39.207031 -21.675781 40.007812 -20.429688 40.6875 -18.859375 C 41.375 -17.285156 41.71875 -15.457031 41.71875 -13.375 C 41.71875 -8.851562 39.945312 -5.269531 36.40625 -2.625 C 32.875 0.0195312 28.226562 1.34375 22.46875 1.34375 Z M 22.46875 1.34375 "/></g></g></g></svg>