<svg viewBox="0 0 559 74.96" xmlns="http://www.w3.org/2000/svg" data-name="Layer 1" id="Layer_1">
  <defs>
    <style>
      .cls-1 {
        fill: #fff;
      }
    </style>
  </defs>
  <path d="M493.35,70.37c-3.26-5.6.22-13.86,1.5-19.51,2.03-8.97,4.15-17.91,6.3-26.85.9-3.75,1.87-7.49,2.97-11.19,1.1-3.69,3.37-7.43,6.88-9.24,3.59-1.85,7.72-2.56,11.7-2.97,5.5-.56,11.03-.54,16.55-.43,3.97.08,8.03.3,11.86,1.41,3.79,1.1,8.28,3.87,7.87,8.48-.63,6.86-6.84,10.1-12.84,10.46-2.21.13-4.53.17-6.72.56-1.08.19-2.16.52-3.07,1.15-1.08.76-2.04,1.88-1.64,3.25.3,1.03.99,1.85,1.83,2.5,1.85,1.42,4.15,2.06,6.13,3.26.59.36,1.16.77,1.62,1.29,2.52,2.14,2.59,5.96.91,8.63-3.03,4.85-9.94,4.93-14.52,7.02-3.75,1.69-2.95,5.08.88,6.46,5.86,2.3,15.55,1.24,16.06,9.3-.07,4.81-4.25,9.45-8.9,10.06-11.77,1.54-23.3.66-33.98.92-3.47.08-7.91-.38-10.38-3.17-.39-.44-.73-.91-1.01-1.4Z" class="cls-1"></path>
  <path d="M165.31,44.06c-1.41-32.64,29.14-50.17,59.51-42.09,15.71,3.94,23.56,18.89,21.65,34.29-1.57,18.84-14.57,34.13-34.63,37.56-22.49,4.41-45.97-3.66-46.51-29.37v-.39ZM215.4,30.6c-.14-5.76-4.73-10.83-10.34-8.25-5.68,2.43-9.1,10.62-9.35,18.81-.76,8.75,5.63,16.97,13.6,9.25,4.45-4.72,6.43-12.91,6.12-19.4l-.03-.4Z" class="cls-1"></path>
  <path d="M273.57,4.88c-27.34,13.46-32.55,51.6-3.05,66.05,25.28,12.96,61.08-7.02,61.33-35.56l.02-.32c.05-29.28-34.31-43.15-58.3-30.17ZM293.84,50.19l-.25.15c-6.46,4.02-11.77-1.74-12.61-6.88-1.32-5.86.79-12.88,5.32-17.06,6.86-6.6,14.67-1.07,15.39,6.41,1.04,5.69-2.43,14.25-7.85,17.38Z" class="cls-1"></path>
  <path d="M337.2,43.79c-1-22.98,15.93-40.99,38.64-43.09,11.47-1.49,34-.84,31.11,15.63-3.22,12.57-18.78,2.76-27.24,8.51-8.68,4.07-11.88,19.75-3.47,25.47,3.11,2.2,7.45,2.24,11.19,1.88,3.03-.2,7.64-1.15,9.54.91,3.03,4.05-.28,11.26-3.47,14.8-5.62,6.49-14.98,7.44-24.07,6.95-18.36-.81-32.03-11.39-32.22-30.68v-.39Z" class="cls-1"></path>
  <path d="M404.26,72.08c-4.06-4.03-.73-10.77-.04-15.82,2.68-11.72,6.88-30.49,9.48-41.67,1.02-3.85,1.82-8.05,4.61-10.88,4.45-4.02,12.48-4.29,18.34-3.03,11.16,2.84,5.55,12.94,8.91,20.36,2.55,5.56,10.16,5.21,14.24,1.35,6.31-4.97,6.56-14.36,12.98-18.95,5.74-4.96,24.99-5.13,24.19,4.86-2.32,15.95-8.2,36.78-11.4,52.12-1.42,6.66-3.7,13.05-11.68,14.05-6.13,1.04-15.28.79-17.87-5.53-2.41-6.29,2.52-18.62-7.24-20.92-4.63-.96-9.17,2.13-11.73,5.69-3.96,5.22-4.67,12.72-9.64,17.04-5.82,5.27-16.69,5.43-23.04,1.44l-.14-.11Z" class="cls-1"></path>
  <path d="M2.13,69.96c-4.12-4.76-2.03-13.89,4.36-15.49,4.89-1.32,12.62.45,16.35-1.2,6.6-3.18-3.13-10.47-5.82-13.79-8.92-8.43-10.37-22.75-1.19-31.09C26-.52,42.1-.87,54.8.81c3.97.71,6.93,2,8.53,4.13,3.27,4.2,1.58,11.76-3.5,14-4.77,2.44-13.38.91-15.3,3.41-1.97,2.98,2.66,6.68,4.97,9.24,13.86,11.5,13.63,30.98-4.02,38.86-10.27,4.8-34.94,7.21-43.17-.3l-.18-.2Z" class="cls-1"></path>
  <path d="M153.05.33c-.15-.03-.3-.07-.45-.08-2.36-.4-4.73-.28-7.01.18-.03,0-.05.02-.08.02-4.71,1-9.22,3.48-13.22,6.06-1.41.92-2.76,1.81-4.11,2.65-3.81,2.31-7.56,4.01-12.6,3.61-1.28-.1-2.48-.37-3.59-.73-7.26-2.38-11.92-9.52-20.94-11.5-.33-.07-.67-.13-.98-.18-16.06-2.83-17.54,12.72-19.94,24.4,0,0-5.08,23.47-7.66,35.72-.42,1.96-.58,3.71-.48,5.23.33,5.39,3.89,8.09,10.84,8.7.32.03.67.05,1.02.07h.08c4.64-.07,9.39-1.66,12.7-4.64,2.45-2.2,4.16-5.53,5.39-8.84.52-1.66,1.02-3.38,1.58-5.01.93-3.41,1.81-6.87,2.6-10.32.42-1.78.9-3.66,2.21-5.09,2.75-3,5.34.63,6.97,3.26.38.62.72,1.17.98,1.58,1.48,2.26,3.46,3.23,6.26,3.1,2.83-.13,4.48-1.93,6.12-3.73,1.51-1.65,3.01-3.3,5.41-3.66,3.94-.62,1.65,7.71.6,11.4-.18.65-.33,1.15-.4,1.45-1.15,4.81-3.73,13.27.77,17.31l.15.13c.9.7,1.93,1.28,3.08,1.73.87.45,1.78.78,2.68,1.02,4.86,1.28,11.47,1.23,16.01-1.36,4.71-2.68,5.68-8.36,6.92-13.22,2.83-10.95,4.44-22.14,6.94-33.16.2-.87.4-1.81.57-2.81,1.55-8.46,2.11-21.15-8.42-23.27Z" class="cls-1"></path>
</svg>